<?xml version="1.0" encoding="UTF-8"?>
<svg xmlns="http://www.w3.org/2000/svg" version="1.1" viewBox="0 0 812.4 248.7">
  <!-- Generator: Adobe Illustrator 28.6.0, SVG Export Plug-In . SVG Version: 1.2.0 Build 709)  -->
  <g>
    <g id="_レイヤー_1" data-name="レイヤー_1">
      <g>
        <g>
          <path d="M46.7,81.6c-3-8-10.4-8.2-11.9-8.2-4.8,0-8.1,1.8-10.3,4-3.2,3.2-3.9,6.8-3.9,9.4s1,5.1,2.8,7c2.2,2.4,5,3.5,8,5.2l3.3,1.8c4.1,2.3,7.6,3.8,10.2,6.5,3,3,4,6.2,4,10.1,0,5.8-2.2,11.1-6.2,14.9-5.2,5-11.1,5.8-16.6,5.8s-9.5-1-13.4-4.9c-2.5-2.5-4.3-6.1-5.2-9.4l4-1.8c.2.7,1.3,4.9,4.4,8,3.1,3.1,6.9,4.1,10.4,4.1s9.9-1.3,13.2-4.4c2-1.9,4.6-5.5,4.6-11.6s-.8-5.7-3.2-8.1-6.2-4.1-9-5.6l-4.6-2.5c-2.2-1.2-5.6-3.5-7.5-5.5-2.4-2.5-3.8-5.3-3.8-9.4,0-5.9,2.8-9.9,5.1-12.2,3.1-3,7.5-5.4,13.9-5.4s12.5,2.9,15.2,9.5l-3.5,2.7Z"/>
          <path d="M69.6,101.7l35.4-31.4h5.8l-36.4,32,29.9,34.7h-5.8l-27.5-31.8-2,1.7-3.7,30.1h-4.4l8.2-66.7h4.4l-3.9,31.4Z"/>
          <path d="M127.5,70.3l-8.2,66.7h-4.4l8.2-66.7h4.4Z"/>
          <path d="M137.3,137l8.3-67.4,48.8,58.8,7.1-58.1h4.4l-8.4,68.4-48.8-58.8-7,57.1h-4.4Z"/>
          <path d="M292.5,113.5c-2.7,3.2-5.9,6.4-9.4,9.7l8.5,13.8h-5.6l-6.4-10.5-2.7,2.8c-2.6,2.7-5.2,4.4-8,5.9-4.9,2.5-8.4,3.1-13,3.1s-9.1-.9-12.7-4.6c-2.7-2.8-4.6-7-4.6-12.2s2.2-9.9,5.9-13.5c3.2-3.1,7.1-5.2,11.3-7.7l5.8-3.5-2.1-4.2c-1.4-2.9-2.9-6-2.9-10s1.8-7.6,3.9-9.7c2.6-2.7,5.9-3.8,9.6-3.8s7.3,1.4,9.2,3.4c1.5,1.6,2.8,4,2.8,7.8,0,5.4-2.4,8.2-4.6,10.4s-3.4,3-5.5,4.4l-4.4,2.9,13.4,21.7c3.2-2.9,6.1-6,8.9-9.3l2.6,3.1ZM263.6,100.2l-6.4,3.7c-3,1.8-6.3,3.8-9.1,6.5-3.1,3.1-4.9,6.6-4.9,11.3s1.6,7.1,3.5,9c3,3,6.5,3.6,10.2,3.6s6.8-.7,10.3-2.7c1.8-1.1,5.7-3.8,7.3-5.5l3-3.1-13.9-22.8ZM265.5,94.6l4.6-2.9c1.6-1,4-2.9,5.3-4.6,1.7-2.1,2.3-4.4,2.3-6.8s-.5-3.7-2.3-5.2c-1.6-1.3-3.5-1.8-5.5-1.8s-4.3.6-6.1,2.3c-1.3,1.3-2.7,3.5-2.7,7.1s1.1,5.6,2.2,7.7l2.2,4.2Z"/>
          <path d="M332.2,70.3h12.8c3,0,10,.3,14.3,4.5,2.4,2.3,4,6,4,10.5s-.2,8.5-5.1,13.2c-1.7,1.7-3.5,2.6-4.7,3.1,3,.8,6,2.5,8,4.5,3.3,3.4,4,7.6,4,10.9,0,6-2.4,11.2-5.6,14.4-5.2,5.1-13,5.6-20.3,5.6h-15.6l8.2-66.7ZM328.9,133h11.2c7.1,0,12.7-.6,16.7-4.8,2.4-2.5,4-6.4,4-11s-.9-6.2-3.4-8.6c-3.7-3.5-9.6-4.1-14.6-4.1h-10.4l-3.5,28.5ZM332.9,100.5h9.6c3.2,0,8.3,0,12.3-4,2.3-2.3,3.9-6,3.9-10.7s-2-7.3-3.5-8.6c-3-2.5-7.9-2.9-10.9-2.9h-8.2l-3.2,26.2Z"/>
          <path d="M439.6,78.6c5.9,6.1,8.2,13.4,8.2,21.5s-2.8,19.5-11.2,27.7c-8,7.8-16.9,10.3-26.7,10.3s-16.1-2-22.7-8.5c-3.7-3.6-9.1-10.8-9.1-22.2s3.7-19.3,11.4-27.1c8.8-8.9,19.1-10.9,27-10.9s18.1,4.1,23.1,9.2ZM433.3,124.9c6.6-6.6,10-16.2,10-24.6s-3.3-14.9-7.6-19.2c-4.4-4.4-11.1-7.7-19.6-7.7s-18.4,4.6-23.2,9.3c-7,6.9-10.2,16-10.2,24.3s3.2,14.7,7.3,19.1c5.5,5.8,12.1,8,19.3,8,10.8,0,18.8-4.1,24-9.2Z"/>
          <path d="M462.3,137h-4.2l8.2-66.7h12.3c6.4,0,16.8.8,24.3,9.3,3.8,4.3,6.9,11,6.9,20.8s-2.1,19.3-10.4,27.2c-7.6,7.2-17.4,9.4-28.1,9.4h-9ZM463,133h8.7c13.1,0,19.9-4.3,24.3-8.7,7.6-7.5,9.3-17.5,9.3-24.4s-3.4-14.5-6.5-17.8c-6.6-7-15.4-7.8-20.9-7.8h-7.7l-7.2,58.7Z"/>
          <path d="M537.9,108.5l-17.2-38.2h4.8l15.1,33.7,23.7-33.7h5.2l-27.2,38.2-3.5,28.5h-4.4l3.5-28.5Z"/>
          <path d="M655.3,83.9c-.7-.9-4-5-8.9-7.6-5.2-2.7-10.9-2.9-12.4-2.9-7.8,0-16.8,2.9-23.7,9.8-6.6,6.6-10,15.8-10,24s3,14.4,7.7,19.2c4.7,4.8,11.6,7.7,19,7.7s9-1,12.9-2.8c4.2-1.9,7.6-4.4,10.5-7.3l-.7,5.8c-2.7,2.3-6.2,4.6-9.6,6-1.9.8-6.4,2.3-13.2,2.3s-16-2.5-22.2-8.7-9.2-12.6-9.2-22.4,3.3-18.9,11.8-27c9.1-8.7,19.4-10.6,26.8-10.6s12.2,2.1,13.6,2.7c2.9,1.4,5.9,3.5,8.3,6l-.7,5.8Z"/>
          <path d="M700.6,115.1h-28.4l-11.6,21.9h-5l36.5-68.7,19.3,68.7h-4.6l-6.2-21.9ZM699.5,111.1l-8.6-31.6-16.6,31.6h25.2Z"/>
          <path d="M749.8,137l-17.7-31.5h-2l-3.9,31.5h-4.4l8.2-66.7h10.4c7.3,0,11.7,2.3,14.1,4.6,3.5,3.4,4.1,7.8,4.1,11.1,0,7-2.6,11.4-5.3,14-4.6,4.4-11.7,5.5-16.4,5.5l17.9,31.5h-5ZM730.6,101.5h6.4c7.5,0,11.2-2.3,13-4,2.3-2.2,4-6.2,4-10.9s-.6-6.3-3.6-9c-3.4-3.1-7.9-3.3-11-3.3h-5.5l-3.3,27.2Z"/>
          <path d="M808.5,74.3h-27.6l-3,24.2h27l-.5,4h-27l-3.7,30.5h27.6l-.5,4h-32l8.2-66.7h32l-.5,4Z"/>
          <path d="M17.8,212.3l-3.9,31.7h-4.4l8.2-66.7h12.9c3.2,0,9.3.4,13.5,4.7,2,2,4.1,5.5,4.1,11.2s-2,10.5-4.9,13.5c-2.6,2.7-7.5,5.6-16.9,5.6h-8.6ZM18.3,208.3h8.8c3.8,0,8.7-.5,12.3-3.9,2.1-2,4-5.4,4-11s-.4-5.5-2.9-8.2c-3.6-3.9-8-3.9-11.8-3.9h-7.1l-3.3,27Z"/>
          <path d="M82.3,244l-17.7-31.5h-2l-3.9,31.5h-4.4l8.2-66.7h10.4c7.3,0,11.7,2.3,14.1,4.6,3.5,3.4,4.1,7.8,4.1,11.1,0,7-2.6,11.4-5.3,14-4.6,4.4-11.7,5.5-16.4,5.5l17.9,31.5h-5ZM63.1,208.5h6.4c7.5,0,11.2-2.3,13-4,2.3-2.2,4-6.2,4-10.9s-.6-6.3-3.6-9c-3.4-3.1-7.9-3.3-11-3.3h-5.5l-3.3,27.2Z"/>
          <path d="M163.3,185.6c5.9,6.1,8.2,13.4,8.2,21.5s-2.8,19.5-11.2,27.7c-8,7.8-16.9,10.3-26.7,10.3s-16.1-2-22.7-8.5c-3.7-3.6-9.1-10.8-9.1-22.2s3.7-19.3,11.4-27.1c8.8-8.9,19.1-10.9,27-10.9s18.1,4.1,23.1,9.2ZM157,231.9c6.6-6.6,10-16.2,10-24.6s-3.3-14.9-7.6-19.2c-4.4-4.4-11.1-7.7-19.6-7.7s-18.4,4.6-23.2,9.3c-7,6.9-10.2,16-10.2,24.3s3.2,14.7,7.3,19.1c5.5,5.8,12.1,8,19.3,8,10.8,0,18.8-4.1,24-9.2Z"/>
          <path d="M186,244h-4.2l8.2-66.7h12.3c6.4,0,16.8.8,24.3,9.3,3.8,4.3,6.9,11,6.9,20.8s-2.1,19.3-10.4,27.2c-7.6,7.2-17.4,9.4-28.1,9.4h-9ZM186.7,240h8.7c13.1,0,19.9-4.3,24.3-8.7,7.6-7.5,9.3-17.5,9.3-24.4s-3.4-14.5-6.5-17.8c-6.6-7-15.4-7.8-20.9-7.8h-7.7l-7.2,58.7Z"/>
          <path d="M256.3,177.3l-5.1,41.7c-.7,5.7-1.8,12.6,3.5,17.8,3.8,3.7,8.6,4.3,12.4,4.3s10.1-.8,14.5-5.2c4.6-4.6,5.4-10.6,6.2-16.9l5.1-41.7h4.4l-5.1,41.7c-.7,6-1.5,13.7-7.8,19.9-5.5,5.4-11.8,6.2-17.4,6.2s-11.1-.7-15.9-5.5c-5.3-5.4-5.3-12.5-4.3-20.6l5.1-41.7h4.4Z"/>
          <path d="M367.4,190.9c-.7-.9-4-5-8.9-7.6-5.2-2.7-10.9-2.9-12.4-2.9-7.8,0-16.8,2.9-23.7,9.8-6.6,6.6-10,15.8-10,24s3,14.4,7.7,19.2c4.7,4.8,11.6,7.7,19,7.7s9-1,12.9-2.8c4.2-1.9,7.6-4.4,10.5-7.3l-.7,5.8c-2.7,2.3-6.2,4.6-9.6,6-1.9.8-6.4,2.3-13.2,2.3s-16-2.5-22.2-8.7-9.2-12.6-9.2-22.4,3.3-18.9,11.8-27c9.1-8.7,19.4-10.6,26.8-10.6s12.2,2.1,13.6,2.7c2.9,1.4,5.9,3.5,8.3,6l-.7,5.8Z"/>
          <path d="M397.1,181.3l-7.7,62.7h-4.4l7.7-62.7h-17.3l.5-4h39l-.5,4h-17.3Z"/>
          <path d="M454.3,188.6c-3-8-10.4-8.2-11.9-8.2-4.8,0-8.1,1.8-10.3,4-3.2,3.2-3.9,6.8-3.9,9.4s1,5.1,2.8,7c2.2,2.4,5,3.5,8,5.2l3.3,1.8c4.1,2.3,7.6,3.8,10.2,6.5,3,3,4,6.2,4,10.1,0,5.8-2.2,11.1-6.2,14.9-5.2,5-11.1,5.8-16.6,5.8s-9.5-1-13.4-4.9c-2.5-2.5-4.3-6.1-5.2-9.4l4-1.8c.2.7,1.3,4.9,4.4,8,3.1,3.1,6.9,4.1,10.4,4.1s9.9-1.3,13.2-4.4c2-1.9,4.6-5.5,4.6-11.6s-.8-5.7-3.2-8.1-6.2-4.1-9-5.6l-4.6-2.5c-2.2-1.2-5.6-3.5-7.5-5.5-2.4-2.5-3.8-5.3-3.8-9.4,0-5.9,2.8-9.9,5.1-12.2,3.1-3,7.5-5.4,13.9-5.4s12.5,2.9,15.2,9.5l-3.5,2.7Z"/>
        </g>
        <g>
          <path d="M3.4,36.7l14-13.5c1.2-1.2,3.5-3.5,4.7-5.1,1.4-2,2-3.9,2-5.7s-.9-3.5-1.7-4.3c-1-1-2.6-1.9-5.2-1.9s-4.3.9-5.5,2.1c-1.3,1.3-2.2,3.4-2.3,5.5h-2.1c.2-2.5,1.3-5.1,2.9-6.7,1.5-1.6,4-2.8,7.2-2.8s5.1.9,6.6,2.3c1.5,1.3,2.4,3.4,2.4,5.7s-.5,4.2-2.3,6.7c-.2.3-1.4,2-5.2,5.7l-10.6,10.3h15.3l-.2,1.9H3.4Z"/>
          <path d="M49.9,6.9c2.8,2.9,3.6,7.7,3.6,11s-1.2,11.6-5.8,16.1c-2.1,2.1-4.6,3.3-8,3.3s-4.5-.8-6-2.4c-2.4-2.4-3.8-6.5-3.8-11.1s1.7-11.8,5.6-15.8c2.4-2.5,5.2-3.6,8.1-3.6s4.8,1.1,6.3,2.6ZM46.1,32.8c4-3.9,5.3-10.9,5.3-15.1s-1-7.2-3-9.4c-1.3-1.4-2.9-2.1-4.9-2.1s-4.6,1.1-6.1,2.7c-3.4,3.5-5.2,9.4-5.2,14.7s1.2,7.9,3.1,9.8,2.6,1.9,4.6,1.9,4.5-.9,6.2-2.5Z"/>
          <path d="M56,36.7l14-13.5c1.2-1.2,3.5-3.5,4.7-5.1,1.4-2,2-3.9,2-5.7s-.9-3.5-1.7-4.3c-1-1-2.6-1.9-5.2-1.9s-4.3.9-5.5,2.1c-1.3,1.3-2.2,3.4-2.3,5.5h-2.1c.2-2.5,1.3-5.1,2.9-6.7,1.5-1.6,4-2.8,7.2-2.8s5.1.9,6.6,2.3c1.5,1.3,2.4,3.4,2.4,5.7s-.5,4.2-2.3,6.7c-.2.3-1.4,2-5.2,5.7l-10.6,10.3h15.3l-.2,1.9h-19.7Z"/>
          <path d="M100.3,28.7h4.5l-.2,1.9h-4.5l-.8,6.1h-2.1l.8-6.1h-17.2L103.4,3.7l-3.1,25.1ZM98.2,28.7l2.3-18.7-15.7,18.7h13.4Z"/>
          <path d="M137.9,6.6h-10.8l-1.4,11.6h10.6l-.2,1.9h-10.6l-2,16.6h-2.1l3.9-32h13l-.2,1.9Z"/>
          <path d="M146.8,4.7l-3.9,32h-2.1l3.9-32h2.1Z"/>
          <path d="M151.5,36.7l4-32.4,23.4,28.2,3.4-27.9h2.1l-4,32.8-23.4-28.2-3.4,27.4h-2.1Z"/>
          <path d="M207,26.2h-13.6l-5.6,10.5h-2.4L203,3.8l9.3,33h-2.2l-3-10.5ZM206.5,24.3l-4.1-15.2-8,15.2h12.1Z"/>
          <path d="M223.3,4.7l-3.7,30.1h8.9l-.2,1.9h-11l3.9-32h2.1Z"/>
          <path d="M239.3,4.7l-3.9,32h-2.1l3.9-32h2.1Z"/>
          <path d="M261.9,10.1c-1.4-3.8-5-3.9-5.7-3.9-2.3,0-3.9.9-4.9,1.9-1.5,1.5-1.9,3.3-1.9,4.5s.5,2.4,1.3,3.4c1.1,1.2,2.4,1.7,3.8,2.5l1.6.9c2,1.1,3.6,1.8,4.9,3.1,1.4,1.4,1.9,3,1.9,4.8,0,2.8-1.1,5.3-3,7.2-2.5,2.4-5.3,2.8-8,2.8s-4.6-.5-6.4-2.4-2.1-2.9-2.5-4.5l1.9-.9c0,.3.6,2.4,2.1,3.8s3.3,2,5,2,4.8-.6,6.3-2.1c1-.9,2.2-2.6,2.2-5.6s-.4-2.7-1.5-3.9-3-2-4.3-2.7l-2.2-1.2c-1.1-.6-2.7-1.7-3.6-2.6-1.2-1.2-1.8-2.5-1.8-4.5,0-2.8,1.3-4.8,2.4-5.9,1.5-1.4,3.6-2.6,6.7-2.6s6,1.4,7.3,4.6l-1.7,1.3Z"/>
          <path d="M279.1,6.6l-3.7,30.1h-2.1l3.7-30.1h-8.3l.2-1.9h18.7l-.2,1.9h-8.3Z"/>
        </g>
      </g>
    </g>
  </g>
</svg>