<?xml version="1.0" encoding="UTF-8"?>
<svg xmlns="http://www.w3.org/2000/svg" version="1.1" viewBox="0 0 582.5 279.9">
  <!-- Generator: Adobe Illustrator 28.6.0, SVG Export Plug-In . SVG Version: 1.2.0 Build 709)  -->
  <g>
    <g id="_レイヤー_1" data-name="レイヤー_1">
      <g>
        <g>
          <path d="M42.7,6l-8.2,66.7h-4.4L38.3,6h4.4Z"/>
          <path d="M52.5,72.7L60.8,5.3l48.8,58.8,7.1-58.1h4.4l-8.4,68.4L63.9,15.6l-7,57.1h-4.4Z"/>
          <path d="M176,10l-7.7,62.7h-4.4l7.7-62.7h-17.3l.5-4h39l-.5,4h-17.3Z"/>
          <path d="M205.1,34.3h40.4l3.5-28.3h4.4l-8.2,66.7h-4.4l4.2-34.4h-40.4l-4.2,34.4h-4.4l8.2-66.7h4.4l-3.5,28.3Z"/>
          <path d="M302.9,10h-27.6l-3,24.2h27l-.5,4h-27l-3.7,30.5h27.6l-.5,4h-32l8.2-66.7h32l-.5,4Z"/>
        </g>
        <g>
          <path d="M11.2,119.7h63.6v3h-22l43.6,122.6h.4l28.1-78-16.1-44.6h-17.8v-3h63.4v3h-23l43.6,122.6h.4l44.4-122.6h-22.6v-3h45.2v3h-19l-54.8,150.8h-5.3l-36.4-101.5h-.4l-36.8,101.5h-5.7L30.2,122.6H11.2v-3Z"/>
          <path d="M211.8,224.9c0-6.9,1.5-13.3,4.5-19.2,3-5.9,6.9-11,11.6-15.3,4.7-4.3,10-7.6,15.9-10,5.8-2.4,11.6-3.6,17.2-3.6s11.4,1.2,17.2,3.6c5.8,2.4,11.1,5.7,15.9,10,4.7,4.3,8.6,9.4,11.6,15.3,3,5.9,4.5,12.3,4.5,19.2s-1.4,12.9-4.2,18.7c-2.8,5.9-6.5,11-11.1,15.3-4.6,4.4-9.8,7.8-15.8,10.4-5.9,2.5-12,3.8-18.2,3.8s-12.3-1.3-18.2-3.8-11.2-6-15.8-10.4c-4.6-4.4-8.3-9.5-11.1-15.3-2.8-5.8-4.2-12.1-4.2-18.7ZM233,224.9c0,10,.8,18,2.3,23.9,1.5,5.9,3.6,10.5,6.1,13.6,2.5,3.2,5.5,5.3,8.9,6.2,3.4,1,7,1.5,10.8,1.5s7.4-.5,10.8-1.5c3.4-1,6.3-3.1,8.9-6.2,2.5-3.2,4.6-7.7,6.1-13.6,1.5-5.9,2.3-13.9,2.3-23.9s-.6-15.5-1.7-21.2c-1.1-5.7-2.9-10.4-5.2-14s-5.3-6.2-8.8-7.7c-3.5-1.5-7.7-2.3-12.5-2.3s-9,.8-12.5,2.3c-3.5,1.6-6.4,4.1-8.8,7.7s-4.1,8.2-5.2,14c-1.1,5.7-1.7,12.8-1.7,21.2Z"/>
          <path d="M317.1,267.2h16.3v-84.8h-16.3v-3h34v21.4h.4c.6-2.1,1.5-4.5,2.7-7.2,1.3-2.7,3-5.2,5.3-7.7,2.3-2.5,5-4.5,8.1-6.2s7-2.5,11.5-2.5,6.1.5,8.5,1.6c2.4,1.1,4.4,2.4,5.9,4,1.5,1.6,2.7,3.5,3.4,5.6.7,2.1,1.1,4.2,1.1,6.3,0,4.7-1.1,7.8-3.2,9.3-2.1,1.6-4.6,2.3-7.4,2.3-6.2,0-9.3-2-9.3-5.9s.1-2.3.4-3.1c.3-.8.6-1.5,1-2.3.4-.8.7-1.7,1-2.6.3-1,.4-2.4.4-4.2,0-4.5-2.5-6.8-7.4-6.8s-4.7.8-7.2,2.5c-2.5,1.7-4.9,4.2-7.1,7.4-2.2,3.2-4,7.2-5.5,11.7-1.5,4.6-2.2,9.8-2.2,15.8v48.4h18.4v3h-52.9v-3Z"/>
          <path d="M407.6,267.2h16.3V120.7h-16.3v-3h34.5v149.5h16.3v3h-50.7v-3Z"/>
          <path d="M524.5,117.8h34.5v149.5h16.3v3h-34v-18.4h-.4c-.6,1.7-1.4,3.7-2.5,6.1-1.1,2.4-2.8,4.7-5,7-2.2,2.3-4.9,4.2-8.2,5.8-3.3,1.6-7.4,2.4-12.2,2.4s-12.1-1.3-17.7-4c-5.6-2.7-10.5-6.3-14.7-10.8-4.2-4.5-7.6-9.7-10-15.5-2.5-5.8-3.7-12-3.7-18.5s1.2-12.4,3.6-18.2c2.4-5.8,5.6-10.8,9.7-15.1,4.1-4.3,8.8-7.8,14.2-10.4,5.4-2.6,11.1-3.9,17.1-3.9s14,1.9,18.8,5.7c4.8,3.8,8.2,8.5,10.1,14h.4v-75.7h-16.3v-3ZM487.9,221.8c0,7.3.2,14,.6,20,.4,6,1.5,11.1,3.2,15.3s4.2,7.5,7.6,9.7c3.4,2.3,8,3.4,13.7,3.4s10.7-1.3,14.3-3.8c3.6-2.5,6.4-5.8,8.4-9.8,2-4,3.3-8.5,4-13.4.7-4.9,1.1-9.7,1.1-14.4s-.1-10.3-.3-14.3-.6-7.6-1.2-10.7c-.6-3.1-1.3-5.8-2.3-8-1-2.3-2.2-4.4-3.6-6.3-2.1-2.8-4.9-5.1-8.2-7-3.4-1.8-7.7-2.7-12.9-2.7s-9,1-12.2,3c-3.2,2-5.6,4.8-7.4,8.5-1.8,3.7-3,8.1-3.7,13.2-.7,5.1-1.1,11-1.1,17.4Z"/>
        </g>
      </g>
    </g>
  </g>
</svg>