<?xml version="1.0" encoding="UTF-8"?>
<svg xmlns="http://www.w3.org/2000/svg" version="1.1" viewBox="0 0 333.8 111.8">
  <defs>
    <style>
      .cls-1 {
        fill: #f58f70;
      }
    </style>
  </defs>
  <!-- Generator: Adobe Illustrator 28.6.0, SVG Export Plug-In . SVG Version: 1.2.0 Build 709)  -->
  <g>
    <g id="_レイヤー_1" data-name="レイヤー_1">
      <g>
        <path class="cls-1" d="M32.4,23.7c-2.2,0-4.2.6-6,1.8-1.8,1.2-3.4,2.7-4.8,4.3-1.4,1.6-2.6,3.3-3.5,4.9-.9,1.6-1.6,2.9-2.1,3.7h-1.1l5.6-15.8h48.5l-5.6,15.8h-1.1c.3-1.1.5-2.3.6-3.5.1-1.3.2-2.6.2-3.9,0-2-.6-3.8-1.6-5.2-1.1-1.4-3-2.1-5.7-2.1h-8l-19.7,55h9.2l-.3,1.1H11.8l.3-1.1h8.4l19.7-55h-7.9Z"/>
        <path class="cls-1" d="M66,46.5l.3-1.1h12.8l-9.5,27.3c-.3.8-.5,1.6-.8,2.5-.3.8-.4,1.6-.4,2.4s.2,1.2.6,1.6c.4.5.9.7,1.7.7s1.7-.3,2.5-.9c.8-.6,1.6-1.3,2.3-2,.7-.8,1.3-1.6,1.8-2.4s.8-1.4,1-1.9l1,.4c-.2.4-.6,1.1-1,2-.5.9-1.1,1.8-1.9,2.7-.8.9-1.8,1.6-3,2.3-1.2.6-2.6,1-4.2,1s-3.2-.4-4.2-1.1c-1-.7-1.6-1.9-1.6-3.7s.2-1.9.5-3c.3-1.1.6-2.1,1-3l8.3-23.6h-7.2ZM79.2,23.7c.7-.7,1.6-1.1,2.7-1.1s2,.4,2.7,1.1c.7.7,1.1,1.6,1.1,2.7s-.4,2-1.1,2.7-1.6,1.1-2.7,1.1-2-.4-2.7-1.1c-.7-.7-1.1-1.6-1.1-2.7s.4-2,1.1-2.7Z"/>
        <path class="cls-1" d="M88.4,46.5l.3-1.1h12.7l-3.1,9.2h.2c.6-.9,1.5-1.9,2.5-3.1,1-1.1,2.1-2.2,3.3-3.1,1.2-1,2.5-1.8,3.9-2.5,1.4-.7,2.8-1,4.2-1,2,0,3.6.6,4.7,1.8,1.1,1.2,1.6,2.7,1.6,4.5s-.1,2-.4,3.1h.2c.5-.8,1.3-1.7,2.2-2.8.9-1.1,1.9-2.1,3.1-3.1,1.2-1,2.4-1.8,3.7-2.5,1.3-.7,2.7-1,4-1,2.3,0,4,.6,5.3,1.8,1.3,1.2,2,2.7,2,4.5s-.1,1.8-.4,2.7c-.3.9-.7,1.9-1.1,3.2l-5.2,14.9c-.3.9-.6,1.9-.9,2.9-.3,1-.4,1.9-.4,2.7s.1,1,.4,1.5c.3.5.8.8,1.7.8s1.8-.3,2.7-.8c.8-.5,1.5-1.2,2.2-1.9.6-.8,1.2-1.5,1.7-2.4.5-.8.9-1.5,1.2-2.1l.9.4c-.3.5-.6,1.2-1.1,2.1-.5.9-1.1,1.8-1.9,2.6-.8.9-1.7,1.6-2.9,2.2s-2.5.9-4,.9-3.2-.4-4.3-1.1c-1.2-.7-1.8-2-1.8-3.7s0-1.4.2-2c.1-.6.4-1.5.8-2.6l6.8-19.2c.4-1.3.6-2.4.6-3.2s-.2-1.6-.6-2.2c-.4-.5-1.3-.8-2.5-.8s-2.4.5-3.8,1.4c-1.4.9-2.8,2.1-4.3,3.7-1.4,1.6-2.8,3.4-4.1,5.4-1.3,2.1-2.4,4.2-3.2,6.6l-6,16.8h-5.6l9.4-26c.8-2.3,1.1-3.8,1.1-4.7s-.2-1.7-.6-2.3c-.4-.6-1-.9-2-.9s-2.2.4-3.6,1.1c-1.4.7-2.9,1.8-4.4,3.2-1.5,1.4-3,3.2-4.4,5.3-1.4,2.1-2.6,4.6-3.7,7.4l-6,16.8h-5.5l11.6-33.4h-7.3Z"/>
        <path class="cls-1" d="M171,74c-.6,1-1.5,2-2.7,3-1.1,1-2.5,1.9-4.1,2.7-1.6.8-3.6,1.2-5.9,1.2s-4.2-.4-5.8-1.1c-1.6-.7-2.9-1.7-3.9-2.9-1-1.2-1.7-2.5-2.2-3.9-.5-1.4-.7-2.8-.7-4.1,0-2.7.7-5.5,2-8.3,1.3-2.9,3-5.5,5.1-7.9,2.1-2.4,4.5-4.4,7.2-5.9,2.7-1.6,5.4-2.3,8.2-2.3s2.1.1,3.2.4c1.1.2,2,.6,2.9,1.1.9.5,1.6,1.1,2.1,1.8.5.8.8,1.7.8,2.7s-.4,2.7-1.2,3.8c-.8,1.1-1.8,2-3,2.8-1.2.8-2.6,1.4-4.1,2-1.5.5-2.9,1-4.3,1.2-1.4.3-2.7.5-3.8.6-1.2.1-2,.2-2.5.2-.9,0-1.8,0-2.7,0-.9,0-1.6-.1-2.3-.2-.6,1.7-1.1,3.4-1.5,5.1-.4,1.7-.6,3.5-.6,5.3,0,2.9.7,5.1,2.3,6.5,1.5,1.4,3.4,2.1,5.7,2.1s3.2-.3,4.5-1c1.3-.7,2.5-1.5,3.5-2.4,1-.9,1.8-1.8,2.5-2.8.7-.9,1.2-1.7,1.6-2.2l1,.6c-.3.4-.8,1.1-1.4,2ZM171.4,46.5c-.6-.8-1.7-1.1-3.2-1.1s-3.3.5-4.8,1.4-2.9,2.2-4.1,3.6c-1.2,1.4-2.3,2.9-3.2,4.6-.9,1.6-1.6,3.1-2.1,4.5,1.2.2,2.6.3,4.1.3s3.8-.3,5.5-.9c1.7-.6,3.2-1.4,4.5-2.3,1.3-1,2.4-2.1,3.1-3.4.8-1.3,1.2-2.6,1.2-4s-.3-2-1-2.7Z"/>
      </g>
      <path class="cls-1" d="M189.5,106.9h4.9L266.1,10.1l.5-2.1h-63.3l-5.6,24.3h1.2c1.5-3.7,3.1-6.8,4.7-9.2,1.9-2.9,3.8-4.7,5.8-5.5,2.3-.9,4.8-1.4,7.3-1.5,2.4,0,5.7-.1,9.8-.1h31.4l-68.4,90.9Z"/>
      <path class="cls-1" d="M256.6,80.9h63.1l2.1-8.8h-58.8l2.9-3.1c2.8-2.9,6.5-5.5,10.9-7.5,4.3-2,8.8-3.7,13.3-5.1,5.3-1.6,10.1-3.1,14.5-4.5,4.3-1.4,8-3,11.3-4.9,4.2-2.4,7.5-5.3,9.9-8.6,2.3-3.3,3.5-7.4,3.5-12.2s-2.2-11.3-6.8-14.9c-4.6-3.7-10.8-5.6-18.4-5.6s-9.3.7-13.5,2.1c-4.1,1.4-7.7,3.3-10.6,5.6-3,2.3-5.3,4.9-6.9,7.5-1.6,2.6-2.3,5.1-2.3,7.6s.4,2.4,1.1,3.3c.8,1,2.7,1.2,4.1,1.2,3.1,0,5.3-.8,6.6-2.5,1.4-1.8,2.1-4.6,2.1-8.5s0-2.7-.1-3.7c0-1.1-.1-1.9-.1-2.5v-.6l.3-.5c1.3-1.8,3.4-3.5,6.4-5,3-1.5,6.6-2.3,10.9-2.3s8.4,1.6,11.3,4.7c2.9,3.1,4.3,7.2,4.3,12.4s-.8,8.1-2.4,11.4c-1.6,3.3-4.2,6.3-7.9,9-2.3,1.8-5.3,3.5-8.6,5.2-3.3,1.7-7.3,3.4-11.7,5.1-3.4,1.3-6.5,2.7-9.4,4.1-2.9,1.4-5.5,2.8-7.8,4.3-2.6,1.6-4.9,3.4-6.8,5.1-1.8,1.6-3.4,3.3-4.7,5l-1.7,7.1Z"/>
    </g>
  </g>
</svg>