<?xml version="1.0" encoding="UTF-8"?>
<svg id="_レイヤー_1" data-name="レイヤー_1" xmlns="http://www.w3.org/2000/svg" viewBox="0 0 465.11 74.81">
  <path d="M17.06,4.46l.29-1.01h17.28c2.78,0,5.24.35,7.38,1.04,2.14.7,3.94,1.64,5.4,2.84,1.46,1.2,2.58,2.59,3.35,4.18.77,1.58,1.15,3.29,1.15,5.11,0,2.74-.74,5.12-2.23,7.16-1.49,2.04-3.37,3.76-5.65,5.15-2.28,1.39-4.8,2.44-7.56,3.13-2.76.7-5.41,1.04-7.96,1.04-1.1,0-2.28-.06-3.53-.18-1.25-.12-2.3-.25-3.17-.4l-7.63,21.17h8.28l-.36,1.01H0l.29-1.01h7.42L25.34,4.46h-8.28ZM24.77,31.9c1.06.14,2.14.22,3.24.22,2.54,0,4.88-.51,7.02-1.55,2.14-1.03,3.96-2.4,5.47-4.1,1.51-1.7,2.69-3.65,3.53-5.83.84-2.18,1.26-4.43,1.26-6.73,0-3.17-.95-5.53-2.84-7.09-1.9-1.56-4.5-2.34-7.81-2.34h-2.81l-9.65,27.07c.67.1,1.54.22,2.59.36Z"/>
  <path d="M60.98,28.73c.38-1.3.77-2.59,1.15-3.89h-6.26l.29-1.01h11.09c-.24,1.01-.59,2.28-1.04,3.82-.46,1.54-.95,3.02-1.48,4.46l.14.14c.48-.72,1.08-1.58,1.8-2.59.72-1.01,1.54-1.98,2.45-2.92.91-.94,1.92-1.73,3.02-2.38,1.1-.65,2.28-.97,3.53-.97,1.78,0,3.13.5,4.07,1.51.94,1.01,1.38,2.09,1.33,3.24,0,.77-.13,1.4-.4,1.91-.26.5-.6.89-1.01,1.15-.41.26-.83.44-1.26.54-.43.1-.84.14-1.22.14-.67,0-1.22-.17-1.66-.5-.43-.33-.65-.84-.65-1.51,0-.53.11-.92.32-1.19.22-.26.44-.51.68-.76.24-.24.47-.5.68-.79.22-.29.32-.67.32-1.15s-.19-.86-.58-1.15c-.38-.29-.86-.43-1.44-.43-.91,0-1.97.47-3.17,1.4-1.2.94-2.39,2.14-3.56,3.6-1.18,1.46-2.29,3.13-3.35,5-1.06,1.87-1.92,3.74-2.59,5.62l-5.18,14.69h-5.04l7.78-22.18c.43-1.25.84-2.52,1.22-3.82Z"/>
  <path d="M82.73,35.32c1.2-2.52,2.72-4.69,4.57-6.52,1.85-1.82,3.9-3.26,6.16-4.32,2.26-1.05,4.42-1.58,6.48-1.58,1.87,0,3.5.38,4.9,1.15,1.39.77,2.54,1.75,3.46,2.95.91,1.2,1.58,2.52,2.02,3.96.43,1.44.65,2.83.65,4.18,0,2.78-.6,5.41-1.8,7.88-1.2,2.47-2.71,4.64-4.54,6.52-1.82,1.87-3.85,3.35-6.08,4.43s-4.36,1.62-6.37,1.62c-1.73,0-3.28-.34-4.64-1.01-1.37-.67-2.54-1.56-3.53-2.66-.98-1.1-1.74-2.39-2.27-3.85-.53-1.46-.79-3.01-.79-4.64,0-2.88.6-5.58,1.8-8.1ZM87.44,52.88c1.18,1.18,2.68,1.76,4.5,1.76,1.49,0,2.88-.43,4.18-1.3s2.47-2,3.53-3.42c1.06-1.42,1.99-2.99,2.81-4.72.82-1.73,1.5-3.46,2.05-5.18.55-1.73.97-3.36,1.26-4.9.29-1.54.43-2.78.43-3.74,0-2.3-.49-4.13-1.48-5.47-.98-1.34-2.7-2.02-5.15-2.02-1.39,0-2.71.41-3.96,1.22-1.25.82-2.39,1.88-3.42,3.2-1.03,1.32-1.96,2.82-2.77,4.5-.82,1.68-1.5,3.4-2.05,5.15-.55,1.75-.97,3.46-1.26,5.11s-.43,3.11-.43,4.36c0,2.45.59,4.26,1.76,5.44Z"/>
  <path d="M140.58,49.25c-.31,1.15-.47,2.18-.47,3.1,0,1.25.6,1.87,1.8,1.87.96,0,1.82-.28,2.59-.83.77-.55,1.43-1.18,1.98-1.87.55-.7,1.01-1.39,1.37-2.09.36-.7.61-1.19.76-1.48l.94.5c-.24.53-.6,1.2-1.08,2.02-.48.82-1.1,1.6-1.87,2.34-.77.75-1.66,1.39-2.66,1.94-1.01.55-2.19.83-3.53.83-3.17,0-4.75-1.44-4.75-4.32,0-.33.07-.92.22-1.76s.33-1.6.58-2.27h-.14c-.67.82-1.44,1.72-2.3,2.7-.86.98-1.84,1.9-2.92,2.74s-2.27,1.54-3.56,2.09c-1.3.55-2.74.83-4.32.83-1.01,0-1.98-.18-2.92-.54-.94-.36-1.76-.91-2.48-1.66-.72-.74-1.28-1.69-1.69-2.84-.41-1.15-.61-2.52-.61-4.1,0-1.92.38-3.84,1.15-5.76.77-1.92,1.76-3.75,2.99-5.51,1.22-1.75,2.64-3.37,4.25-4.86,1.61-1.49,3.24-2.78,4.9-3.89,1.66-1.1,3.29-1.97,4.9-2.59,1.61-.62,3.04-.94,4.28-.94,1.44,0,2.66.41,3.67,1.22s1.51,1.9,1.51,3.24h.14l9.36-26.35h-6.34l.29-1.01h11.45l-16.34,45.65c-.43,1.25-.8,2.45-1.12,3.6ZM142.23,29.99c.17-.65.25-1.21.25-1.69,0-.43-.06-.9-.18-1.4-.12-.5-.34-.97-.65-1.4-.31-.43-.73-.8-1.26-1.12-.53-.31-1.22-.47-2.09-.47-1.58,0-3.13.44-4.64,1.33-1.51.89-2.93,2.05-4.25,3.49-1.32,1.44-2.53,3.08-3.64,4.93-1.1,1.85-2.05,3.72-2.84,5.62-.79,1.9-1.4,3.73-1.84,5.51-.43,1.78-.65,3.34-.65,4.68,0,1.54.3,2.78.9,3.74.6.96,1.6,1.44,2.99,1.44s2.81-.43,4.25-1.3c1.44-.86,2.76-1.9,3.96-3.1,1.2-1.2,2.23-2.4,3.1-3.6.86-1.2,1.42-2.13,1.66-2.81l3.82-10.58c.58-1.54.95-2.63,1.12-3.28Z"/>
  <path d="M169.12,23.83l-8.28,23.76c-.38,1.01-.67,1.91-.86,2.7-.19.79-.29,1.38-.29,1.76,0,.67.18,1.27.54,1.8.36.53.97.79,1.84.79,1.3,0,2.7-.49,4.21-1.48,1.51-.98,2.99-2.24,4.43-3.78,1.44-1.54,2.76-3.25,3.96-5.15,1.2-1.9,2.13-3.78,2.81-5.65l5.11-14.76h5.04l-8.5,24.41c-.24.72-.48,1.45-.72,2.2-.24.75-.36,1.45-.36,2.12,0,.58.17,1.07.5,1.48.34.41.84.61,1.51.61.82,0,1.6-.26,2.34-.79.74-.53,1.42-1.14,2.02-1.84.6-.7,1.12-1.4,1.55-2.12.43-.72.74-1.3.94-1.73l.86.36c-.19.38-.49.97-.9,1.76-.41.79-.97,1.58-1.69,2.38-.72.79-1.61,1.48-2.66,2.05-1.06.58-2.3.86-3.74.86-1.58,0-2.84-.32-3.78-.97-.94-.65-1.4-1.74-1.4-3.28,0-.82.1-1.6.29-2.34.19-.74.48-1.6.86-2.56l-.14-.14c-.67.86-1.48,1.84-2.41,2.92s-1.94,2.09-3.02,3.02c-1.08.94-2.23,1.73-3.46,2.38-1.22.65-2.48.97-3.78.97-2.06,0-3.7-.48-4.9-1.44-1.2-.96-1.8-2.35-1.8-4.18,0-.72.17-1.57.5-2.56.33-.98.62-1.86.86-2.63l7.06-19.94h-6.41l.29-1.01h11.59Z"/>
  <path d="M214.3,50.44c-.79.94-1.7,1.79-2.74,2.56-1.03.77-2.22,1.39-3.56,1.87-1.34.48-2.86.72-4.54.72-1.78,0-3.36-.29-4.75-.86-1.39-.58-2.56-1.36-3.49-2.34-.94-.98-1.66-2.12-2.16-3.42s-.76-2.69-.76-4.18c0-2.45.58-4.96,1.73-7.52,1.15-2.57,2.69-4.92,4.61-7.06,1.92-2.14,4.12-3.89,6.59-5.26,2.47-1.37,5.03-2.05,7.67-2.05.82,0,1.62.1,2.41.29.79.19,1.5.5,2.12.94.62.43,1.14,1.02,1.55,1.76.41.75.61,1.67.61,2.77,0,1.58-.4,2.62-1.19,3.1-.79.48-1.62.72-2.48.72s-1.46-.18-1.8-.54c-.34-.36-.5-.78-.5-1.26,0-.58.1-1.04.29-1.4.19-.36.42-.68.68-.97.26-.29.49-.61.68-.97.19-.36.29-.83.29-1.4,0-.77-.28-1.3-.83-1.58-.55-.29-1.31-.43-2.27-.43-1.54,0-2.98.38-4.32,1.15-1.34.77-2.58,1.79-3.71,3.06-1.13,1.27-2.12,2.72-2.99,4.36-.86,1.63-1.61,3.31-2.23,5.04-.62,1.73-1.09,3.43-1.4,5.11-.31,1.68-.47,3.22-.47,4.61,0,2.06.59,3.82,1.76,5.26,1.18,1.44,2.99,2.16,5.44,2.16,1.34,0,2.58-.25,3.71-.76,1.13-.5,2.15-1.14,3.06-1.91.91-.77,1.7-1.59,2.38-2.48.67-.89,1.22-1.69,1.66-2.41l1.01.58c-.58.91-1.26,1.84-2.05,2.77Z"/>
  <path d="M238.53,16.78l-2.59,7.06h7.85l-.29,1.01h-7.85l-8.21,22.9c-.24.72-.48,1.46-.72,2.23-.24.77-.36,1.54-.36,2.3,0,.72.18,1.3.54,1.73.36.43.95.65,1.76.65.86,0,1.68-.26,2.45-.79.77-.53,1.46-1.14,2.09-1.84.62-.7,1.15-1.4,1.58-2.12.43-.72.74-1.3.94-1.73l.86.36c-.19.38-.5.97-.94,1.76-.43.79-1.01,1.58-1.73,2.38-.72.79-1.62,1.48-2.7,2.05s-2.36.86-3.85.86c-1.82,0-3.19-.44-4.1-1.33-.91-.89-1.37-1.96-1.37-3.2,0-.96.18-2.05.54-3.28.36-1.22.73-2.34,1.12-3.35l7.06-19.58h-6.48l.29-1.01h6.48l2.59-7.06h5.04Z"/>
  <path d="M270.28,4.46l.29-1.01h22.32l-.29,1.01h-7.56l-17.64,49.25h16.85c1.87,0,3.62-.54,5.26-1.62,1.63-1.08,3.08-2.35,4.36-3.82,1.27-1.46,2.35-2.93,3.24-4.39.89-1.46,1.55-2.56,1.98-3.28h1.01l-5.04,14.11h-41.83l.29-1.01h7.42l17.64-49.25h-8.28Z"/>
  <path d="M308.15,24.84l.29-1.01h11.45l-8.5,24.41c-.24.72-.48,1.45-.72,2.2-.24.75-.36,1.45-.36,2.12,0,.58.17,1.07.5,1.48.33.41.84.61,1.51.61.77,0,1.52-.26,2.27-.79.74-.53,1.43-1.14,2.05-1.84.62-.7,1.15-1.4,1.58-2.12.43-.72.74-1.3.94-1.73l.86.36c-.19.38-.49.97-.9,1.76-.41.79-.97,1.58-1.69,2.38-.72.79-1.61,1.48-2.66,2.05-1.06.58-2.3.86-3.74.86-1.58,0-2.84-.32-3.78-.97-.94-.65-1.4-1.74-1.4-3.28,0-.82.14-1.72.43-2.7.29-.98.58-1.88.86-2.7l7.42-21.1h-6.41ZM320,4.43c.65-.65,1.45-.97,2.41-.97s1.76.32,2.41.97.97,1.45.97,2.41-.32,1.76-.97,2.41c-.65.65-1.45.97-2.41.97s-1.76-.32-2.41-.97c-.65-.65-.97-1.45-.97-2.41s.32-1.76.97-2.41Z"/>
  <path d="M328.46,24.84l.29-1.01h11.38l-2.95,8.86h.14c4.66-6.19,9.05-9.29,13.18-9.29,2.02,0,3.61.54,4.79,1.62,1.18,1.08,1.76,2.41,1.76,4,0,.82-.13,1.62-.4,2.41-.26.79-.59,1.74-.97,2.84l-4.68,13.32c-.29.82-.55,1.62-.79,2.41-.24.79-.36,1.57-.36,2.34,0,.58.12,1.1.36,1.58.24.48.74.72,1.51.72.86,0,1.66-.24,2.38-.72.72-.48,1.38-1.06,1.98-1.73.6-.67,1.12-1.38,1.55-2.12.43-.74.77-1.38,1.01-1.91l.79.36c-.24.48-.58,1.12-1.01,1.91-.43.79-1,1.57-1.69,2.34-.7.77-1.55,1.43-2.56,1.98-1.01.55-2.21.83-3.6.83-1.54,0-2.83-.34-3.89-1.01-1.06-.67-1.58-1.78-1.58-3.31,0-.62.08-1.27.25-1.94.17-.67.37-1.39.61-2.16l6.05-17.21c.38-1.15.58-2.11.58-2.88,0-.62-.21-1.22-.61-1.8-.41-.58-1.14-.86-2.2-.86s-2.28.4-3.67,1.19c-1.39.79-2.78,1.87-4.18,3.24-1.39,1.37-2.7,2.98-3.92,4.82-1.22,1.85-2.22,3.85-2.99,6.01l-5.4,15.05h-4.97l10.37-29.88h-6.55Z"/>
  <path d="M386.27,49.5c-.58.89-1.37,1.78-2.38,2.66-1.01.89-2.24,1.68-3.71,2.38-1.46.7-3.23,1.04-5.29,1.04s-3.8-.34-5.22-1.01c-1.42-.67-2.57-1.54-3.46-2.59-.89-1.05-1.54-2.22-1.94-3.49-.41-1.27-.61-2.51-.61-3.71,0-2.4.59-4.88,1.76-7.45,1.18-2.57,2.71-4.92,4.61-7.06,1.9-2.13,4.04-3.9,6.44-5.29,2.4-1.39,4.85-2.09,7.34-2.09.96,0,1.92.11,2.88.32.96.22,1.82.54,2.59.97.77.43,1.39.98,1.87,1.66.48.67.72,1.49.72,2.45,0,1.3-.35,2.44-1.04,3.42-.7.98-1.6,1.82-2.7,2.52-1.1.7-2.32,1.29-3.63,1.76-1.32.48-2.61.85-3.85,1.12s-2.39.46-3.42.58c-1.03.12-1.79.18-2.27.18-.82,0-1.61-.02-2.38-.07-.77-.05-1.44-.12-2.02-.22-.53,1.54-.97,3.06-1.33,4.57-.36,1.51-.54,3.11-.54,4.79,0,2.59.67,4.53,2.02,5.8,1.34,1.27,3.05,1.91,5.11,1.91,1.54,0,2.89-.3,4.07-.9,1.18-.6,2.21-1.31,3.1-2.12s1.63-1.64,2.23-2.48c.6-.84,1.09-1.5,1.48-1.98l.86.5c-.29.34-.72.95-1.29,1.84ZM386.56,24.91c-.58-.67-1.54-1.01-2.88-1.01-1.49,0-2.92.43-4.29,1.3-1.37.86-2.6,1.93-3.71,3.2-1.1,1.27-2.06,2.64-2.88,4.1-.82,1.46-1.44,2.82-1.87,4.07,1.1.19,2.33.29,3.67.29,1.73,0,3.36-.26,4.9-.79,1.54-.53,2.89-1.22,4.07-2.09,1.18-.86,2.11-1.87,2.81-3.02.7-1.15,1.04-2.35,1.04-3.6,0-.96-.29-1.77-.87-2.45Z"/>
  <path d="M409.1,23.83l-8.28,23.76c-.38,1.01-.67,1.91-.86,2.7-.19.79-.29,1.38-.29,1.76,0,.67.18,1.27.54,1.8.36.53.97.79,1.84.79,1.3,0,2.7-.49,4.21-1.48,1.51-.98,2.99-2.24,4.43-3.78,1.44-1.54,2.76-3.25,3.96-5.15,1.2-1.9,2.13-3.78,2.81-5.65l5.11-14.76h5.04l-8.5,24.41c-.24.72-.48,1.45-.72,2.2-.24.75-.36,1.45-.36,2.12,0,.58.17,1.07.5,1.48.33.41.84.61,1.51.61.82,0,1.6-.26,2.34-.79.74-.53,1.42-1.14,2.02-1.84.6-.7,1.12-1.4,1.55-2.12.43-.72.74-1.3.94-1.73l.86.36c-.19.38-.49.97-.9,1.76-.41.79-.97,1.58-1.69,2.38s-1.61,1.48-2.66,2.05c-1.06.58-2.3.86-3.74.86-1.58,0-2.84-.32-3.78-.97-.94-.65-1.4-1.74-1.4-3.28,0-.82.1-1.6.29-2.34.19-.74.48-1.6.86-2.56l-.14-.14c-.67.86-1.48,1.84-2.41,2.92-.94,1.08-1.94,2.09-3.02,3.02-1.08.94-2.23,1.73-3.46,2.38-1.22.65-2.48.97-3.78.97-2.06,0-3.7-.48-4.9-1.44-1.2-.96-1.8-2.35-1.8-4.18,0-.72.17-1.57.5-2.56.34-.98.62-1.86.86-2.63l7.06-19.94h-6.41l.29-1.01h11.59Z"/>
  <path d="M434.87,24.84l.29-1.01h11.38l-1.51,4.68h.14c.33-.53.8-1.12,1.4-1.76.6-.65,1.31-1.26,2.12-1.84.82-.58,1.72-1.06,2.7-1.44.98-.38,2.05-.58,3.2-.58,1.78,0,3.32.35,4.64,1.04,1.32.7,2.41,1.62,3.28,2.77.86,1.15,1.51,2.5,1.94,4.03.43,1.54.65,3.14.65,4.82,0,2.02-.48,4.19-1.44,6.52-.96,2.33-2.3,4.49-4.03,6.48-1.73,1.99-3.78,3.66-6.16,5-2.38,1.34-4.98,2.02-7.81,2.02-1.87,0-3.48-.61-4.82-1.84-1.34-1.22-2.18-2.87-2.52-4.93h-.14l-8.78,24.98h6.05l-.29,1.01h-16.27l.29-1.01h5.18l17.21-48.96h-6.7ZM439.55,49.79c.29.89.71,1.69,1.26,2.41.55.72,1.22,1.31,2.02,1.76.79.46,1.79.68,2.99.68,1.34,0,2.63-.4,3.85-1.19,1.22-.79,2.36-1.82,3.42-3.1,1.05-1.27,2.02-2.74,2.88-4.39s1.59-3.34,2.2-5.04c.6-1.7,1.07-3.38,1.4-5.04.33-1.66.5-3.13.5-4.43,0-2.06-.41-3.84-1.22-5.33-.82-1.49-2.28-2.23-4.39-2.23-1.25,0-2.39.26-3.42.79-1.03.53-1.96,1.18-2.77,1.94-.82.77-1.54,1.55-2.16,2.34-.62.79-1.15,1.48-1.58,2.05l-5.69,16.06c.19.91.43,1.81.72,2.7Z"/>
</svg>