<?xml version="1.0" encoding="UTF-8"?>
<svg id="_レイヤー_1" data-name="レイヤー_1" xmlns="http://www.w3.org/2000/svg" viewBox="0 0 630.4 71.4">
  <path d="M12.6,2.3L4.4,69H0L8.2,2.3h4.4Z"/>
  <path d="M22.4,69L30.7,1.6l48.8,58.8,7.1-58.1h4.4l-8.4,68.4L33.8,11.9l-7,57.1h-4.4Z"/>
  <path d="M135.5,6.3h-22.6l-3,24.2h22l-.5,4h-22l-4.2,34.5h-4.4L109,2.3h27l-.5,4Z"/>
  <path d="M203.4,10.6c5.9,6.1,8.2,13.4,8.2,21.5,0,9.7-2.8,19.5-11.2,27.7-8,7.8-16.9,10.3-26.7,10.3-8.7,0-16.1-2-22.7-8.5-3.7-3.6-9.1-10.8-9.1-22.2,0-9.1,3.7-19.3,11.4-27.1,8.8-8.9,19.1-10.9,27-10.9,10.6,0,18.1,4.1,23.1,9.2ZM197.1,56.9c6.6-6.6,10-16.2,10-24.6s-3.3-14.9-7.6-19.2c-4.4-4.4-11.1-7.7-19.6-7.7-10.9,0-18.4,4.6-23.2,9.3-7,6.9-10.2,16-10.2,24.3s3.2,14.7,7.3,19.1c5.5,5.8,12.1,8,19.3,8,10.8,0,18.8-4.1,24-9.2Z"/>
  <path d="M249.9,69l-17.7-31.5h-2l-3.9,31.5h-4.4L230.1,2.3h10.4c7.3,0,11.7,2.3,14.1,4.6,3.5,3.4,4.1,7.8,4.1,11.1,0,7-2.6,11.4-5.3,14-4.6,4.4-11.7,5.5-16.4,5.5l17.9,31.5h-5ZM230.7,33.5h6.4c7.5,0,11.2-2.3,13-4,2.3-2.2,4-6.2,4-10.9,0-2.7-.6-6.3-3.6-9-3.4-3.1-7.9-3.3-11-3.3h-5.5l-3.3,27.2Z"/>
  <path d="M268.2,69L284.3,0l21.3,61.7L342.1,0l-.9,69h-4.4l.7-53.6-33.1,56-19.3-56-12.5,53.6h-4.4Z"/>
  <path d="M395.9,47.1h-28.4l-11.6,21.9h-5L387.4.3l19.3,68.7h-4.6l-6.2-21.9ZM394.8,43.1l-8.6-31.6-16.6,31.6h25.2Z"/>
  <path d="M438.9,6.3l-7.7,62.7h-4.4l7.7-62.7h-17.3l.5-4h39l-.5,4h-17.3Z"/>
  <path d="M471.5,2.3l-8.2,66.7h-4.4l8.2-66.7h4.4Z"/>
  <path d="M543.3,10.6c5.9,6.1,8.2,13.4,8.2,21.5,0,9.7-2.8,19.5-11.2,27.7-8,7.8-16.9,10.3-26.7,10.3-8.7,0-16.1-2-22.7-8.5-3.7-3.6-9.1-10.8-9.1-22.2,0-9.1,3.7-19.3,11.4-27.1,8.8-8.9,19.1-10.9,27-10.9,10.6,0,18.1,4.1,23.1,9.2ZM537,56.9c6.6-6.6,10-16.2,10-24.6s-3.3-14.9-7.6-19.2-11.1-7.7-19.6-7.7c-10.9,0-18.4,4.6-23.2,9.3-7,6.9-10.2,16-10.2,24.3s3.2,14.7,7.3,19.1c5.5,5.8,12.1,8,19.3,8,10.8,0,18.8-4.1,24-9.2Z"/>
  <path d="M561.8,69l8.3-67.4,48.8,58.8,7.1-58.1h4.4l-8.4,68.4-48.8-58.8-7,57.1h-4.4Z"/>
</svg>