<?xml version="1.0" encoding="UTF-8"?>
<svg id="_レイヤー_1" data-name="レイヤー_1" xmlns="http://www.w3.org/2000/svg" viewBox="0 0 564.09 268.09">
  <g>
    <path d="M31.49.7l-8.2,66.7h-4.4L27.09.7h4.4Z"/>
    <path d="M41.28,67.4L49.59,0l48.8,58.8L105.49.7h4.4l-8.4,68.4L52.69,10.3l-7,57.1h-4.4Z"/>
    <path d="M164.78,4.7l-7.7,62.7h-4.4l7.7-62.7h-17.3l.5-4h39l-.5,4h-17.3Z"/>
    <path d="M193.88,29h40.4l3.5-28.3h4.4l-8.2,66.7h-4.4l4.2-34.4h-40.4l-4.2,34.4h-4.4L192.98.7h4.4l-3.5,28.3Z"/>
    <path d="M291.69,4.7h-27.6l-3,24.2h27l-.5,4h-27l-3.7,30.5h27.6l-.5,4h-32L260.18.7h32l-.5,4Z"/>
  </g>
  <g>
    <path d="M0,114.38h63.64v2.96h-21.99l43.55,122.63h.42l28.12-78.02-16.07-44.61h-17.76v-2.96h63.43v2.96h-23.05l43.55,122.63h.42l44.4-122.63h-22.62v-2.96h45.25v2.96h-19.03l-54.76,150.75h-5.29l-36.37-101.49h-.42l-36.79,101.49h-5.71L19.03,117.34H0v-2.96Z"/>
    <path d="M200.65,219.68c0-6.9,1.51-13.32,4.55-19.24,3.03-5.92,6.9-11.03,11.63-15.33,4.72-4.3,10.01-7.64,15.86-10.04,5.85-2.4,11.59-3.59,17.23-3.59s11.38,1.2,17.23,3.59c5.85,2.4,11.13,5.74,15.86,10.04,4.72,4.3,8.6,9.41,11.63,15.33,3.03,5.92,4.55,12.34,4.55,19.24s-1.41,12.86-4.23,18.71c-2.82,5.85-6.52,10.96-11.1,15.33-4.58,4.37-9.83,7.82-15.75,10.36-5.92,2.54-11.98,3.81-18.18,3.81s-12.26-1.27-18.18-3.81-11.17-5.99-15.75-10.36c-4.58-4.37-8.28-9.48-11.1-15.33-2.82-5.85-4.23-12.08-4.23-18.71ZM221.79,219.68c0,10.01.77,17.97,2.33,23.89,1.55,5.92,3.59,10.47,6.13,13.64,2.54,3.17,5.5,5.25,8.88,6.24,3.38.99,6.98,1.48,10.78,1.48s7.4-.49,10.78-1.48c3.38-.98,6.34-3.07,8.88-6.24,2.54-3.17,4.58-7.72,6.13-13.64,1.55-5.92,2.33-13.88,2.33-23.89,0-8.46-.56-15.54-1.69-21.25-1.13-5.71-2.85-10.36-5.18-13.95s-5.25-6.16-8.77-7.72c-3.52-1.55-7.68-2.33-12.47-2.33s-8.95.78-12.47,2.33c-3.52,1.55-6.45,4.12-8.77,7.72s-4.05,8.25-5.18,13.95c-1.13,5.71-1.69,12.79-1.69,21.25Z"/>
    <path d="M305.94,261.96h16.28v-84.78h-16.28v-2.96h34.04v21.35h.42c.56-2.11,1.48-4.51,2.75-7.19,1.27-2.68,3.03-5.25,5.29-7.72,2.25-2.46,4.97-4.55,8.14-6.24s7.01-2.54,11.52-2.54c3.24,0,6.06.53,8.46,1.59,2.4,1.06,4.37,2.4,5.92,4.02,1.55,1.62,2.68,3.49,3.38,5.6.7,2.11,1.06,4.23,1.06,6.34,0,4.65-1.06,7.75-3.17,9.3-2.11,1.55-4.58,2.33-7.4,2.33-6.2,0-9.3-1.97-9.3-5.92,0-1.27.14-2.29.42-3.07.28-.77.6-1.55.95-2.33.35-.77.67-1.66.95-2.64.28-.98.42-2.39.42-4.23,0-4.51-2.47-6.77-7.4-6.77-2.26,0-4.65.85-7.19,2.54-2.54,1.69-4.9,4.16-7.08,7.4-2.19,3.24-4.02,7.16-5.5,11.73-1.48,4.58-2.22,9.83-2.22,15.75v48.42h18.39v2.96h-52.86v-2.96Z"/>
    <path d="M396.43,261.96h16.28V115.44h-16.28v-2.96h34.46v149.48h16.28v2.96h-50.74v-2.96Z"/>
    <path d="M513.35,112.48h34.46v149.48h16.28v2.96h-34.04v-18.39h-.42c-.56,1.69-1.41,3.74-2.54,6.13-1.13,2.4-2.79,4.72-4.97,6.98-2.19,2.26-4.94,4.2-8.25,5.81-3.31,1.62-7.37,2.43-12.16,2.43-6.2,0-12.09-1.34-17.65-4.02-5.57-2.68-10.47-6.27-14.69-10.78-4.23-4.51-7.58-9.69-10.04-15.54-2.47-5.85-3.7-12.02-3.7-18.5s1.2-12.4,3.59-18.18c2.4-5.78,5.64-10.82,9.73-15.12,4.09-4.3,8.81-7.75,14.17-10.36,5.35-2.61,11.06-3.91,17.13-3.91,7.75,0,14.02,1.9,18.82,5.71,4.79,3.81,8.17,8.46,10.15,13.95h.42v-75.69h-16.28v-2.96ZM476.77,216.5c0,7.33.21,13.99.63,19.98.42,5.99,1.48,11.1,3.17,15.33s4.23,7.47,7.61,9.73c3.38,2.26,7.96,3.38,13.74,3.38s10.68-1.27,14.27-3.81c3.59-2.54,6.38-5.81,8.35-9.83,1.97-4.02,3.31-8.49,4.02-13.43.7-4.93,1.06-9.73,1.06-14.38,0-5.5-.11-10.25-.32-14.27s-.6-7.58-1.16-10.68c-.56-3.1-1.34-5.78-2.33-8.04-.99-2.25-2.19-4.37-3.59-6.34-2.11-2.82-4.86-5.14-8.25-6.98-3.38-1.83-7.68-2.75-12.9-2.75-4.94,0-8.99.99-12.16,2.96-3.17,1.98-5.64,4.79-7.4,8.46-1.76,3.67-3,8.07-3.7,13.21-.71,5.15-1.06,10.96-1.06,17.44Z"/>
  </g>
</svg>