<?xml version="1.0" encoding="UTF-8"?>
<svg id="_レイヤー_1" data-name="レイヤー_1" xmlns="http://www.w3.org/2000/svg" viewBox="0 0 808.49 461.12">
  <g>
    <path d="M46.2,77.9c-3-8-10.4-8.2-11.9-8.2-4.8,0-8.1,1.8-10.3,4-3.2,3.2-3.9,6.8-3.9,9.4,0,2.9,1,5.1,2.8,7,2.2,2.4,5,3.5,8,5.2l3.3,1.8c4.1,2.3,7.6,3.8,10.2,6.5,3,3,4,6.2,4,10.1,0,5.8-2.2,11.1-6.2,14.9-5.2,5-11.1,5.8-16.6,5.8-5,0-9.5-1-13.4-4.9-2.5-2.5-4.3-6.1-5.2-9.4l4-1.8c.2.7,1.3,4.9,4.4,8,3.1,3.1,6.9,4.1,10.4,4.1,4.7,0,9.9-1.3,13.2-4.4,2-1.9,4.6-5.5,4.6-11.6,0-3.3-.8-5.7-3.2-8.1s-6.2-4.1-9-5.6l-4.6-2.5c-2.2-1.2-5.6-3.5-7.5-5.5-2.4-2.5-3.8-5.3-3.8-9.4,0-5.9,2.8-9.9,5.1-12.2,3.1-3,7.5-5.4,13.9-5.4s12.5,2.9,15.2,9.5l-3.5,2.7Z"/>
    <path d="M69.1,98l35.4-31.4h5.8l-36.4,32,29.9,34.7h-5.8l-27.5-31.8-2,1.7-3.7,30.1h-4.4l8.2-66.7h4.4l-3.9,31.4Z"/>
    <path d="M127,66.6l-8.2,66.7h-4.4l8.2-66.7h4.4Z"/>
    <path d="M136.8,133.3l8.3-67.4,48.8,58.8,7.1-58.1h4.4l-8.4,68.4-48.8-58.8-7,57.1h-4.4Z"/>
    <path d="M292,109.8c-2.7,3.2-5.9,6.4-9.4,9.7l8.5,13.8h-5.6l-6.4-10.5-2.7,2.8c-2.6,2.7-5.2,4.4-8,5.9-4.9,2.5-8.4,3.1-13,3.1-5,0-9.1-.9-12.7-4.6-2.7-2.8-4.6-7-4.6-12.2,0-5.7,2.2-9.9,5.9-13.5,3.2-3.1,7.1-5.2,11.3-7.7l5.8-3.5-2.1-4.2c-1.4-2.9-2.9-6-2.9-10,0-4.4,1.8-7.6,3.9-9.7,2.6-2.7,5.9-3.8,9.6-3.8,4,0,7.3,1.4,9.2,3.4,1.5,1.6,2.8,4,2.8,7.8,0,5.4-2.4,8.2-4.6,10.4-1.7,1.7-3.4,3-5.5,4.4l-4.4,2.9,13.4,21.7c3.2-2.9,6.1-6,8.9-9.3l2.6,3.1ZM263.1,96.5l-6.4,3.7c-3,1.8-6.3,3.8-9.1,6.5-3.1,3.1-4.9,6.6-4.9,11.3,0,4.2,1.6,7.1,3.5,9,3,3,6.5,3.6,10.2,3.6,3.9,0,6.8-.7,10.3-2.7,1.8-1.1,5.7-3.8,7.3-5.5l3-3.1-13.9-22.8ZM265,90.9l4.6-2.9c1.6-1,4-2.9,5.3-4.6,1.7-2.1,2.3-4.4,2.3-6.8,0-2-.5-3.7-2.3-5.2-1.6-1.3-3.5-1.8-5.5-1.8-2.2,0-4.3.6-6.1,2.3-1.3,1.3-2.7,3.5-2.7,7.1,0,3.2,1.1,5.6,2.2,7.7l2.2,4.2Z"/>
    <path d="M331.7,66.6h12.8c3,0,10,.3,14.3,4.5,2.4,2.3,4,6,4,10.5,0,1.8-.2,8.5-5.1,13.2-1.7,1.7-3.5,2.6-4.7,3.1,3,.8,6,2.5,8,4.5,3.3,3.4,4,7.6,4,10.9,0,6-2.4,11.2-5.6,14.4-5.2,5.1-13,5.6-20.3,5.6h-15.6l8.2-66.7ZM328.4,129.3h11.2c7.1,0,12.7-.6,16.7-4.8,2.4-2.5,4-6.4,4-11,0-3.3-.9-6.2-3.4-8.6-3.7-3.5-9.6-4.1-14.6-4.1h-10.4l-3.5,28.5ZM332.4,96.8h9.6c3.2,0,8.3,0,12.3-4,2.3-2.3,3.9-6,3.9-10.7s-2-7.3-3.5-8.6c-3-2.5-7.9-2.9-10.9-2.9h-8.2l-3.2,26.2Z"/>
    <path d="M439.1,74.9c5.9,6.1,8.2,13.4,8.2,21.5,0,9.7-2.8,19.5-11.2,27.7-8,7.8-16.9,10.3-26.7,10.3-8.7,0-16.1-2-22.7-8.5-3.7-3.6-9.1-10.8-9.1-22.2,0-9.1,3.7-19.3,11.4-27.1,8.8-8.9,19.1-10.9,27-10.9,10.6,0,18.1,4.1,23.1,9.2ZM432.8,121.2c6.6-6.6,10-16.2,10-24.6s-3.3-14.9-7.6-19.2c-4.4-4.4-11.1-7.7-19.6-7.7-10.9,0-18.4,4.6-23.2,9.3-7,6.9-10.2,16-10.2,24.3s3.2,14.7,7.3,19.1c5.5,5.8,12.1,8,19.3,8,10.8,0,18.8-4.1,24-9.2Z"/>
    <path d="M461.8,133.3h-4.2l8.2-66.7h12.3c6.4,0,16.8.8,24.3,9.3,3.8,4.3,6.9,11,6.9,20.8,0,8.5-2.1,19.3-10.4,27.2-7.6,7.2-17.4,9.4-28.1,9.4h-9ZM462.5,129.3h8.7c13.1,0,19.9-4.3,24.3-8.7,7.6-7.5,9.3-17.5,9.3-24.4,0-8.7-3.4-14.5-6.5-17.8-6.6-7-15.4-7.8-20.9-7.8h-7.7l-7.2,58.7Z"/>
    <path d="M537.4,104.8l-17.2-38.2h4.8l15.1,33.7,23.7-33.7h5.2l-27.2,38.2-3.5,28.5h-4.4l3.5-28.5Z"/>
    <path d="M654.8,80.2c-.7-.9-4-5-8.9-7.6-5.2-2.7-10.9-2.9-12.4-2.9-7.8,0-16.8,2.9-23.7,9.8-6.6,6.6-10,15.8-10,24,0,7.4,3,14.4,7.7,19.2,4.7,4.8,11.6,7.7,19,7.7,4.9,0,9-1,12.9-2.8,4.2-1.9,7.6-4.4,10.5-7.3l-.7,5.8c-2.7,2.3-6.2,4.6-9.6,6-1.9.8-6.4,2.3-13.2,2.3-8.6,0-16-2.5-22.2-8.7-5.1-5.1-9.2-12.6-9.2-22.4,0-8.8,3.3-18.9,11.8-27,9.1-8.7,19.4-10.6,26.8-10.6s12.2,2.1,13.6,2.7c2.9,1.4,5.9,3.5,8.3,6l-.7,5.8Z"/>
    <path d="M700.1,111.4h-28.4l-11.6,21.9h-5l36.5-68.7,19.3,68.7h-4.6l-6.2-21.9ZM699,107.4l-8.6-31.6-16.6,31.6h25.2Z"/>
    <path d="M749.29,133.3l-17.7-31.5h-2l-3.9,31.5h-4.4l8.2-66.7h10.4c7.3,0,11.7,2.3,14.1,4.6,3.5,3.4,4.1,7.8,4.1,11.1,0,7-2.6,11.4-5.3,14-4.6,4.4-11.7,5.5-16.4,5.5l17.9,31.5h-5ZM730.09,97.8h6.4c7.5,0,11.2-2.3,13-4,2.3-2.2,4-6.2,4-10.9,0-2.7-.6-6.3-3.6-9-3.4-3.1-7.9-3.3-11-3.3h-5.5l-3.3,27.2Z"/>
    <path d="M807.99,70.6h-27.6l-3,24.2h27l-.5,4h-27l-3.7,30.5h27.6l-.5,4h-32l8.2-66.7h32l-.5,4Z"/>
    <path d="M17.3,208.6l-3.9,31.7h-4.4l8.2-66.7h12.9c3.2,0,9.3.4,13.5,4.7,2,2,4.1,5.5,4.1,11.2s-2,10.5-4.9,13.5c-2.6,2.7-7.5,5.6-16.9,5.6h-8.6ZM17.8,204.6h8.8c3.8,0,8.7-.5,12.3-3.9,2.1-2,4-5.4,4-11,0-2.5-.4-5.5-2.9-8.2-3.6-3.9-8-3.9-11.8-3.9h-7.1l-3.3,27Z"/>
    <path d="M81.8,240.3l-17.7-31.5h-2l-3.9,31.5h-4.4l8.2-66.7h10.4c7.3,0,11.7,2.3,14.1,4.6,3.5,3.4,4.1,7.8,4.1,11.1,0,7-2.6,11.4-5.3,14-4.6,4.4-11.7,5.5-16.4,5.5l17.9,31.5h-5ZM62.6,204.8h6.4c7.5,0,11.2-2.3,13-4,2.3-2.2,4-6.2,4-10.9,0-2.7-.6-6.3-3.6-9-3.4-3.1-7.9-3.3-11-3.3h-5.5l-3.3,27.2Z"/>
    <path d="M162.8,181.9c5.9,6.1,8.2,13.4,8.2,21.5,0,9.7-2.8,19.5-11.2,27.7-8,7.8-16.9,10.3-26.7,10.3-8.7,0-16.1-2-22.7-8.5-3.7-3.6-9.1-10.8-9.1-22.2,0-9.1,3.7-19.3,11.4-27.1,8.8-8.9,19.1-10.9,27-10.9,10.6,0,18.1,4.1,23.1,9.2ZM156.5,228.2c6.6-6.6,10-16.2,10-24.6s-3.3-14.9-7.6-19.2c-4.4-4.4-11.1-7.7-19.6-7.7-10.9,0-18.4,4.6-23.2,9.3-7,6.9-10.2,16-10.2,24.3s3.2,14.7,7.3,19.1c5.5,5.8,12.1,8,19.3,8,10.8,0,18.8-4.1,24-9.2Z"/>
    <path d="M185.5,240.3h-4.2l8.2-66.7h12.3c6.4,0,16.8.8,24.3,9.3,3.8,4.3,6.9,11,6.9,20.8,0,8.5-2.1,19.3-10.4,27.2-7.6,7.2-17.4,9.4-28.1,9.4h-9ZM186.2,236.3h8.7c13.1,0,19.9-4.3,24.3-8.7,7.6-7.5,9.3-17.5,9.3-24.4,0-8.7-3.4-14.5-6.5-17.8-6.6-7-15.4-7.8-20.9-7.8h-7.7l-7.2,58.7Z"/>
    <path d="M255.8,173.6l-5.1,41.7c-.7,5.7-1.8,12.6,3.5,17.8,3.8,3.7,8.6,4.3,12.4,4.3,4.2,0,10.1-.8,14.5-5.2,4.6-4.6,5.4-10.6,6.2-16.9l5.1-41.7h4.4l-5.1,41.7c-.7,6-1.5,13.7-7.8,19.9-5.5,5.4-11.8,6.2-17.4,6.2-4.6,0-11.1-.7-15.9-5.5-5.3-5.4-5.3-12.5-4.3-20.6l5.1-41.7h4.4Z"/>
    <path d="M366.9,187.2c-.7-.9-4-5-8.9-7.6-5.2-2.7-10.9-2.9-12.4-2.9-7.8,0-16.8,2.9-23.7,9.8-6.6,6.6-10,15.8-10,24,0,7.4,3,14.4,7.7,19.2,4.7,4.8,11.6,7.7,19,7.7,4.9,0,9-1,12.9-2.8,4.2-1.9,7.6-4.4,10.5-7.3l-.7,5.8c-2.7,2.3-6.2,4.6-9.6,6-1.9.8-6.4,2.3-13.2,2.3-8.6,0-16-2.5-22.2-8.7-5.1-5.1-9.2-12.6-9.2-22.4,0-8.8,3.3-18.9,11.8-27,9.1-8.7,19.4-10.6,26.8-10.6s12.2,2.1,13.6,2.7c2.9,1.4,5.9,3.5,8.3,6l-.7,5.8Z"/>
    <path d="M396.6,177.6l-7.7,62.7h-4.4l7.7-62.7h-17.3l.5-4h39l-.5,4h-17.3Z"/>
    <path d="M453.8,184.9c-3-8-10.4-8.2-11.9-8.2-4.8,0-8.1,1.8-10.3,4-3.2,3.2-3.9,6.8-3.9,9.4,0,2.9,1,5.1,2.8,7,2.2,2.4,5,3.5,8,5.2l3.3,1.8c4.1,2.3,7.6,3.8,10.2,6.5,3,3,4,6.2,4,10.1,0,5.8-2.2,11.1-6.2,14.9-5.2,5-11.1,5.8-16.6,5.8-5,0-9.5-1-13.4-4.9-2.5-2.5-4.3-6.1-5.2-9.4l4-1.8c.2.7,1.3,4.9,4.4,8,3.1,3.1,6.9,4.1,10.4,4.1,4.7,0,9.9-1.3,13.2-4.4,2-1.9,4.6-5.5,4.6-11.6,0-3.3-.8-5.7-3.2-8.1s-6.2-4.1-9-5.6l-4.6-2.5c-2.2-1.2-5.6-3.5-7.5-5.5-2.4-2.5-3.8-5.3-3.8-9.4,0-5.9,2.8-9.9,5.1-12.2,3.1-3,7.5-5.4,13.9-5.4s12.5,2.9,15.2,9.5l-3.5,2.7Z"/>
  </g>
  <g>
    <path d="M2.88,33.08l13.97-13.54c1.15-1.15,3.5-3.5,4.66-5.09,1.44-2.02,1.97-3.94,1.97-5.66,0-2.06-.86-3.46-1.73-4.32-.96-.96-2.64-1.92-5.18-1.92s-4.32.86-5.52,2.11c-1.3,1.34-2.16,3.36-2.3,5.47h-2.11c.24-2.5,1.34-5.14,2.88-6.72,1.54-1.58,3.98-2.78,7.15-2.78,2.69,0,5.09.91,6.58,2.26,1.49,1.34,2.45,3.41,2.45,5.66,0,1.87-.53,4.22-2.3,6.67-.19.29-1.44,1.97-5.23,5.66l-10.56,10.27h15.27l-.24,1.92H2.88Z"/>
    <path d="M49.44,3.22c2.83,2.93,3.6,7.68,3.6,10.99,0,4.18-1.15,11.57-5.76,16.08-2.11,2.11-4.56,3.31-7.97,3.31-2.59,0-4.46-.82-6.05-2.4-2.35-2.35-3.79-6.53-3.79-11.14,0-5.42,1.73-11.76,5.62-15.79,2.45-2.54,5.23-3.65,8.06-3.65s4.8,1.06,6.29,2.59ZM45.56,29.14c4.03-3.94,5.28-10.94,5.28-15.12,0-3.6-.96-7.2-2.98-9.41-1.34-1.44-2.93-2.06-4.9-2.06-2.59,0-4.56,1.1-6.14,2.74-3.36,3.46-5.18,9.41-5.18,14.74,0,4.7,1.25,7.92,3.12,9.79,1.25,1.25,2.59,1.87,4.61,1.87,2.59,0,4.46-.86,6.19-2.54Z"/>
    <path d="M55.49,33.08l13.97-13.54c1.15-1.15,3.5-3.5,4.66-5.09,1.44-2.02,1.97-3.94,1.97-5.66,0-2.06-.86-3.46-1.73-4.32-.96-.96-2.64-1.92-5.18-1.92s-4.32.86-5.52,2.11c-1.3,1.34-2.16,3.36-2.3,5.47h-2.11c.24-2.5,1.34-5.14,2.88-6.72,1.54-1.58,3.98-2.78,7.15-2.78,2.69,0,5.09.91,6.58,2.26,1.49,1.34,2.45,3.41,2.45,5.66,0,1.87-.53,4.22-2.3,6.67-.19.29-1.44,1.97-5.23,5.66l-10.56,10.27h15.27l-.24,1.92h-19.73Z"/>
    <path d="M99.84,25.06h4.46l-.24,1.92h-4.46l-.77,6.1h-2.11l.77-6.1h-17.23L102.92,0l-3.07,25.06ZM97.73,25.06l2.3-18.72-15.7,18.72h13.39Z"/>
    <path d="M137.38,2.98h-10.85l-1.44,11.62h10.56l-.24,1.92h-10.56l-2.02,16.56h-2.11l3.94-32.02h12.96l-.24,1.92Z"/>
    <path d="M146.26,1.06l-3.94,32.02h-2.11l3.94-32.02h2.11Z"/>
    <path d="M150.96,33.08l3.98-32.35,23.43,28.23,3.41-27.89h2.11l-4.03,32.83-23.43-28.23-3.36,27.41h-2.11Z"/>
    <path d="M206.55,22.56h-13.63l-5.57,10.51h-2.4L202.46.1l9.27,32.98h-2.21l-2.98-10.51ZM206.02,20.64l-4.13-15.17-7.97,15.17h12.1Z"/>
    <path d="M222.77,1.06l-3.7,30.1h8.93l-.24,1.92h-11.04l3.94-32.02h2.11Z"/>
    <path d="M238.8,1.06l-3.94,32.02h-2.11l3.94-32.02h2.11Z"/>
    <path d="M261.36,6.48c-1.44-3.84-4.99-3.94-5.71-3.94-2.3,0-3.89.86-4.94,1.92-1.54,1.54-1.87,3.26-1.87,4.51,0,1.39.48,2.45,1.34,3.36,1.06,1.15,2.4,1.68,3.84,2.5l1.58.86c1.97,1.1,3.65,1.82,4.9,3.12,1.44,1.44,1.92,2.98,1.92,4.85,0,2.78-1.06,5.33-2.98,7.15-2.5,2.4-5.33,2.78-7.97,2.78-2.4,0-4.56-.48-6.43-2.35-1.2-1.2-2.06-2.93-2.5-4.51l1.92-.86c.1.34.62,2.35,2.11,3.84s3.31,1.97,4.99,1.97c2.26,0,4.75-.62,6.34-2.11.96-.91,2.21-2.64,2.21-5.57,0-1.58-.38-2.74-1.54-3.89s-2.98-1.97-4.32-2.69l-2.21-1.2c-1.06-.58-2.69-1.68-3.6-2.64-1.15-1.2-1.82-2.54-1.82-4.51,0-2.83,1.34-4.75,2.45-5.86,1.49-1.44,3.6-2.59,6.67-2.59s6,1.39,7.3,4.56l-1.68,1.3Z"/>
    <path d="M278.64,2.98l-3.7,30.1h-2.11l3.7-30.1h-8.3l.24-1.92h18.72l-.24,1.92h-8.3Z"/>
  </g>
  <g>
    <path d="M0,451.18h18.61l57.09-151.38h5.07l57.51,151.38h18.82v2.96h-65.12v-2.96h23.47l-22.2-58.78h-49.05l-22.2,58.78h23.47v2.96H0v-2.96ZM68.71,327.92l-23.26,61.53h46.51l-23.26-61.53Z"/>
    <path d="M139.12,363.44h50.95v2.96h-17.55l23.68,65.97,21.99-52.22-5.29-13.74h-8.88v-2.96h42.07v2.96h-14.17l24.53,65.54,26.43-65.54h-19.87v-2.96h34.46v2.96h-11.21l-37.85,94.72-28.75-76.75-32.14,76.75-34.04-94.72h-14.38v-2.96Z"/>
    <path d="M389.24,451.82c-1.83,1.41-4.02,2.64-6.55,3.7-2.54,1.06-5.64,1.59-9.3,1.59-6.77,0-11.67-1.45-14.69-4.33-3.03-2.89-5.11-6.94-6.24-12.16h-.42c-.56,1.27-1.34,2.85-2.33,4.76-.99,1.9-2.5,3.74-4.55,5.5-2.04,1.76-4.76,3.24-8.14,4.44-3.38,1.2-7.68,1.8-12.9,1.8-5.92,0-10.64-.67-14.17-2.01-3.52-1.34-6.27-2.99-8.25-4.97-1.98-1.97-3.28-4.19-3.91-6.66-.63-2.46-.95-4.76-.95-6.87,0-4.93.98-8.88,2.96-11.84,1.97-2.96,4.55-5.32,7.72-7.08,3.17-1.76,6.69-3.2,10.57-4.33,3.88-1.13,7.79-2.33,11.73-3.59,4.65-1.55,8.49-2.89,11.52-4.02,3.03-1.13,5.39-2.5,7.08-4.12,1.69-1.62,2.85-3.66,3.49-6.13.63-2.46.95-5.81.95-10.04,0-3.38-.21-6.41-.63-9.09-.42-2.68-1.2-4.97-2.33-6.87-1.13-1.9-2.75-3.35-4.86-4.33-2.11-.99-4.94-1.48-8.46-1.48-4.65,0-8.49.81-11.52,2.43-3.03,1.62-4.55,4.26-4.55,7.93,0,2.4.21,4.76.63,7.08.42,2.33.63,4.05.63,5.18,0,1.98-.71,3.63-2.11,4.97-1.41,1.34-3.46,2.01-6.13,2.01-4.65,0-7.54-.85-8.67-2.54-1.13-1.69-1.69-3.88-1.69-6.55,0-3.1.7-6.06,2.11-8.88,1.41-2.82,3.49-5.32,6.24-7.51,2.75-2.18,6.2-3.91,10.36-5.18,4.16-1.27,8.91-1.9,14.27-1.9,6.48,0,11.91.81,16.28,2.43,4.37,1.62,7.89,3.81,10.57,6.55,2.68,2.75,4.58,5.85,5.71,9.3,1.13,3.46,1.69,7.08,1.69,10.89v52.65c0,4.09.63,6.84,1.9,8.25,1.27,1.41,3.1,2.11,5.5,2.11,1.55,0,3.17-.28,4.86-.85,1.69-.56,3.31-1.41,4.86-2.54l1.69,2.33ZM352.24,402.34h-.42c-.28,1.83-2.61,3.67-6.98,5.5l-15.86,6.34c-4.51,1.83-7.96,4.41-10.36,7.72-2.4,3.31-3.59,7.44-3.59,12.37,0,2.11.21,4.3.63,6.55.42,2.26,1.2,4.27,2.33,6.03,1.13,1.76,2.71,3.21,4.76,4.33,2.04,1.13,4.68,1.69,7.93,1.69,4.65,0,8.42-.98,11.31-2.96,2.89-1.97,5.07-4.44,6.55-7.4s2.46-6.16,2.96-9.62c.49-3.45.74-6.59.74-9.41v-21.14Z"/>
    <path d="M387.12,451.18h16.28v-84.78h-16.28v-2.96h34.04v21.35h.42c.56-2.11,1.48-4.51,2.75-7.19,1.27-2.68,3.03-5.25,5.29-7.72,2.25-2.46,4.97-4.55,8.14-6.24s7.01-2.54,11.52-2.54c3.24,0,6.06.53,8.46,1.59,2.4,1.06,4.37,2.4,5.92,4.02,1.55,1.62,2.68,3.49,3.38,5.6.7,2.11,1.06,4.23,1.06,6.34,0,4.65-1.06,7.75-3.17,9.3-2.11,1.55-4.58,2.33-7.4,2.33-6.2,0-9.3-1.97-9.3-5.92,0-1.27.14-2.29.42-3.07.28-.77.6-1.55.95-2.33.35-.77.67-1.66.95-2.64.28-.98.42-2.39.42-4.23,0-4.51-2.47-6.77-7.4-6.77-2.26,0-4.65.85-7.19,2.54-2.54,1.69-4.9,4.16-7.08,7.4-2.19,3.24-4.02,7.16-5.5,11.73-1.48,4.58-2.22,9.83-2.22,15.75v48.42h18.39v2.96h-52.86v-2.96Z"/>
    <path d="M527.73,301.7h34.46v149.48h16.28v2.96h-34.04v-18.39h-.42c-.56,1.69-1.41,3.74-2.54,6.13-1.13,2.4-2.79,4.72-4.97,6.98-2.19,2.26-4.94,4.2-8.25,5.81-3.31,1.62-7.37,2.43-12.16,2.43-6.2,0-12.09-1.34-17.65-4.02-5.57-2.68-10.47-6.27-14.69-10.78-4.23-4.51-7.58-9.69-10.04-15.54-2.47-5.85-3.7-12.02-3.7-18.5s1.2-12.4,3.59-18.18c2.4-5.78,5.64-10.82,9.73-15.12,4.09-4.3,8.81-7.75,14.17-10.36,5.35-2.61,11.06-3.91,17.13-3.91,7.75,0,14.02,1.9,18.82,5.71,4.79,3.81,8.17,8.46,10.15,13.95h.42v-75.69h-16.28v-2.96ZM491.15,405.73c0,7.33.21,13.99.63,19.98.42,5.99,1.48,11.1,3.17,15.33s4.23,7.47,7.61,9.73c3.38,2.26,7.96,3.38,13.74,3.38s10.68-1.27,14.27-3.81c3.59-2.54,6.38-5.81,8.35-9.83,1.97-4.02,3.31-8.49,4.02-13.43.7-4.93,1.06-9.73,1.06-14.38,0-5.5-.11-10.25-.32-14.27s-.6-7.58-1.16-10.68c-.56-3.1-1.34-5.78-2.33-8.04-.99-2.25-2.19-4.37-3.59-6.34-2.11-2.82-4.86-5.14-8.25-6.98-3.38-1.83-7.68-2.75-12.9-2.75-4.94,0-8.99.99-12.16,2.96-3.17,1.98-5.64,4.79-7.4,8.46-1.76,3.67-3,8.07-3.7,13.21-.71,5.15-1.06,10.96-1.06,17.44Z"/>
    <path d="M587.77,424.54h2.33c.98,3.38,2.25,6.8,3.81,10.25,1.55,3.46,3.63,6.63,6.24,9.51,2.61,2.89,5.81,5.25,9.62,7.08,3.81,1.83,8.38,2.75,13.74,2.75,4.51,0,8.53-1.37,12.05-4.12,3.52-2.75,5.29-7.22,5.29-13.43,0-5.36-1.37-9.12-4.12-11.31-2.75-2.18-5.96-3.91-9.62-5.18l-16.49-5.71c-2.11-.7-4.41-1.59-6.87-2.64-2.47-1.06-4.76-2.54-6.87-4.44-2.11-1.9-3.84-4.33-5.18-7.29-1.34-2.96-2.01-6.77-2.01-11.42,0-3.95.77-7.61,2.33-11,1.55-3.38,3.66-6.34,6.34-8.88,2.68-2.54,5.88-4.51,9.62-5.92,3.73-1.41,7.79-2.11,12.16-2.11,3.1,0,5.6.25,7.51.74,1.9.5,3.56.99,4.97,1.48,1.41.5,2.68.99,3.81,1.48,1.13.5,2.46.74,4.02.74s2.68-.56,3.38-1.69h2.33v24.1h-2.33c-.99-3.1-2.11-6.09-3.38-8.99-1.27-2.89-2.79-5.46-4.55-7.72-1.76-2.25-3.95-4.02-6.55-5.29-2.61-1.27-5.68-1.9-9.2-1.9-6.77,0-12.02,1.52-15.75,4.55-3.74,3.03-5.6,7.08-5.6,12.16,0,4.51,1.59,7.93,4.76,10.25,3.17,2.33,7.86,4.48,14.06,6.45l15.43,5.07c6.62,2.26,12.05,5.36,16.28,9.3,4.23,3.95,6.34,9.16,6.34,15.65,0,3.81-.74,7.54-2.22,11.21-1.48,3.67-3.67,6.87-6.55,9.62-2.89,2.75-6.42,4.97-10.57,6.66-4.16,1.69-8.92,2.54-14.27,2.54-3.1,0-5.96-.32-8.56-.95-2.61-.63-5-1.3-7.19-2.01-2.19-.7-4.2-1.37-6.03-2.01-1.83-.63-3.52-.95-5.07-.95s-2.68.32-3.38.95c-.71.63-1.27,1.3-1.69,2.01h-2.33v-29.6Z"/>
  </g>
</svg>