<?xml version="1.0" encoding="UTF-8"?>
<svg id="_レイヤー_1" data-name="レイヤー_1" xmlns="http://www.w3.org/2000/svg" viewBox="0 0 196.81 34.52">
  <defs>
    <style>
      .cls-1 {
        fill: #fff;
      }
    </style>
  </defs>
  <path class="cls-1" d="M10.08,26.24L3.71,14.9h-.72l-1.4,11.34H0L2.95,2.23h3.74c2.63,0,4.21.83,5.08,1.66,1.26,1.22,1.48,2.81,1.48,4,0,2.52-.94,4.1-1.91,5.04-1.66,1.58-4.21,1.98-5.9,1.98l6.44,11.34h-1.8ZM3.17,13.46h2.3c2.7,0,4.03-.83,4.68-1.44.83-.79,1.44-2.23,1.44-3.92,0-.97-.22-2.27-1.3-3.24-1.22-1.12-2.84-1.19-3.96-1.19h-1.98l-1.19,9.79Z"/>
  <path class="cls-1" d="M17.82,19.08c-.32,1.91.47,3.74,1.48,4.75.58.58,1.73,1.44,3.71,1.44,1.15,0,2.48-.32,3.49-1.04.79-.58,1.51-1.48,1.91-2.3l1.12.72c-.61,1.08-1.58,2.23-2.63,2.92-.76.5-2.02,1.08-3.92,1.08s-3.56-.5-4.9-1.94c-1.3-1.37-1.84-3.1-1.84-5,0-2.74,1.01-4.9,2.45-6.34,1.15-1.15,2.84-2.12,5.26-2.12,1.94,0,3.56.68,4.61,1.69,1.66,1.58,1.98,3.89,1.8,6.16h-12.53ZM28.91,17.71c-.04-1.55-.68-2.92-1.48-3.74-.68-.72-1.8-1.37-3.49-1.37-2.12,0-3.49,1.01-4.21,1.76-.72.76-1.4,1.87-1.69,3.35h10.87Z"/>
  <path class="cls-1" d="M47.01,15.01c-.54-.61-1.3-1.26-2.02-1.66-.79-.43-1.76-.76-2.92-.76-2.74,0-4.32,1.33-4.86,1.91-1.37,1.37-1.94,3.38-1.94,5.04,0,1.44.54,3.02,1.51,4.1,1.26,1.37,2.92,1.62,4.14,1.62s2.05-.18,3.02-.68c1.08-.58,1.8-1.29,2.3-1.94l-.25,2.09c-.58.47-1.37,1.01-2.09,1.33-1.19.5-2.48.58-3.06.58-2.52,0-4.1-.86-5.18-1.94-1.08-1.12-1.91-2.84-1.91-5.15,0-2.66,1.12-4.82,2.45-6.12,1.37-1.33,3.35-2.2,5.83-2.2,1.66,0,2.84.5,3.2.65.68.29,1.4.76,2.02,1.22l-.25,1.91Z"/>
  <path class="cls-1" d="M63.46,13.28c1.08,1.08,1.84,2.7,1.84,5.08,0,2.81-1.08,4.86-2.41,6.12-1.19,1.12-3.06,2.16-6.01,2.16-1.98,0-3.78-.54-5.18-2.02-1.15-1.19-1.94-3.02-1.94-5.11,0-2.27.94-4.61,2.45-6.08,1.55-1.48,3.74-2.2,5.8-2.2s4.18.76,5.47,2.05ZM61.63,23.61c1.04-.97,2.16-2.63,2.16-5.11s-1.15-3.74-1.55-4.17c-.9-.94-2.34-1.73-4.39-1.73-1.87,0-3.38.68-4.46,1.66-1.4,1.26-2.12,3.2-2.12,5.04,0,1.73.65,3.31,1.66,4.36.72.76,2.02,1.62,4.18,1.62,1.8,0,3.31-.54,4.54-1.66Z"/>
  <path class="cls-1" d="M69.66,11.55l3.67,12.2,6.62-12.2h1.66l-8.6,15.59-4.86-15.59h1.51Z"/>
  <path class="cls-1" d="M84.24,19.08c-.32,1.91.47,3.74,1.48,4.75.58.58,1.73,1.44,3.71,1.44,1.15,0,2.48-.32,3.49-1.04.79-.58,1.51-1.48,1.91-2.3l1.12.72c-.61,1.08-1.58,2.23-2.63,2.92-.76.5-2.02,1.08-3.92,1.08s-3.56-.5-4.9-1.94c-1.3-1.37-1.84-3.1-1.84-5,0-2.74,1.01-4.9,2.45-6.34,1.15-1.15,2.84-2.12,5.26-2.12,1.94,0,3.56.68,4.61,1.69,1.66,1.58,1.98,3.89,1.8,6.16h-12.53ZM95.32,17.71c-.04-1.55-.68-2.92-1.48-3.74-.68-.72-1.8-1.37-3.49-1.37-2.12,0-3.49,1.01-4.21,1.76-.72.76-1.4,1.87-1.69,3.35h10.87Z"/>
  <path class="cls-1" d="M102.02,11.55h1.44l-.22,1.91c.29-.54.79-1.19,1.4-1.58.58-.4,1.37-.65,2.16-.65.22,0,.83.04,1.44.36l-.86,1.3c-.14-.11-.47-.29-1.04-.29-.72,0-1.48.36-2.02.94-1.19,1.26-1.51,3.53-1.73,5.33l-.94,7.38h-1.44l1.8-14.69Z"/>
  <path class="cls-1" d="M114.23,26.49l-5.15-14.94h1.58l4.57,13.07,6.95-13.07h1.73l-12.45,22.97h-1.66l4.43-8.03Z"/>
  <path class="cls-1" d="M138.06,0l-1.73,13.97c.43-.61,1.08-1.33,2.05-1.87,1.01-.58,2.16-.86,3.42-.86,2.02,0,3.82.72,4.97,1.87,1.04,1.04,1.91,2.74,1.91,4.97,0,2.59-.94,4.93-2.48,6.48-1.08,1.04-2.74,2.09-5.26,2.09-1.26,0-2.52-.29-3.6-1.04-.9-.61-1.66-1.55-2.12-2.45l-.4,3.1h-1.44l3.24-26.24h1.44ZM145.11,23.72c1.26-1.22,2.05-3.49,2.05-5.65,0-1.91-.79-3.17-1.51-3.92-1.01-1.01-2.45-1.55-3.82-1.55-1.55,0-3.1.61-4.21,1.69-1.26,1.22-2.02,3.2-2.02,5.11s.72,3.46,1.66,4.39c.83.83,2.05,1.48,3.89,1.48s3.13-.72,3.96-1.55Z"/>
  <path class="cls-1" d="M165.85,11.55h1.44l-1.8,14.69h-1.44l.29-2.27c-.58.79-1.3,1.48-2.16,1.91-.86.43-1.98.76-3.38.76-1.69,0-3.31-.4-4.68-1.69-.9-.83-2.12-2.48-2.12-5.33,0-2.41.83-4.79,2.48-6.37,1.08-1.04,2.77-2.02,5.44-2.02,1.15,0,2.45.22,3.56.97.86.58,1.58,1.4,2.02,2.23l.36-2.88ZM155.48,14.22c-1.19,1.19-1.98,3.2-1.98,5.29,0,1.87.72,3.46,1.69,4.39,1.22,1.15,2.7,1.37,3.74,1.37,1.37,0,2.45-.32,3.49-1.08,2.16-1.58,2.66-4.32,2.66-5.9,0-1.76-.58-3.28-1.51-4.21-.61-.65-1.84-1.48-3.96-1.48-1.62,0-3.02.5-4.14,1.62Z"/>
  <path class="cls-1" d="M175.35,0l-3.24,26.24h-1.44l3.24-26.24h1.44Z"/>
  <path class="cls-1" d="M179.1,11.55h1.44l-.22,1.84c.43-.76.97-1.22,1.44-1.51.76-.47,1.58-.65,2.41-.65.97,0,1.98.22,2.7.76.5.36,1.04,1.01,1.3,1.91.25-.58.68-1.3,1.55-1.87.83-.58,1.69-.79,2.81-.79,1.94,0,2.92.83,3.28,1.19.79.83,1.01,1.84,1.01,2.74,0,.25,0,.94-.18,2.45l-1.04,8.64h-1.44l1.04-8.53c.04-.29.18-1.55.18-2.05,0-1.01-.32-1.73-.79-2.23-.68-.72-1.58-.83-2.27-.83-.86,0-1.76.18-2.56.94-1.01.97-1.33,2.52-1.55,4.21l-1.04,8.5h-1.44l1.04-8.46c.07-.58.18-1.55.18-2.09,0-.72-.07-1.58-.76-2.27-.43-.43-1.15-.83-2.27-.83s-2.02.43-2.59,1.04c-.9.94-1.37,2.45-1.58,4.36l-1.01,8.24h-1.44l1.8-14.69Z"/>
</svg>