<?xml version="1.0" encoding="UTF-8"?>
<svg id="_レイヤー_1" data-name="レイヤー_1" xmlns="http://www.w3.org/2000/svg" viewBox="0 0 503.64 200.19">
  <g>
    <path d="M48.92,6.87c4.41,4.56,6.12,10.01,6.12,16.06,0,7.24-2.09,14.56-8.36,20.69-5.97,5.82-12.62,7.69-19.94,7.69-6.5,0-12.02-1.49-16.95-6.35-2.76-2.69-6.79-8.06-6.79-16.58,0-6.79,2.76-14.41,8.51-20.24C18.07,1.49,25.77,0,31.67,0c7.92,0,13.52,3.06,17.25,6.87ZM44.21,41.45c4.93-4.93,7.47-12.1,7.47-18.37s-2.46-11.13-5.67-14.34c-3.29-3.29-8.29-5.75-14.64-5.75-8.14,0-13.74,3.44-17.33,6.95-5.23,5.15-7.62,11.95-7.62,18.15s2.39,10.98,5.45,14.26c4.11,4.33,9.04,5.97,14.41,5.97,8.06,0,14.04-3.06,17.92-6.87Z"/>
    <path d="M72.06.67l-3.81,31.14c-.52,4.26-1.34,9.41,2.61,13.29,2.84,2.76,6.42,3.21,9.26,3.21,3.14,0,7.54-.6,10.83-3.88,3.44-3.44,4.03-7.92,4.63-12.62l3.81-31.14h3.29l-3.81,31.14c-.52,4.48-1.12,10.23-5.83,14.86-4.11,4.03-8.81,4.63-12.99,4.63-3.44,0-8.29-.52-11.87-4.11-3.96-4.03-3.96-9.33-3.21-15.38l3.81-31.14h3.29Z"/>
    <path d="M130.91,50.48l-13.22-23.52h-1.49l-2.91,23.52h-3.29L116.12.67h7.77c5.45,0,8.74,1.72,10.53,3.43,2.61,2.54,3.06,5.83,3.06,8.29,0,5.23-1.94,8.51-3.96,10.46-3.44,3.29-8.74,4.11-12.25,4.11l13.37,23.52h-3.73ZM116.57,23.97h4.78c5.6,0,8.36-1.72,9.71-2.99,1.72-1.64,2.99-4.63,2.99-8.14,0-2.02-.45-4.71-2.69-6.72-2.54-2.32-5.9-2.46-8.21-2.46h-4.11l-2.46,20.31Z"/>
  </g>
  <g>
    <path d="M0,195.77h17.53v-107.99H0v-2.21h35.52l29.21,84.94h.32l29.21-84.94h34.89v2.21h-17.52v107.99h17.52v2.21h-50.84v-2.21h17.52v-107.05h-.32l-37.73,109.41L20.21,89.83h-.32v105.94h17.53v2.21H0v-2.21Z"/>
    <path d="M131.36,195.77h12.16v-63.31h-12.16v-2.21h25.73v65.52h12.16v2.21h-37.89v-2.21ZM141.62,93.46c0-2.31.81-4.29,2.45-5.92,1.63-1.63,3.6-2.45,5.92-2.45s4.29.82,5.92,2.45c1.63,1.63,2.45,3.61,2.45,5.92s-.82,4.29-2.45,5.92-3.61,2.45-5.92,2.45-4.29-.81-5.92-2.45c-1.63-1.63-2.45-3.6-2.45-5.92Z"/>
    <path d="M176.2,175.87h1.74c.74,2.53,1.68,5.08,2.84,7.66,1.16,2.58,2.71,4.95,4.66,7.1,1.95,2.16,4.34,3.92,7.18,5.29,2.84,1.37,6.26,2.05,10.26,2.05,3.37,0,6.37-1.03,9-3.08,2.63-2.05,3.95-5.39,3.95-10.03,0-4-1.03-6.81-3.08-8.45-2.05-1.63-4.45-2.92-7.18-3.87l-12.32-4.26c-1.58-.53-3.29-1.18-5.13-1.97-1.84-.79-3.55-1.89-5.13-3.32-1.58-1.42-2.87-3.24-3.87-5.45-1-2.21-1.5-5.05-1.5-8.53,0-2.95.58-5.68,1.74-8.21,1.16-2.53,2.74-4.74,4.74-6.63,2-1.89,4.39-3.37,7.18-4.42,2.79-1.05,5.81-1.58,9.08-1.58,2.31,0,4.18.19,5.61.55,1.42.37,2.66.74,3.71,1.11,1.05.37,2,.74,2.84,1.11.84.37,1.84.55,3,.55s2-.42,2.53-1.26h1.74v18h-1.74c-.74-2.31-1.58-4.55-2.53-6.71-.95-2.16-2.08-4.08-3.39-5.76-1.32-1.68-2.95-3-4.89-3.95-1.95-.95-4.24-1.42-6.87-1.42-5.05,0-8.97,1.13-11.76,3.39-2.79,2.26-4.18,5.29-4.18,9.08,0,3.37,1.18,5.92,3.55,7.66,2.37,1.74,5.87,3.34,10.5,4.82l11.53,3.79c4.95,1.69,9,4,12.16,6.95,3.16,2.95,4.74,6.84,4.74,11.68,0,2.84-.55,5.63-1.66,8.37-1.11,2.74-2.74,5.13-4.89,7.18-2.16,2.05-4.79,3.71-7.89,4.97-3.11,1.26-6.66,1.89-10.66,1.89-2.32,0-4.45-.24-6.39-.71-1.95-.47-3.74-.97-5.37-1.5-1.63-.53-3.13-1.03-4.5-1.5-1.37-.47-2.63-.71-3.79-.71s-2,.24-2.53.71c-.53.47-.95.97-1.26,1.5h-1.74v-22.1Z"/>
    <path d="M237.14,175.87h1.74c.74,2.53,1.68,5.08,2.84,7.66,1.16,2.58,2.71,4.95,4.66,7.1,1.95,2.16,4.34,3.92,7.18,5.29,2.84,1.37,6.26,2.05,10.26,2.05,3.37,0,6.37-1.03,9-3.08,2.63-2.05,3.95-5.39,3.95-10.03,0-4-1.03-6.81-3.08-8.45-2.05-1.63-4.45-2.92-7.18-3.87l-12.32-4.26c-1.58-.53-3.29-1.18-5.13-1.97-1.84-.79-3.55-1.89-5.13-3.32-1.58-1.42-2.87-3.24-3.87-5.45-1-2.21-1.5-5.05-1.5-8.53,0-2.95.58-5.68,1.74-8.21,1.16-2.53,2.74-4.74,4.74-6.63,2-1.89,4.39-3.37,7.18-4.42,2.79-1.05,5.81-1.58,9.08-1.58,2.31,0,4.18.19,5.61.55,1.42.37,2.66.74,3.71,1.11,1.05.37,2,.74,2.84,1.11.84.37,1.84.55,3,.55s2-.42,2.53-1.26h1.74v18h-1.74c-.74-2.31-1.58-4.55-2.53-6.71-.95-2.16-2.08-4.08-3.39-5.76-1.32-1.68-2.95-3-4.89-3.95-1.95-.95-4.24-1.42-6.87-1.42-5.05,0-8.97,1.13-11.76,3.39-2.79,2.26-4.18,5.29-4.18,9.08,0,3.37,1.18,5.92,3.55,7.66,2.37,1.74,5.87,3.34,10.5,4.82l11.53,3.79c4.95,1.69,9,4,12.16,6.95,3.16,2.95,4.74,6.84,4.74,11.68,0,2.84-.55,5.63-1.66,8.37-1.11,2.74-2.74,5.13-4.89,7.18-2.16,2.05-4.79,3.71-7.89,4.97-3.11,1.26-6.66,1.89-10.66,1.89-2.32,0-4.45-.24-6.39-.71-1.95-.47-3.74-.97-5.37-1.5-1.63-.53-3.13-1.03-4.5-1.5-1.37-.47-2.63-.71-3.79-.71s-2,.24-2.53.71c-.53.47-.95.97-1.26,1.5h-1.74v-22.1Z"/>
    <path d="M293.66,195.77h12.16v-63.31h-12.16v-2.21h25.73v65.52h12.16v2.21h-37.89v-2.21ZM303.92,93.46c0-2.31.81-4.29,2.45-5.92,1.63-1.63,3.6-2.45,5.92-2.45s4.29.82,5.92,2.45c1.63,1.63,2.45,3.61,2.45,5.92s-.82,4.29-2.45,5.92-3.61,2.45-5.92,2.45-4.29-.81-5.92-2.45c-1.63-1.63-2.45-3.6-2.45-5.92Z"/>
    <path d="M336.76,164.19c0-5.16,1.13-9.95,3.39-14.37,2.26-4.42,5.16-8.24,8.68-11.45,3.53-3.21,7.47-5.71,11.84-7.5,4.37-1.79,8.66-2.68,12.87-2.68s8.5.9,12.87,2.68c4.37,1.79,8.31,4.29,11.84,7.5,3.53,3.21,6.42,7.03,8.68,11.45,2.26,4.42,3.39,9.21,3.39,14.37s-1.05,9.61-3.16,13.97c-2.11,4.37-4.87,8.19-8.29,11.45-3.42,3.26-7.34,5.84-11.76,7.74-4.42,1.89-8.95,2.84-13.58,2.84s-9.16-.95-13.58-2.84-8.34-4.47-11.76-7.74c-3.42-3.26-6.18-7.08-8.29-11.45-2.11-4.37-3.16-9.02-3.16-13.97ZM352.55,164.19c0,7.47.58,13.42,1.74,17.84,1.16,4.42,2.68,7.82,4.58,10.18s4.11,3.92,6.63,4.66c2.53.74,5.21,1.11,8.05,1.11s5.53-.37,8.05-1.11c2.53-.74,4.74-2.29,6.63-4.66s3.42-5.76,4.58-10.18c1.16-4.42,1.74-10.37,1.74-17.84,0-6.32-.42-11.6-1.26-15.87-.84-4.26-2.13-7.74-3.87-10.42-1.74-2.68-3.92-4.6-6.55-5.76-2.63-1.16-5.74-1.74-9.31-1.74s-6.69.58-9.32,1.74c-2.63,1.16-4.82,3.08-6.55,5.76-1.74,2.68-3.03,6.16-3.87,10.42-.84,4.26-1.26,9.55-1.26,15.87Z"/>
    <path d="M415.07,195.77h12.16v-63.31h-12.16v-2.21h25.42v16.89h.32c.63-1.37,1.55-3.1,2.76-5.21,1.21-2.1,2.87-4.16,4.97-6.16,2.1-2,4.74-3.71,7.89-5.13,3.16-1.42,7-2.13,11.53-2.13,6.95,0,12.6,1.68,16.97,5.05,4.37,3.37,6.55,8.74,6.55,16.1v46.1h12.16v2.21h-37.89v-2.21h12.16v-51c0-4.11-.97-7.47-2.92-10.1-1.95-2.63-4.97-3.95-9.08-3.95-3.37,0-6.58.74-9.63,2.21-3.05,1.48-5.74,3.53-8.05,6.16-2.32,2.63-4.13,5.74-5.45,9.32-1.32,3.58-1.97,7.47-1.97,11.68v35.68h12.16v2.21h-37.89v-2.21Z"/>
  </g>
</svg>