<?xml version="1.0" encoding="UTF-8"?>
<svg id="_レイヤー_1" data-name="レイヤー_1" xmlns="http://www.w3.org/2000/svg" viewBox="0 0 543.7 70.4">
  <path d="M8.3,37l-3.9,31.7H0L8.2,2h12.9c3.2,0,9.3.4,13.5,4.7,2,2,4.1,5.5,4.1,11.2s-2,10.5-4.9,13.5c-2.6,2.7-7.5,5.6-16.9,5.6h-8.6ZM8.8,33h8.8c3.8,0,8.7-.5,12.3-3.9,2.1-2,4-5.4,4-11,0-2.5-.4-5.5-2.9-8.2-3.6-3.9-8-3.9-11.8-3.9h-7.1l-3.3,27Z"/>
  <path d="M82.2,46.8h-28.4l-11.6,21.9h-5L73.7,0l19.3,68.7h-4.6l-6.2-21.9ZM81.1,42.8l-8.6-31.6-16.6,31.6h25.2Z"/>
  <path d="M131.4,68.7l-17.7-31.5h-2l-3.9,31.5h-4.4L111.6,2h10.4c7.3,0,11.7,2.3,14.1,4.6,3.5,3.4,4.1,7.8,4.1,11.1,0,7-2.6,11.4-5.3,14-4.6,4.4-11.7,5.5-16.4,5.5l17.9,31.5h-5ZM112.2,33.2h6.4c7.5,0,11.2-2.3,13-4,2.3-2.2,4-6.2,4-10.9,0-2.7-.6-6.3-3.6-9-3.4-3.1-7.9-3.3-11-3.3h-5.5l-3.3,27.2Z"/>
  <path d="M172.2,6l-7.7,62.7h-4.4l7.7-62.7h-17.3l.5-4h39l-.5,4h-17.3Z"/>
  <path d="M192.2,68.7L200.5,1.3l48.8,58.8,7.1-58.1h4.4l-8.4,68.4-48.8-58.8-7,57.1h-4.4Z"/>
  <path d="M310.3,6h-27.6l-3,24.2h27l-.5,4h-27l-3.7,30.5h27.6l-.5,4h-32l8.2-66.7h32l-.5,4Z"/>
  <path d="M345,68.7l-17.7-31.5h-2l-3.9,31.5h-4.4l8.2-66.7h10.4c7.3,0,11.7,2.3,14.1,4.6,3.5,3.4,4.1,7.8,4.1,11.1,0,7-2.6,11.4-5.3,14-4.6,4.4-11.7,5.5-16.4,5.5l17.9,31.5h-5ZM325.8,33.2h6.4c7.5,0,11.2-2.3,13-4,2.3-2.2,4-6.2,4-10.9,0-2.7-.6-6.3-3.6-9-3.4-3.1-7.9-3.3-11-3.3h-5.5l-3.3,27.2Z"/>
  <path d="M401.2,13.3c-3-8-10.4-8.2-11.9-8.2-4.8,0-8.1,1.8-10.3,4-3.2,3.2-3.9,6.8-3.9,9.4,0,2.9,1,5.1,2.8,7,2.2,2.4,5,3.5,8,5.2l3.3,1.8c4.1,2.3,7.6,3.8,10.2,6.5,3,3,4,6.2,4,10.1,0,5.8-2.2,11.1-6.2,14.9-5.2,5-11.1,5.8-16.6,5.8-5,0-9.5-1-13.4-4.9-2.5-2.5-4.3-6.1-5.2-9.4l4-1.8c.2.7,1.3,4.9,4.4,8,3.1,3.1,6.9,4.1,10.4,4.1,4.7,0,9.9-1.3,13.2-4.4,2-1.9,4.6-5.5,4.6-11.6,0-3.3-.8-5.7-3.2-8.1s-6.2-4.1-9-5.6l-4.6-2.5c-2.2-1.2-5.6-3.5-7.5-5.5-2.4-2.5-3.8-5.3-3.8-9.4,0-5.9,2.8-9.9,5.1-12.2,3.1-3,7.5-5.4,13.9-5.4s12.5,2.9,15.2,9.5l-3.5,2.7Z"/>
  <path d="M424.5,30.3h40.4l3.5-28.3h4.4l-8.2,66.7h-4.4l4.2-34.4h-40.4l-4.2,34.4h-4.4l8.2-66.7h4.4l-3.5,28.3Z"/>
  <path d="M495.2,2l-8.2,66.7h-4.4l8.2-66.7h4.4Z"/>
  <path d="M513.29,37l-3.9,31.7h-4.4l8.2-66.7h12.9c3.2,0,9.3.4,13.5,4.7,2,2,4.1,5.5,4.1,11.2s-2,10.5-4.9,13.5c-2.6,2.7-7.5,5.6-16.9,5.6h-8.6ZM513.79,33h8.8c3.8,0,8.7-.5,12.3-3.9,2.1-2,4-5.4,4-11,0-2.5-.4-5.5-2.9-8.2-3.6-3.9-8-3.9-11.8-3.9h-7.1l-3.3,27Z"/>
</svg>