<?xml version="1.0" encoding="UTF-8"?>
<svg xmlns="http://www.w3.org/2000/svg" version="1.1" viewBox="0 0 194.4 36">
  <defs>
    <style>
      .cls-1 {
        stroke: #fff;
        stroke-miterlimit: 10;
        stroke-width: .2px;
      }

      .cls-1, .cls-2 {
        fill: #1a1a1a;
      }
    </style>
  </defs>
  <!-- Generator: Adobe Illustrator 28.6.0, SVG Export Plug-In . SVG Version: 1.2.0 Build 709)  -->
  <g>
    <g id="_レイヤー_1" data-name="レイヤー_1">
      <g>
        <polygon class="cls-2" points="179.8 2.2 184.8 2.2 184.8 3.1 182.9 3.1 182.9 8.4 181.7 8.4 181.7 3.1 179.8 3.1 179.8 2.2"/>
        <polygon class="cls-2" points="187 2.2 188.9 6.7 189 6.7 190.8 2.2 192.2 2.2 192.2 8.4 191.1 8.4 191.1 4.1 191 4.1 189.3 8.4 188.5 8.4 186.8 4.1 186.8 4.1 186.8 8.4 185.7 8.4 185.7 2.2 187 2.2"/>
        <path class="cls-1" d="M63.7,7c-3.4,0-6.3,1.1-8.7,3.4-2.8,2.6-4.2,5.9-4.2,10s1.1,7,3.4,9.5c2.4,2.7,5.5,4,9.2,4s6.8-1.4,9.2-4.1c2.3-2.6,3.5-5.8,3.5-9.5s-1.1-6.7-3.4-9.3c-2.4-2.7-5.4-4.1-9-4.1M69,28c-1.2,2.2-3.1,3.3-5.7,3.3s-3.4-.7-4.6-2.2c-1.6-2-2.4-4.9-2.4-8.7s.8-6.5,2.3-8.4c1.2-1.5,2.7-2.2,4.7-2.2s4.6,1.1,5.8,3.5c1,1.9,1.5,4.4,1.5,7.6s-.5,5.4-1.5,7.2"/>
        <path class="cls-1" d="M152.5,14.6c0-1.5-.5-2.8-1.4-4-.9-1.1-2.1-2-3.5-2.4-1.1-.3-2.3-.5-3.8-.6h0-.2c-.7,0-1.3,0-2,0h-7.5s-.2.2.2.3c.4.1,1.1.7,1.2,1.7v23.9h4.9v-11.3h1.5l8.3,11.4h5.6l-8.8-12.1c3.6-1.1,5.5-3.4,5.5-6.7M145.1,18.4c-1.1.7-2.6,1.1-4.4,1.1h-.3v-8.9c.9-.2,1.6-.2,2.1-.2,1.4,0,2.5.4,3.3,1.2.8.8,1.2,1.9,1.2,3.2,0,1.6-.6,2.8-1.9,3.6"/>
        <path class="cls-1" d="M177,10.3v-2.8h-18.2s-.2.2.2.3c.4.1,1.1.7,1.2,1.7h0v23.8h16.8v-2.8h-10.5c-.8,0-1-.1-1-.1-.2,0-.2-.4-.3-.6v-8.6h9.9v-2.7h-9.9v-8.2h11.8Z"/>
        <path class="cls-1" d="M3.1,7.6s-.2.2.2.3c.4.1,1.1.7,1.2,1.7v23.9h16.8v-2.8h-10.5c-.8,0-1-.1-1-.1-.2,0-.2-.4-.3-.6v-8.7h9.9v-2.7h-9.9v-8.2h11.9v-2.8H3.1Z"/>
        <path class="cls-1" d="M104.9,7.6h-3.4l-8.2,18.1-8.4-18.1h-3.7s-2.4,0-2.4,0c0,0-.2.2.2.3.4.1,1.1.7,1.2,1.7v23.8h3V15.4l8.3,18h1.5l8.2-18v18h4.9V9.6c.1-1,.8-1.6,1.2-1.7.3,0,.2-.3.2-.3h-2.6Z"/>
        <path class="cls-1" d="M114.4,7.6h-2.7s-.2.2.2.3c.4.1,1.1.7,1.2,1.7v23.8h16.8v-2.8h-10.5c-.8,0-1-.1-1-.1-.2,0-.2-.4-.3-.6v-8.7h9.9v-2.7h-9.9v-8.2h11.8v-2.8h-15.5Z"/>
        <path class="cls-1" d="M47.4,7.6h-2.5l-7.1,9.1-5.9-9.1h-5.6s-1,0-1,0c0,0-.2.2.2.3s.8.3,1.3,1l8.1,11.8-10.2,12.8h3.9l7.9-10.2,6.6,10.2h6l-9.4-14.2,7.9-10h0l.7-.8c.3-.3.7-.5.9-.5.3,0,.2-.3.2-.3h-1.8Z"/>
      </g>
    </g>
  </g>
</svg>