<?xml version="1.0" encoding="UTF-8"?>
<svg id="_レイヤー_1" data-name="レイヤー_1" xmlns="http://www.w3.org/2000/svg" viewBox="0 0 368.9 72.8">
  <defs>
    <style>
      .cls-1 {
        fill: #fff;
      }
    </style>
  </defs>
  <path class="cls-1" d="M45,48.4h-28.4l-11.6,21.9H0L36.5,1.6l19.3,68.7h-4.6l-6.2-21.9ZM43.9,44.4l-8.6-31.6-16.6,31.6h25.2Z"/>
  <path class="cls-1" d="M67.4,3.6l11.4,56.6L110.3,0l15.2,60.2L153.41,3.6h5l-34.2,69.2-15.2-60.6-32.2,60.6L62.8,3.6h4.6Z"/>
  <path class="cls-1" d="M198,48.4h-28.4l-11.6,21.9h-5L189.5,1.6l19.3,68.7h-4.6l-6.2-21.9ZM196.9,44.4l-8.6-31.6-16.6,31.6h25.2Z"/>
  <path class="cls-1" d="M247.2,70.3l-17.7-31.5h-2l-3.9,31.5h-4.4L227.4,3.6h10.4c7.3,0,11.7,2.3,14.1,4.6,3.5,3.4,4.1,7.8,4.1,11.1,0,7-2.6,11.4-5.3,14-4.6,4.4-11.7,5.5-16.4,5.5l17.9,31.5h-5ZM228,34.8h6.4c7.5,0,11.2-2.3,13-4,2.3-2.2,4-6.2,4-10.9,0-2.7-.6-6.3-3.6-9-3.4-3.1-7.9-3.3-11-3.3h-5.5l-3.3,27.2Z"/>
  <path class="cls-1" d="M270.4,70.3h-4.2l8.2-66.7h12.3c6.4,0,16.8.8,24.3,9.3,3.8,4.3,6.9,11,6.9,20.8,0,8.5-2.1,19.3-10.4,27.2-7.6,7.2-17.4,9.4-28.1,9.4h-9ZM271.1,66.3h8.7c13.1,0,19.9-4.3,24.3-8.7,7.6-7.5,9.3-17.5,9.3-24.4,0-8.7-3.4-14.5-6.5-17.8-6.6-7-15.4-7.8-20.9-7.8h-7.7l-7.2,58.7Z"/>
  <path class="cls-1" d="M365.4,14.9c-3-8-10.4-8.2-11.9-8.2-4.8,0-8.1,1.8-10.3,4-3.2,3.2-3.9,6.8-3.9,9.4,0,2.9,1,5.1,2.8,7,2.2,2.4,5,3.5,8,5.2l3.3,1.8c4.1,2.3,7.6,3.8,10.2,6.5,3,3,4,6.2,4,10.1,0,5.8-2.2,11.1-6.2,14.9-5.2,5-11.1,5.8-16.6,5.8-5,0-9.5-1-13.4-4.9-2.5-2.5-4.3-6.1-5.2-9.4l4-1.8c.2.7,1.3,4.9,4.4,8,3.1,3.1,6.9,4.1,10.4,4.1,4.7,0,9.9-1.3,13.2-4.4,2-1.9,4.6-5.5,4.6-11.6,0-3.3-.8-5.7-3.2-8.1s-6.2-4.1-9-5.6l-4.6-2.5c-2.2-1.2-5.6-3.5-7.5-5.5-2.4-2.5-3.8-5.3-3.8-9.4,0-5.9,2.8-9.9,5.1-12.2,3.1-3,7.5-5.4,13.9-5.4s12.5,2.9,15.2,9.5l-3.5,2.7Z"/>
</svg>