<?xml version="1.0" encoding="UTF-8"?>
<svg id="_レイヤー_1" data-name="レイヤー_1" xmlns="http://www.w3.org/2000/svg" viewBox="0 0 342.47 36.87">
  <path d="M2.3,3.55l6.05,27.27L20.83,3.55h2.3L7.63,36.87,0,3.55h2.3Z"/>
  <path d="M41.76,15.99h1.92l-2.4,19.59h-1.92l.38-3.02c-.77,1.06-1.73,1.97-2.88,2.54-1.15.58-2.64,1.01-4.51,1.01-2.26,0-4.42-.53-6.24-2.26-1.2-1.1-2.83-3.31-2.83-7.1,0-3.22,1.1-6.38,3.31-8.5,1.44-1.39,3.7-2.69,7.25-2.69,1.54,0,3.26.29,4.75,1.3,1.15.77,2.11,1.87,2.69,2.98l.48-3.84ZM27.94,19.54c-1.58,1.58-2.64,4.27-2.64,7.06,0,2.5.96,4.61,2.26,5.86,1.63,1.54,3.6,1.82,4.99,1.82,1.82,0,3.26-.43,4.66-1.44,2.88-2.11,3.55-5.76,3.55-7.87,0-2.35-.77-4.37-2.02-5.62-.82-.86-2.45-1.97-5.28-1.97-2.16,0-4.03.67-5.52,2.16Z"/>
  <path d="M50.59,15.99h1.92l-.29,2.54c.38-.72,1.06-1.58,1.87-2.11.77-.53,1.82-.86,2.88-.86.29,0,1.1.05,1.92.48l-1.15,1.73c-.19-.14-.62-.38-1.39-.38-.96,0-1.97.48-2.69,1.25-1.58,1.68-2.02,4.7-2.3,7.1l-1.25,9.84h-1.92l2.4-19.59Z"/>
  <path d="M64.99,15.99l-2.4,19.59h-1.92l2.4-19.59h1.92ZM63.5,10.8c-.19-.19-.38-.53-.38-1.06,0-.67.24-1.2.62-1.54.43-.43.96-.53,1.3-.53.53,0,.91.24,1.1.43.34.34.43.77.43,1.1,0,.53-.14,1.01-.58,1.44-.38.38-.82.58-1.39.58-.62,0-.96-.29-1.1-.43Z"/>
  <path d="M87.74,18.29c1.44,1.44,2.45,3.6,2.45,6.77,0,3.74-1.44,6.48-3.22,8.16-1.58,1.49-4.08,2.88-8.02,2.88-2.64,0-5.04-.72-6.91-2.69-1.54-1.58-2.59-4.03-2.59-6.82,0-3.02,1.25-6.14,3.26-8.11,2.06-1.97,4.99-2.93,7.73-2.93s5.57,1.01,7.3,2.74ZM85.29,32.07c1.39-1.3,2.88-3.5,2.88-6.82s-1.54-4.99-2.06-5.57c-1.2-1.25-3.12-2.3-5.86-2.3-2.5,0-4.51.91-5.95,2.21-1.87,1.68-2.83,4.27-2.83,6.72,0,2.3.86,4.42,2.21,5.81.96,1.01,2.69,2.16,5.57,2.16,2.4,0,4.42-.72,6.05-2.21Z"/>
  <path d="M98.92,15.99l-1.44,11.81c-.29,2.26-.05,4.18,1.2,5.33.86.77,2.16,1.15,3.36,1.15,1.73,0,3.12-.62,3.98-1.54.62-.67,1.39-2.02,1.73-4.94l1.44-11.81h1.92l-1.63,12.34c-.29,2.06-.58,4.13-1.97,5.71-1.68,1.87-4.03,2.06-5.57,2.06s-3.46-.29-4.9-1.78c-1.97-2.06-1.68-4.85-1.49-6.43l1.44-11.91h1.92Z"/>
  <path d="M126.33,19.59c-.19-.58-.58-1.2-1.1-1.58-.14-.1-.86-.62-2.16-.62-1.39,0-2.26.58-2.74,1.06-.53.53-.86,1.34-.86,2.16,0,.58.19,1.25.77,1.87.24.24.77.67,2.02,1.2l1.49.62c1.87.77,2.59,1.44,2.88,1.73,1.06,1.1,1.3,2.45,1.3,3.46,0,2.35-1.06,3.84-1.73,4.56-1.01,1.06-2.74,2.06-5.38,2.06-1.15,0-3.07-.24-4.51-1.68-.86-.86-1.49-2.21-1.73-3.5l1.92-.58c.05.29.24,1.68,1.3,2.74.62.62,1.58,1.2,3.07,1.2s2.74-.43,3.6-1.25c.82-.82,1.39-2.06,1.39-3.31,0-.86-.24-1.68-.91-2.35-.29-.29-.91-.77-2.35-1.39l-1.15-.48c-1.01-.43-2.26-1.2-2.83-1.78-.77-.77-1.15-1.63-1.15-2.83,0-1.49.53-2.69,1.44-3.6,1.25-1.3,2.69-1.73,4.32-1.73.96,0,2.11.14,3.17.86.62.43,1.34,1.15,1.68,2.3l-1.73.86Z"/>
  <path d="M173.04,10.08c-.34-.43-1.92-2.4-4.27-3.65-2.5-1.3-5.23-1.39-5.95-1.39-3.74,0-8.06,1.39-11.38,4.7s-4.8,7.58-4.8,11.52c0,3.55,1.44,6.91,3.7,9.22,2.26,2.3,5.57,3.7,9.12,3.7,2.35,0,4.32-.48,6.19-1.34,2.02-.91,3.65-2.11,5.04-3.5l-.34,2.78c-1.3,1.1-2.98,2.21-4.61,2.88-.91.38-3.07,1.1-6.34,1.1-4.13,0-7.68-1.2-10.66-4.18-2.45-2.45-4.42-6.05-4.42-10.75,0-4.22,1.58-9.07,5.66-12.96,4.37-4.18,9.31-5.09,12.87-5.09s5.86,1.01,6.53,1.3c1.39.67,2.83,1.68,3.98,2.88l-.34,2.78Z"/>
  <path d="M178.03,26.02c-.43,2.54.62,4.99,1.97,6.34.77.77,2.3,1.92,4.94,1.92,1.54,0,3.31-.43,4.66-1.39,1.06-.77,2.02-1.97,2.54-3.07l1.49.96c-.82,1.44-2.11,2.98-3.5,3.89-1.01.67-2.69,1.44-5.23,1.44s-4.75-.67-6.53-2.59c-1.73-1.82-2.45-4.13-2.45-6.67,0-3.65,1.34-6.53,3.26-8.45,1.54-1.54,3.79-2.83,7.01-2.83,2.59,0,4.75.91,6.14,2.26,2.21,2.11,2.64,5.18,2.4,8.21h-16.71ZM192.81,24.19c-.05-2.06-.91-3.89-1.97-4.99-.91-.96-2.4-1.82-4.66-1.82-2.83,0-4.66,1.34-5.62,2.35-.96,1.01-1.87,2.5-2.26,4.46h14.5Z"/>
  <path d="M201.74,15.99h1.92l-.29,2.54c.38-.72,1.06-1.58,1.87-2.11.77-.53,1.82-.86,2.88-.86.29,0,1.1.05,1.92.48l-1.15,1.73c-.19-.14-.62-.38-1.39-.38-.96,0-1.97.48-2.69,1.25-1.58,1.68-2.02,4.7-2.3,7.1l-1.25,9.84h-1.92l2.4-19.59Z"/>
  <path d="M216.04,17.81l-2.16,17.76h-1.92l2.16-17.76h-2.16l.24-1.82h2.16l.86-7.01h1.92l-.86,7.01h3.41l-.24,1.82h-3.41Z"/>
  <path d="M225.45,15.99l-2.4,19.59h-1.92l2.4-19.59h1.92ZM223.96,10.8c-.19-.19-.38-.53-.38-1.06,0-.67.24-1.2.62-1.54.43-.43.96-.53,1.3-.53.53,0,.91.24,1.1.43.34.34.43.77.43,1.1,0,.53-.14,1.01-.58,1.44-.38.38-.82.58-1.39.58-.62,0-.96-.29-1.1-.43Z"/>
  <path d="M234.04,17.81l-2.16,17.76h-1.92l2.16-17.76h-2.21l.24-1.82h2.21l.96-7.82c.24-2.02.58-4.32,2.4-6.14,1.63-1.63,3.6-2.02,5.33-2.02,1.87,0,3.89.53,5.18,1.73,1.39,1.3,1.58,2.93,1.58,4.18,0,.82-.14,2.21-.29,3.07h-1.92c.1-.62.24-1.97.24-2.74,0-.86-.14-2.21-1.2-3.22-.72-.67-1.97-1.2-3.65-1.2-1.97,0-3.26.72-4.03,1.49-1.3,1.34-1.58,3.6-1.73,4.85l-.96,7.82h4.9l-.24,1.82h-4.9ZM246.67,15.99l-2.4,19.59h-1.92l2.4-19.59h1.92Z"/>
  <path d="M268.79,20.59c-.72-.82-1.73-1.68-2.69-2.21-1.06-.58-2.35-1.01-3.89-1.01-3.65,0-5.76,1.78-6.48,2.54-1.82,1.82-2.59,4.51-2.59,6.72,0,1.92.72,4.03,2.02,5.47,1.68,1.82,3.89,2.16,5.52,2.16s2.74-.24,4.03-.91c1.44-.77,2.4-1.73,3.07-2.59l-.34,2.78c-.77.62-1.82,1.34-2.78,1.78-1.58.67-3.31.77-4.08.77-3.36,0-5.47-1.15-6.91-2.59-1.44-1.49-2.54-3.79-2.54-6.86,0-3.55,1.49-6.43,3.26-8.16,1.82-1.78,4.46-2.93,7.78-2.93,2.21,0,3.79.67,4.27.86.91.38,1.87,1.01,2.69,1.63l-.34,2.54Z"/>
  <path d="M290.92,15.99h1.92l-2.4,19.59h-1.92l.38-3.02c-.77,1.06-1.73,1.97-2.88,2.54-1.15.58-2.64,1.01-4.51,1.01-2.26,0-4.42-.53-6.24-2.26-1.2-1.1-2.83-3.31-2.83-7.1,0-3.22,1.1-6.38,3.31-8.5,1.44-1.39,3.7-2.69,7.25-2.69,1.54,0,3.26.29,4.75,1.3,1.15.77,2.11,1.87,2.69,2.98l.48-3.84ZM277.1,19.54c-1.58,1.58-2.64,4.27-2.64,7.06,0,2.5.96,4.61,2.26,5.86,1.63,1.54,3.6,1.82,4.99,1.82,1.82,0,3.26-.43,4.66-1.44,2.88-2.11,3.55-5.76,3.55-7.87,0-2.35-.77-4.37-2.02-5.62-.82-.86-2.45-1.97-5.28-1.97-2.16,0-4.03.67-5.52,2.16Z"/>
  <path d="M301.58,17.81l-2.16,17.76h-1.92l2.16-17.76h-2.16l.24-1.82h2.16l.86-7.01h1.92l-.86,7.01h3.41l-.24,1.82h-3.41Z"/>
  <path d="M308.73,26.02c-.43,2.54.62,4.99,1.97,6.34.77.77,2.3,1.92,4.94,1.92,1.54,0,3.31-.43,4.66-1.39,1.06-.77,2.02-1.97,2.54-3.07l1.49.96c-.82,1.44-2.11,2.98-3.5,3.89-1.01.67-2.69,1.44-5.23,1.44s-4.75-.67-6.53-2.59c-1.73-1.82-2.45-4.13-2.45-6.67,0-3.65,1.34-6.53,3.26-8.45,1.54-1.54,3.79-2.83,7.01-2.83,2.59,0,4.75.91,6.14,2.26,2.21,2.11,2.64,5.18,2.4,8.21h-16.71ZM323.51,24.19c-.05-2.06-.91-3.89-1.97-4.99-.91-.96-2.4-1.82-4.66-1.82-2.83,0-4.66,1.34-5.62,2.35-.96,1.01-1.87,2.5-2.26,4.46h14.5Z"/>
  <path d="M340.74,19.59c-.19-.58-.58-1.2-1.1-1.58-.14-.1-.86-.62-2.16-.62-1.39,0-2.26.58-2.74,1.06-.53.53-.86,1.34-.86,2.16,0,.58.19,1.25.77,1.87.24.24.77.67,2.02,1.2l1.49.62c1.87.77,2.59,1.44,2.88,1.73,1.06,1.1,1.3,2.45,1.3,3.46,0,2.35-1.06,3.84-1.73,4.56-1.01,1.06-2.74,2.06-5.38,2.06-1.15,0-3.07-.24-4.51-1.68-.86-.86-1.49-2.21-1.73-3.5l1.92-.58c.05.29.24,1.68,1.3,2.74.62.62,1.58,1.2,3.07,1.2s2.74-.43,3.6-1.25c.82-.82,1.39-2.06,1.39-3.31,0-.86-.24-1.68-.91-2.35-.29-.29-.91-.77-2.35-1.39l-1.15-.48c-1.01-.43-2.26-1.2-2.83-1.78-.77-.77-1.15-1.63-1.15-2.83,0-1.49.53-2.69,1.44-3.6,1.25-1.3,2.69-1.73,4.32-1.73.96,0,2.11.14,3.17.86.62.43,1.34,1.15,1.68,2.3l-1.73.86Z"/>
</svg>