<?xml version="1.0" encoding="UTF-8"?>
<svg id="_レイヤー_1" data-name="レイヤー_1" xmlns="http://www.w3.org/2000/svg" viewBox="0 0 771.11 75.6">
  <path d="M17.06,4.46l.29-1.01h22.32l-.29,1.01h-7.56L14.18,53.71h16.85c1.87,0,3.62-.54,5.26-1.62,1.63-1.08,3.08-2.35,4.36-3.82,1.27-1.46,2.35-2.93,3.24-4.39.89-1.46,1.55-2.56,1.98-3.28h1.01l-5.04,14.11H0l.29-1.01h7.42L25.34,4.46h-8.28Z"/>
  <path d="M54.94,24.84l.29-1.01h11.45l-8.5,24.41c-.24.72-.48,1.45-.72,2.2-.24.75-.36,1.45-.36,2.12,0,.58.17,1.07.5,1.48.33.41.84.61,1.51.61.77,0,1.52-.26,2.27-.79.74-.53,1.43-1.14,2.05-1.84.62-.7,1.15-1.4,1.58-2.12.43-.72.74-1.3.94-1.73l.86.36c-.19.38-.49.97-.9,1.76-.41.79-.97,1.58-1.69,2.38-.72.79-1.61,1.48-2.66,2.05-1.06.58-2.3.86-3.74.86-1.58,0-2.84-.32-3.78-.97-.94-.65-1.4-1.74-1.4-3.28,0-.82.14-1.72.43-2.7.29-.98.58-1.88.86-2.7l7.42-21.1h-6.41ZM66.78,4.43c.65-.65,1.45-.97,2.41-.97s1.76.32,2.41.97c.65.65.97,1.45.97,2.41s-.32,1.76-.97,2.41c-.65.65-1.45.97-2.41.97s-1.76-.32-2.41-.97c-.65-.65-.97-1.45-.97-2.41s.32-1.76.97-2.41Z"/>
  <path d="M83.66,19.87c.77-2.78,1.85-5.38,3.24-7.78,1.39-2.4,2.98-4.5,4.75-6.3,1.78-1.8,3.7-3.22,5.76-4.25,2.06-1.03,4.13-1.55,6.19-1.55,1.25,0,2.3.18,3.17.54.86.36,1.58.82,2.16,1.37s1,1.15,1.26,1.8c.26.65.4,1.26.4,1.84,0,.82-.23,1.63-.68,2.45-.46.82-1.31,1.22-2.56,1.22-1.06,0-1.81-.2-2.27-.61-.46-.41-.68-.88-.68-1.4,0-.48.1-.9.29-1.26.19-.36.4-.7.61-1.01.22-.31.41-.61.58-.9.17-.29.25-.62.25-1.01,0-.82-.28-1.36-.83-1.62-.55-.26-1.19-.4-1.91-.4-2.16,0-4.06.67-5.69,2.02-1.63,1.34-3.02,2.95-4.18,4.82s-2.09,3.78-2.81,5.72c-.72,1.94-1.25,3.54-1.58,4.79l-1.51,5.47h8.86l-.29,1.01h-8.86l-6.41,24.41c-.82,3.07-1.85,6.05-3.1,8.93s-2.68,5.42-4.28,7.63c-1.61,2.21-3.36,3.97-5.26,5.29-1.9,1.32-3.9,1.98-6.01,1.98-.62,0-1.28-.07-1.98-.22-.7-.14-1.33-.4-1.91-.76-.58-.36-1.06-.84-1.44-1.44-.38-.6-.58-1.38-.58-2.34s.28-1.71.83-2.38c.55-.67,1.4-1.01,2.56-1.01.62,0,1.13.12,1.51.36.38.24.58.74.58,1.51,0,.53-.12,1.07-.36,1.62-.24.55-.36,1.16-.36,1.84,0,.62.21,1.08.61,1.37.41.29.92.43,1.55.43,2.02,0,3.95-1.38,5.8-4.14,1.85-2.76,3.61-7.21,5.29-13.36l7.92-29.74h-6.84l.29-1.01h6.84l1.08-3.96Z"/>
  <path d="M113.25,16.78l-2.59,7.06h7.85l-.29,1.01h-7.85l-8.21,22.9c-.24.72-.48,1.46-.72,2.23-.24.77-.36,1.54-.36,2.3,0,.72.18,1.3.54,1.73.36.43.95.65,1.76.65.86,0,1.68-.26,2.45-.79.77-.53,1.46-1.14,2.09-1.84.62-.7,1.15-1.4,1.58-2.12.43-.72.74-1.3.94-1.73l.86.36c-.19.38-.5.97-.94,1.76s-1.01,1.58-1.73,2.38c-.72.79-1.62,1.48-2.7,2.05s-2.37.86-3.85.86c-1.82,0-3.19-.44-4.1-1.33-.91-.89-1.37-1.96-1.37-3.2,0-.96.18-2.05.54-3.28.36-1.22.73-2.34,1.12-3.35l7.06-19.58h-6.48l.29-1.01h6.48l2.59-7.06h5.04Z"/>
  <path d="M120.24,24.84l.29-1.01h11.45l-8.5,24.41c-.24.72-.48,1.45-.72,2.2-.24.75-.36,1.45-.36,2.12,0,.58.17,1.07.5,1.48.33.41.84.61,1.51.61.77,0,1.52-.26,2.27-.79.74-.53,1.43-1.14,2.05-1.84.62-.7,1.15-1.4,1.58-2.12.43-.72.74-1.3.94-1.73l.86.36c-.19.38-.49.97-.9,1.76-.41.79-.97,1.58-1.69,2.38s-1.61,1.48-2.66,2.05c-1.06.58-2.3.86-3.74.86-1.58,0-2.84-.32-3.78-.97-.94-.65-1.4-1.74-1.4-3.28,0-.82.14-1.72.43-2.7.29-.98.58-1.88.86-2.7l7.42-21.1h-6.41ZM132.08,4.43c.65-.65,1.45-.97,2.41-.97s1.76.32,2.41.97c.65.65.97,1.45.97,2.41s-.32,1.76-.97,2.41-1.45.97-2.41.97-1.76-.32-2.41-.97c-.65-.65-.97-1.45-.97-2.41s.32-1.76.97-2.41Z"/>
  <path d="M140.54,24.84l.29-1.01h11.38l-2.95,8.86h.14c4.66-6.19,9.05-9.29,13.18-9.29,2.02,0,3.61.54,4.79,1.62,1.18,1.08,1.76,2.41,1.76,4,0,.82-.13,1.62-.4,2.41-.26.79-.59,1.74-.97,2.84l-4.68,13.32c-.29.82-.55,1.62-.79,2.41-.24.79-.36,1.57-.36,2.34,0,.58.12,1.1.36,1.58.24.48.74.72,1.51.72.86,0,1.66-.24,2.38-.72.72-.48,1.38-1.06,1.98-1.73.6-.67,1.12-1.38,1.55-2.12.43-.74.77-1.38,1.01-1.91l.79.36c-.24.48-.58,1.12-1.01,1.91-.43.79-1,1.57-1.69,2.34-.7.77-1.55,1.43-2.56,1.98-1.01.55-2.21.83-3.6.83-1.54,0-2.83-.34-3.89-1.01-1.06-.67-1.58-1.78-1.58-3.31,0-.62.08-1.27.25-1.94.17-.67.37-1.39.61-2.16l6.05-17.21c.38-1.15.58-2.11.58-2.88,0-.62-.21-1.22-.61-1.8-.41-.58-1.14-.86-2.2-.86s-2.28.4-3.67,1.19c-1.39.79-2.78,1.87-4.18,3.24-1.39,1.37-2.7,2.98-3.92,4.82-1.22,1.85-2.22,3.85-2.99,6.01l-5.4,15.05h-4.97l10.37-29.88h-6.55Z"/>
  <path d="M199.55,54c1.8,1.2,2.7,3.19,2.7,5.98,0,1.63-.41,3.36-1.22,5.18-.82,1.82-1.99,3.52-3.53,5.08-1.54,1.56-3.42,2.84-5.65,3.85-2.23,1.01-4.79,1.51-7.67,1.51-1.87,0-3.65-.25-5.33-.76-1.68-.5-3.16-1.16-4.43-1.98-1.27-.82-2.27-1.78-2.99-2.88-.72-1.1-1.08-2.23-1.08-3.38s.28-2.23.83-3.24c.55-1.01,1.21-1.93,1.98-2.77.77-.84,1.57-1.56,2.41-2.16.84-.6,1.55-1.07,2.12-1.4l2.02-1.08c-.48-.14-1.02-.31-1.62-.5-.6-.19-1.18-.48-1.73-.86-.55-.38-1.01-.91-1.37-1.58-.36-.67-.54-1.56-.54-2.66,0-1.49.38-2.82,1.15-4,.77-1.18,2.06-2.24,3.89-3.2l2.66-1.44c-.62-.72-1.14-1.5-1.55-2.34-.41-.84-.61-1.93-.61-3.28,0-1.73.46-3.38,1.37-4.97s2.09-2.99,3.53-4.21c1.44-1.22,3.02-2.2,4.75-2.92,1.73-.72,3.41-1.08,5.04-1.08,1.25,0,2.34.14,3.28.43.94.29,1.76.66,2.48,1.12.72.46,1.32.95,1.8,1.48.48.53.86,1.03,1.15,1.51.58-.86,1.27-1.72,2.09-2.56s1.97-1.26,3.46-1.26c1.25,0,2.34.43,3.28,1.3.94.86,1.4,1.92,1.4,3.17,0,.86-.24,1.57-.72,2.12-.48.55-1.27.83-2.38.83-.67,0-1.24-.17-1.69-.5-.46-.33-.68-.77-.68-1.3,0-.43.07-.77.22-1.01.14-.24.31-.46.5-.65.19-.19.36-.42.5-.68.14-.26.22-.64.22-1.12,0-.29-.12-.55-.36-.79-.24-.24-.58-.36-1.01-.36-.77,0-1.52.36-2.27,1.08-.75.72-1.38,1.63-1.91,2.74.29.38.54.95.76,1.69.22.75.32,1.43.32,2.05,0,1.54-.44,3.05-1.33,4.54-.89,1.49-2.04,2.83-3.46,4.03-1.42,1.2-2.96,2.16-4.64,2.88-1.68.72-3.31,1.08-4.9,1.08-2.21,0-3.9-.28-5.08-.83-1.18-.55-2.08-1.02-2.7-1.4l-1.51.72c-1.54.72-2.7,1.52-3.49,2.41-.79.89-1.19,1.76-1.19,2.63,0,1.06.51,1.84,1.55,2.34,1.03.5,2.7.83,5,.97l9.22.43c2.83.14,5.15.82,6.95,2.02ZM176.11,61.31c-.67,1.32-1.01,2.99-1.01,5,0,1.54.25,2.82.76,3.85.5,1.03,1.18,1.88,2.02,2.56.84.67,1.8,1.15,2.88,1.44,1.08.29,2.17.43,3.28.43,2.06,0,4.02-.35,5.87-1.04,1.85-.7,3.48-1.6,4.9-2.7,1.42-1.1,2.53-2.38,3.35-3.82.82-1.44,1.22-2.93,1.22-4.46,0-.77-.13-1.5-.4-2.2-.26-.7-.71-1.32-1.33-1.87-.62-.55-1.46-1.01-2.52-1.37-1.06-.36-2.35-.56-3.89-.61l-10.15-.36-2.02,1.58c-1.3,1.05-2.28,2.24-2.95,3.56ZM186.55,42.44c1.01.84,2.42,1.26,4.25,1.26,1.58,0,2.96-.48,4.14-1.44,1.18-.96,2.15-2.15,2.92-3.56.77-1.42,1.33-2.95,1.69-4.61.36-1.66.54-3.18.54-4.57,0-2.11-.54-3.58-1.62-4.39-1.08-.82-2.41-1.22-4-1.22-1.49,0-2.81.49-3.96,1.48-1.15.98-2.14,2.17-2.95,3.56-.82,1.39-1.44,2.88-1.87,4.46-.43,1.58-.65,3-.65,4.25,0,2.35.5,3.95,1.51,4.79Z"/>
  <path d="M232.77,40.54c-.24.72-.46,1.4-.65,2.05-.19.65-.29,1.38-.29,2.2,0,1.63.38,3.07,1.15,4.32.77,1.25,1.78,2.28,3.02,3.1,1.25.82,2.64,1.44,4.18,1.87,1.54.43,3.1.65,4.68.65,2.11,0,4.01-.3,5.69-.9,1.68-.6,3.1-1.44,4.25-2.52s2.03-2.35,2.63-3.82c.6-1.46.9-3.06.9-4.79s-.4-3.35-1.19-4.72-1.88-2.7-3.28-4l-5.11-4.68c-2.3-2.06-4.12-4.12-5.44-6.16-1.32-2.04-1.98-4.36-1.98-6.95,0-2.02.46-3.86,1.37-5.54.91-1.68,2.13-3.12,3.67-4.32,1.54-1.2,3.3-2.14,5.29-2.81,1.99-.67,4.04-1.01,6.16-1.01,1.49,0,2.79.13,3.92.4,1.13.26,2.16.56,3.1.9.94.34,1.8.64,2.59.9.79.26,1.6.4,2.41.4.72,0,1.27-.17,1.66-.5.38-.33.7-.79.94-1.37l1.08.22-4.97,13.75h-.86c.1-.38.23-.92.4-1.62.17-.7.25-1.57.25-2.63,0-1.73-.29-3.19-.86-4.39-.58-1.2-1.34-2.17-2.3-2.92-.96-.74-2.08-1.28-3.35-1.62-1.27-.33-2.6-.5-4-.5-1.73,0-3.31.24-4.75.72-1.44.48-2.68,1.13-3.71,1.94-1.03.82-1.84,1.8-2.41,2.95-.58,1.15-.86,2.42-.86,3.82,0,2.06.58,3.85,1.73,5.36,1.15,1.51,2.45,2.92,3.89,4.21l6.41,5.76c1.73,1.54,3.2,3.26,4.43,5.18,1.22,1.92,1.84,4.06,1.84,6.41,0,1.83-.42,3.67-1.26,5.54-.84,1.87-2.09,3.56-3.74,5.08-1.66,1.51-3.73,2.75-6.23,3.71-2.5.96-5.4,1.44-8.71,1.44-1.73,0-3.25-.14-4.57-.43s-2.52-.62-3.6-1.01c-1.08-.38-2.09-.72-3.02-1.01-.94-.29-1.86-.43-2.77-.43-.62,0-1.2.23-1.73.68-.53.46-.84.97-.94,1.55l-1.01-.22,5.04-14.26h.94Z"/>
  <path d="M285.62,1.01l.29-1.01h11.38l-12.02,32.62h.14c.72-.96,1.56-1.98,2.52-3.06.96-1.08,2.02-2.08,3.17-2.99,1.15-.91,2.36-1.67,3.64-2.27,1.27-.6,2.56-.9,3.85-.9,2.02,0,3.61.54,4.79,1.62,1.18,1.08,1.76,2.41,1.76,4,0,.82-.13,1.62-.4,2.41-.26.79-.59,1.74-.97,2.84l-4.68,13.32c-.29.82-.55,1.62-.79,2.41-.24.79-.36,1.57-.36,2.34,0,.58.12,1.1.36,1.58.24.48.74.72,1.51.72.86,0,1.66-.24,2.38-.72.72-.48,1.38-1.06,1.98-1.73.6-.67,1.12-1.38,1.55-2.12s.77-1.38,1.01-1.91l.79.36c-.24.48-.58,1.12-1.01,1.91s-1,1.57-1.69,2.34c-.7.77-1.55,1.43-2.56,1.98-1.01.55-2.21.83-3.6.83-1.54,0-2.83-.34-3.89-1.01-1.06-.67-1.58-1.78-1.58-3.31,0-.62.08-1.27.25-1.94.17-.67.37-1.39.61-2.16l6.05-17.21c.38-1.15.58-2.11.58-2.88,0-.62-.21-1.22-.61-1.8-.41-.58-1.14-.86-2.2-.86s-2.28.4-3.67,1.19c-1.39.79-2.79,1.87-4.18,3.24-1.39,1.37-2.7,2.98-3.92,4.82s-2.22,3.85-2.99,6.01l-5.4,15.05h-4.97L292.17,1.01h-6.55Z"/>
  <path d="M313.41,35.32c1.2-2.52,2.72-4.69,4.57-6.52,1.85-1.82,3.9-3.26,6.16-4.32,2.26-1.05,4.42-1.58,6.48-1.58,1.87,0,3.5.38,4.9,1.15,1.39.77,2.54,1.75,3.46,2.95.91,1.2,1.58,2.52,2.02,3.96.43,1.44.65,2.83.65,4.18,0,2.78-.6,5.41-1.8,7.88-1.2,2.47-2.71,4.64-4.54,6.52s-3.85,3.35-6.08,4.43c-2.23,1.08-4.36,1.62-6.37,1.62-1.73,0-3.28-.34-4.64-1.01-1.37-.67-2.54-1.56-3.53-2.66-.98-1.1-1.74-2.39-2.27-3.85-.53-1.46-.79-3.01-.79-4.64,0-2.88.6-5.58,1.8-8.1ZM318.13,52.88c1.18,1.18,2.68,1.76,4.5,1.76,1.49,0,2.88-.43,4.18-1.3s2.47-2,3.53-3.42c1.06-1.42,1.99-2.99,2.81-4.72.82-1.73,1.5-3.46,2.05-5.18.55-1.73.97-3.36,1.26-4.9.29-1.54.43-2.78.43-3.74,0-2.3-.49-4.13-1.48-5.47-.98-1.34-2.7-2.02-5.15-2.02-1.39,0-2.71.41-3.96,1.22-1.25.82-2.39,1.88-3.42,3.2s-1.96,2.82-2.77,4.5c-.82,1.68-1.5,3.4-2.05,5.15-.55,1.75-.97,3.46-1.26,5.11s-.43,3.11-.43,4.36c0,2.45.59,4.26,1.76,5.44Z"/>
  <path d="M363.88,16.78l-2.59,7.06h7.85l-.29,1.01h-7.85l-8.21,22.9c-.24.72-.48,1.46-.72,2.23-.24.77-.36,1.54-.36,2.3,0,.72.18,1.3.54,1.73.36.43.95.65,1.76.65.86,0,1.68-.26,2.45-.79.77-.53,1.46-1.14,2.09-1.84.62-.7,1.15-1.4,1.58-2.12.43-.72.74-1.3.94-1.73l.86.36c-.19.38-.5.97-.94,1.76s-1.01,1.58-1.73,2.38c-.72.79-1.62,1.48-2.7,2.05s-2.37.86-3.85.86c-1.82,0-3.19-.44-4.1-1.33-.91-.89-1.37-1.96-1.37-3.2,0-.96.18-2.05.54-3.28.36-1.22.73-2.34,1.12-3.35l7.06-19.58h-6.48l.29-1.01h6.48l2.59-7.06h5.04Z"/>
  <path d="M387.35,40.54c-.24.72-.46,1.4-.65,2.05-.19.65-.29,1.38-.29,2.2,0,1.63.38,3.07,1.15,4.32.77,1.25,1.78,2.28,3.02,3.1,1.25.82,2.64,1.44,4.18,1.87,1.54.43,3.1.65,4.68.65,2.11,0,4.01-.3,5.69-.9,1.68-.6,3.1-1.44,4.25-2.52s2.03-2.35,2.63-3.82c.6-1.46.9-3.06.9-4.79s-.4-3.35-1.19-4.72-1.88-2.7-3.28-4l-5.11-4.68c-2.3-2.06-4.12-4.12-5.44-6.16-1.32-2.04-1.98-4.36-1.98-6.95,0-2.02.46-3.86,1.37-5.54.91-1.68,2.13-3.12,3.67-4.32,1.54-1.2,3.3-2.14,5.29-2.81,1.99-.67,4.04-1.01,6.16-1.01,1.49,0,2.79.13,3.92.4,1.13.26,2.16.56,3.1.9.94.34,1.8.64,2.59.9.79.26,1.6.4,2.41.4.72,0,1.27-.17,1.66-.5.38-.33.7-.79.94-1.37l1.08.22-4.97,13.75h-.86c.1-.38.23-.92.4-1.62.17-.7.25-1.57.25-2.63,0-1.73-.29-3.19-.86-4.39-.58-1.2-1.34-2.17-2.3-2.92-.96-.74-2.08-1.28-3.35-1.62-1.27-.33-2.6-.5-4-.5-1.73,0-3.31.24-4.75.72-1.44.48-2.68,1.13-3.71,1.94-1.03.82-1.84,1.8-2.41,2.95-.58,1.15-.86,2.42-.86,3.82,0,2.06.58,3.85,1.73,5.36,1.15,1.51,2.45,2.92,3.89,4.21l6.41,5.76c1.73,1.54,3.2,3.26,4.43,5.18,1.22,1.92,1.84,4.06,1.84,6.41,0,1.83-.42,3.67-1.26,5.54-.84,1.87-2.09,3.56-3.74,5.08-1.66,1.51-3.73,2.75-6.23,3.71-2.5.96-5.4,1.44-8.71,1.44-1.73,0-3.25-.14-4.57-.43s-2.52-.62-3.6-1.01c-1.08-.38-2.09-.72-3.02-1.01-.94-.29-1.86-.43-2.77-.43-.62,0-1.2.23-1.73.68-.53.46-.84.97-.94,1.55l-1.01-.22,5.04-14.26h.94Z"/>
  <path d="M450.24,50.44c-.79.94-1.7,1.79-2.74,2.56s-2.22,1.39-3.56,1.87c-1.34.48-2.86.72-4.54.72-1.78,0-3.36-.29-4.75-.86-1.39-.58-2.56-1.36-3.49-2.34-.94-.98-1.66-2.12-2.16-3.42s-.76-2.69-.76-4.18c0-2.45.58-4.96,1.73-7.52,1.15-2.57,2.69-4.92,4.61-7.06,1.92-2.14,4.12-3.89,6.59-5.26,2.47-1.37,5.03-2.05,7.67-2.05.82,0,1.62.1,2.41.29.79.19,1.5.5,2.12.94.62.43,1.14,1.02,1.55,1.76.41.75.61,1.67.61,2.77,0,1.58-.4,2.62-1.19,3.1-.79.48-1.62.72-2.48.72s-1.46-.18-1.8-.54c-.34-.36-.5-.78-.5-1.26,0-.58.09-1.04.29-1.4.19-.36.42-.68.68-.97.26-.29.49-.61.68-.97.19-.36.29-.83.29-1.4,0-.77-.28-1.3-.83-1.58s-1.31-.43-2.27-.43c-1.54,0-2.98.38-4.32,1.15-1.34.77-2.58,1.79-3.71,3.06s-2.12,2.72-2.99,4.36c-.86,1.63-1.61,3.31-2.23,5.04-.62,1.73-1.09,3.43-1.4,5.11-.31,1.68-.47,3.22-.47,4.61,0,2.06.59,3.82,1.76,5.26,1.18,1.44,2.99,2.16,5.44,2.16,1.34,0,2.58-.25,3.71-.76,1.13-.5,2.15-1.14,3.06-1.91.91-.77,1.7-1.59,2.38-2.48.67-.89,1.22-1.69,1.66-2.41l1.01.58c-.58.91-1.26,1.84-2.05,2.77Z"/>
  <path d="M458.63,35.32c1.2-2.52,2.72-4.69,4.57-6.52,1.85-1.82,3.9-3.26,6.16-4.32,2.26-1.05,4.42-1.58,6.48-1.58,1.87,0,3.5.38,4.9,1.15,1.39.77,2.54,1.75,3.46,2.95.91,1.2,1.58,2.52,2.02,3.96.43,1.44.65,2.83.65,4.18,0,2.78-.6,5.41-1.8,7.88-1.2,2.47-2.71,4.64-4.54,6.52s-3.85,3.35-6.08,4.43c-2.23,1.08-4.36,1.62-6.37,1.62-1.73,0-3.28-.34-4.64-1.01-1.37-.67-2.54-1.56-3.53-2.66-.98-1.1-1.74-2.39-2.27-3.85-.53-1.46-.79-3.01-.79-4.64,0-2.88.6-5.58,1.8-8.1ZM463.35,52.88c1.18,1.18,2.68,1.76,4.5,1.76,1.49,0,2.88-.43,4.18-1.3s2.47-2,3.53-3.42c1.06-1.42,1.99-2.99,2.81-4.72.82-1.73,1.5-3.46,2.05-5.18.55-1.73.97-3.36,1.26-4.9.29-1.54.43-2.78.43-3.74,0-2.3-.49-4.13-1.48-5.47-.98-1.34-2.7-2.02-5.15-2.02-1.39,0-2.71.41-3.96,1.22-1.25.82-2.39,1.88-3.42,3.2s-1.96,2.82-2.77,4.5c-.82,1.68-1.5,3.4-2.05,5.15-.55,1.75-.97,3.46-1.26,5.11s-.43,3.11-.43,4.36c0,2.45.59,4.26,1.76,5.44Z"/>
  <path d="M509.1,16.78l-2.59,7.06h7.85l-.29,1.01h-7.85l-8.21,22.9c-.24.72-.48,1.46-.72,2.23-.24.77-.36,1.54-.36,2.3,0,.72.18,1.3.54,1.73.36.43.95.65,1.76.65.86,0,1.68-.26,2.45-.79.77-.53,1.46-1.14,2.09-1.84.62-.7,1.15-1.4,1.58-2.12.43-.72.74-1.3.94-1.73l.86.36c-.19.38-.5.97-.94,1.76s-1.01,1.58-1.73,2.38c-.72.79-1.62,1.48-2.7,2.05s-2.37.86-3.85.86c-1.82,0-3.19-.44-4.1-1.33-.91-.89-1.37-1.96-1.37-3.2,0-.96.18-2.05.54-3.28.36-1.22.73-2.34,1.12-3.35l7.06-19.58h-6.48l.29-1.01h6.48l2.59-7.06h5.04Z"/>
  <path d="M525.45,1.01l.29-1.01h11.38l-12.02,32.62h.14c.72-.96,1.56-1.98,2.52-3.06.96-1.08,2.02-2.08,3.17-2.99,1.15-.91,2.36-1.67,3.64-2.27,1.27-.6,2.56-.9,3.85-.9,2.02,0,3.61.54,4.79,1.62,1.18,1.08,1.76,2.41,1.76,4,0,.82-.13,1.62-.4,2.41-.26.79-.59,1.74-.97,2.84l-4.68,13.32c-.29.82-.55,1.62-.79,2.41-.24.79-.36,1.57-.36,2.34,0,.58.12,1.1.36,1.58.24.48.74.72,1.51.72.86,0,1.66-.24,2.38-.72.72-.48,1.38-1.06,1.98-1.73.6-.67,1.12-1.38,1.55-2.12s.77-1.38,1.01-1.91l.79.36c-.24.48-.58,1.12-1.01,1.91s-1,1.57-1.69,2.34c-.7.77-1.55,1.43-2.56,1.98-1.01.55-2.21.83-3.6.83-1.54,0-2.83-.34-3.89-1.01-1.06-.67-1.58-1.78-1.58-3.31,0-.62.08-1.27.25-1.94.17-.67.37-1.39.61-2.16l6.05-17.21c.38-1.15.58-2.11.58-2.88,0-.62-.21-1.22-.61-1.8-.41-.58-1.14-.86-2.2-.86s-2.28.4-3.67,1.19c-1.39.79-2.79,1.87-4.18,3.24-1.39,1.37-2.7,2.98-3.92,4.82s-2.22,3.85-2.99,6.01l-5.4,15.05h-4.97l19.44-53.71h-6.55Z"/>
  <path d="M554.75,24.84l.29-1.01h11.45l-8.5,24.41c-.24.72-.48,1.45-.72,2.2-.24.75-.36,1.45-.36,2.12,0,.58.17,1.07.5,1.48.33.41.84.61,1.51.61.77,0,1.52-.26,2.27-.79.74-.53,1.43-1.14,2.05-1.84.62-.7,1.15-1.4,1.58-2.12.43-.72.74-1.3.94-1.73l.86.36c-.19.38-.49.97-.9,1.76-.41.79-.97,1.58-1.69,2.38s-1.61,1.48-2.66,2.05c-1.06.58-2.3.86-3.74.86-1.58,0-2.84-.32-3.78-.97-.94-.65-1.4-1.74-1.4-3.28,0-.82.14-1.72.43-2.7.29-.98.58-1.88.86-2.7l7.42-21.1h-6.41ZM566.59,4.43c.65-.65,1.45-.97,2.41-.97s1.76.32,2.41.97c.65.65.97,1.45.97,2.41s-.32,1.76-.97,2.41-1.45.97-2.41.97-1.76-.32-2.41-.97c-.65-.65-.97-1.45-.97-2.41s.32-1.76.97-2.41Z"/>
  <path d="M575.05,24.84l.29-1.01h11.38l-2.95,8.86h.14c4.66-6.19,9.05-9.29,13.18-9.29,2.02,0,3.61.54,4.79,1.62,1.18,1.08,1.76,2.41,1.76,4,0,.82-.13,1.62-.4,2.41-.26.79-.59,1.74-.97,2.84l-4.68,13.32c-.29.82-.55,1.62-.79,2.41-.24.79-.36,1.57-.36,2.34,0,.58.12,1.1.36,1.58.24.48.74.72,1.51.72.86,0,1.66-.24,2.38-.72.72-.48,1.38-1.06,1.98-1.73.6-.67,1.12-1.38,1.55-2.12.43-.74.77-1.38,1.01-1.91l.79.36c-.24.48-.58,1.12-1.01,1.91-.43.79-1,1.57-1.69,2.34-.7.77-1.55,1.43-2.56,1.98-1.01.55-2.21.83-3.6.83-1.54,0-2.83-.34-3.89-1.01-1.06-.67-1.58-1.78-1.58-3.31,0-.62.08-1.27.25-1.94.17-.67.37-1.39.61-2.16l6.05-17.21c.38-1.15.58-2.11.58-2.88,0-.62-.21-1.22-.61-1.8-.41-.58-1.14-.86-2.2-.86s-2.28.4-3.67,1.19c-1.39.79-2.78,1.87-4.18,3.24-1.39,1.37-2.7,2.98-3.92,4.82-1.22,1.85-2.22,3.85-2.99,6.01l-5.4,15.05h-4.97l10.37-29.88h-6.55Z"/>
  <path d="M634.06,54c1.8,1.2,2.7,3.19,2.7,5.98,0,1.63-.41,3.36-1.22,5.18-.82,1.82-1.99,3.52-3.53,5.08-1.54,1.56-3.42,2.84-5.65,3.85-2.23,1.01-4.79,1.51-7.67,1.51-1.87,0-3.65-.25-5.33-.76-1.68-.5-3.16-1.16-4.43-1.98-1.27-.82-2.27-1.78-2.99-2.88-.72-1.1-1.08-2.23-1.08-3.38s.28-2.23.83-3.24c.55-1.01,1.21-1.93,1.98-2.77.77-.84,1.57-1.56,2.41-2.16.84-.6,1.55-1.07,2.12-1.4l2.02-1.08c-.48-.14-1.02-.31-1.62-.5-.6-.19-1.18-.48-1.73-.86-.55-.38-1.01-.91-1.37-1.58-.36-.67-.54-1.56-.54-2.66,0-1.49.38-2.82,1.15-4,.77-1.18,2.06-2.24,3.89-3.2l2.66-1.44c-.62-.72-1.14-1.5-1.55-2.34-.41-.84-.61-1.93-.61-3.28,0-1.73.46-3.38,1.37-4.97s2.09-2.99,3.53-4.21c1.44-1.22,3.02-2.2,4.75-2.92,1.73-.72,3.41-1.08,5.04-1.08,1.25,0,2.34.14,3.28.43.94.29,1.76.66,2.48,1.12.72.46,1.32.95,1.8,1.48.48.53.86,1.03,1.15,1.51.58-.86,1.27-1.72,2.09-2.56s1.97-1.26,3.46-1.26c1.25,0,2.34.43,3.28,1.3.94.86,1.4,1.92,1.4,3.17,0,.86-.24,1.57-.72,2.12-.48.55-1.27.83-2.38.83-.67,0-1.24-.17-1.69-.5-.46-.33-.68-.77-.68-1.3,0-.43.07-.77.22-1.01.14-.24.31-.46.5-.65.19-.19.36-.42.5-.68.14-.26.22-.64.22-1.12,0-.29-.12-.55-.36-.79-.24-.24-.58-.36-1.01-.36-.77,0-1.52.36-2.27,1.08-.75.72-1.38,1.63-1.91,2.74.29.38.54.95.76,1.69.22.75.32,1.43.32,2.05,0,1.54-.44,3.05-1.33,4.54-.89,1.49-2.04,2.83-3.46,4.03-1.42,1.2-2.96,2.16-4.64,2.88-1.68.72-3.31,1.08-4.9,1.08-2.21,0-3.9-.28-5.08-.83-1.18-.55-2.08-1.02-2.7-1.4l-1.51.72c-1.54.72-2.7,1.52-3.49,2.41-.79.89-1.19,1.76-1.19,2.63,0,1.06.51,1.84,1.55,2.34,1.03.5,2.7.83,5,.97l9.22.43c2.83.14,5.15.82,6.95,2.02ZM610.62,61.31c-.67,1.32-1.01,2.99-1.01,5,0,1.54.25,2.82.76,3.85.5,1.03,1.18,1.88,2.02,2.56.84.67,1.8,1.15,2.88,1.44,1.08.29,2.17.43,3.28.43,2.06,0,4.02-.35,5.87-1.04,1.85-.7,3.48-1.6,4.9-2.7,1.42-1.1,2.53-2.38,3.35-3.82.82-1.44,1.22-2.93,1.22-4.46,0-.77-.13-1.5-.4-2.2-.26-.7-.71-1.32-1.33-1.87-.62-.55-1.46-1.01-2.52-1.37-1.06-.36-2.35-.56-3.89-.61l-10.15-.36-2.02,1.58c-1.3,1.05-2.28,2.24-2.95,3.56ZM621.06,42.44c1.01.84,2.42,1.26,4.25,1.26,1.58,0,2.96-.48,4.14-1.44,1.18-.96,2.15-2.15,2.92-3.56.77-1.42,1.33-2.95,1.69-4.61.36-1.66.54-3.18.54-4.57,0-2.11-.54-3.58-1.62-4.39-1.08-.82-2.41-1.22-4-1.22-1.49,0-2.81.49-3.96,1.48-1.15.98-2.14,2.17-2.95,3.56-.82,1.39-1.44,2.88-1.87,4.46-.43,1.58-.65,3-.65,4.25,0,2.35.5,3.95,1.51,4.79Z"/>
  <path d="M699.68,54.72c-.05-.48-.21-.9-.47-1.26-.26-.36-.76-.54-1.48-.54-.48,0-1.06.14-1.73.43-.67.29-1.46.6-2.38.94-.91.34-1.96.65-3.13.94-1.18.29-2.53.43-4.07.43-3.26,0-6.01-.59-8.24-1.76s-4.03-2.71-5.4-4.61c-1.37-1.9-2.35-4.07-2.95-6.52-.6-2.45-.9-4.97-.9-7.56,0-2.93.44-5.76,1.33-8.5.89-2.74,2.09-5.32,3.6-7.74,1.51-2.42,3.28-4.64,5.29-6.66,2.02-2.02,4.14-3.74,6.37-5.18,2.23-1.44,4.5-2.57,6.8-3.38,2.3-.82,4.51-1.22,6.62-1.22,1.58,0,2.98.14,4.18.43,1.2.29,2.27.61,3.2.97.94.36,1.79.68,2.56.97.77.29,1.51.43,2.23.43.77,0,1.39-.2,1.87-.61.48-.41.86-.9,1.15-1.48l1.08.22-4.97,13.9h-.94c.1-.48.19-1.18.29-2.09.1-.91.14-1.85.14-2.81,0-1.54-.29-2.87-.86-4s-1.36-2.05-2.34-2.77c-.98-.72-2.15-1.26-3.49-1.62-1.34-.36-2.78-.54-4.32-.54-2.5,0-4.82.72-6.98,2.16-2.16,1.44-4.14,3.31-5.94,5.62s-3.41,4.91-4.82,7.81-2.62,5.82-3.6,8.75c-.98,2.93-1.73,5.74-2.23,8.42-.5,2.69-.76,4.99-.76,6.91,0,3.89,1.06,6.78,3.17,8.68,2.11,1.9,5.11,2.84,9,2.84,2.83,0,5.08-.67,6.73-2.02s2.82-2.95,3.49-4.82l3.53-10.01h-8.21l.29-1.01h20.52l-.29,1.01h-5.76l-6.05,16.85h-1.15Z"/>
  <path d="M739.5,49.5c-.58.89-1.37,1.78-2.38,2.66-1.01.89-2.24,1.68-3.71,2.38-1.46.7-3.23,1.04-5.29,1.04s-3.8-.34-5.22-1.01c-1.42-.67-2.57-1.54-3.46-2.59-.89-1.05-1.54-2.22-1.94-3.49-.41-1.27-.61-2.51-.61-3.71,0-2.4.59-4.88,1.76-7.45,1.18-2.57,2.71-4.92,4.61-7.06,1.9-2.13,4.04-3.9,6.44-5.29,2.4-1.39,4.85-2.09,7.34-2.09.96,0,1.92.11,2.88.32.96.22,1.82.54,2.59.97.77.43,1.39.98,1.87,1.66.48.67.72,1.49.72,2.45,0,1.3-.35,2.44-1.04,3.42-.7.98-1.6,1.82-2.7,2.52-1.1.7-2.32,1.29-3.64,1.76-1.32.48-2.6.85-3.85,1.12-1.25.26-2.39.46-3.42.58-1.03.12-1.79.18-2.27.18-.82,0-1.61-.02-2.38-.07-.77-.05-1.44-.12-2.02-.22-.53,1.54-.97,3.06-1.33,4.57-.36,1.51-.54,3.11-.54,4.79,0,2.59.67,4.53,2.02,5.8,1.34,1.27,3.05,1.91,5.11,1.91,1.54,0,2.89-.3,4.07-.9,1.18-.6,2.21-1.31,3.1-2.12.89-.82,1.63-1.64,2.23-2.48.6-.84,1.09-1.5,1.48-1.98l.86.5c-.29.34-.72.95-1.3,1.84ZM739.79,24.91c-.58-.67-1.54-1.01-2.88-1.01-1.49,0-2.92.43-4.28,1.3-1.37.86-2.6,1.93-3.71,3.2-1.1,1.27-2.06,2.64-2.88,4.1-.82,1.46-1.44,2.82-1.87,4.07,1.1.19,2.33.29,3.67.29,1.73,0,3.36-.26,4.9-.79,1.54-.53,2.89-1.22,4.07-2.09,1.18-.86,2.11-1.87,2.81-3.02.7-1.15,1.04-2.35,1.04-3.6,0-.96-.29-1.77-.86-2.45Z"/>
  <path d="M753.97,48.24c-.24.72-.48,1.45-.72,2.2-.24.75-.36,1.45-.36,2.12,0,.58.17,1.07.5,1.48.33.41.84.61,1.51.61.77,0,1.52-.26,2.27-.79.74-.53,1.43-1.14,2.05-1.84.62-.7,1.15-1.4,1.58-2.12.43-.72.74-1.3.94-1.73l.86.36c-.19.38-.49.97-.9,1.76-.41.79-.97,1.58-1.69,2.38-.72.79-1.61,1.48-2.66,2.05-1.06.58-2.3.86-3.74.86-1.58,0-2.84-.32-3.78-.97-.94-.65-1.4-1.74-1.4-3.28,0-.82.14-1.72.43-2.7.29-.98.58-1.88.86-2.7l16.06-44.93h-6.41l.29-1.01h11.45l-17.14,48.24Z"/>
</svg>