<?xml version="1.0" encoding="UTF-8"?>
<svg id="_レイヤー_1" data-name="レイヤー_1" xmlns="http://www.w3.org/2000/svg" viewBox="0 0 83.98 24.4">
  <path d="M2.99,12.6l-1.4,11.41H0L2.95,0h4.64c1.15,0,3.35.14,4.86,1.69.72.72,1.48,1.98,1.48,4.03s-.72,3.78-1.76,4.86c-.94.97-2.7,2.02-6.08,2.02h-3.1ZM3.17,11.16h3.17c1.37,0,3.13-.18,4.43-1.4.76-.72,1.44-1.94,1.44-3.96,0-.9-.14-1.98-1.04-2.95-1.3-1.4-2.88-1.4-4.25-1.4h-2.56l-1.19,9.72Z"/>
  <path d="M29.16,11.05c1.08,1.08,1.84,2.7,1.84,5.08,0,2.81-1.08,4.86-2.41,6.12-1.19,1.12-3.06,2.16-6.01,2.16-1.98,0-3.78-.54-5.18-2.02-1.15-1.19-1.94-3.02-1.94-5.11,0-2.27.94-4.61,2.45-6.08,1.55-1.48,3.74-2.2,5.8-2.2s4.17.76,5.47,2.05ZM27.32,21.38c1.04-.97,2.16-2.63,2.16-5.11s-1.15-3.74-1.55-4.17c-.9-.94-2.34-1.73-4.39-1.73-1.87,0-3.38.68-4.46,1.66-1.4,1.26-2.12,3.2-2.12,5.04,0,1.73.65,3.31,1.66,4.36.72.76,2.02,1.62,4.17,1.62,1.8,0,3.31-.54,4.54-1.66Z"/>
  <path d="M37.58,9.32l-1.8,14.69h-1.44l1.8-14.69h1.44ZM36.47,5.44c-.14-.14-.29-.4-.29-.79,0-.5.18-.9.47-1.15.32-.32.72-.4.97-.4.4,0,.68.18.83.32.25.25.32.58.32.83,0,.4-.11.76-.43,1.08-.29.29-.61.43-1.04.43-.47,0-.72-.22-.83-.32Z"/>
  <path d="M42.77,9.32h1.44l-.29,2.3c.5-.94,1.19-1.51,1.69-1.83.86-.58,1.8-.79,2.92-.79,1.69,0,2.74.58,3.31,1.15.54.54,1.12,1.4,1.12,2.92,0,.72-.18,2.2-.22,2.59l-1.04,8.35h-1.44l1.04-8.57c.11-1.01.18-1.51.18-1.94,0-.68-.14-1.55-.79-2.23-.4-.43-1.19-.9-2.48-.9-1.08,0-2.12.29-3.02,1.15-1.08,1.04-1.55,2.63-1.83,4.86l-.94,7.63h-1.44l1.8-14.69Z"/>
  <path d="M60.05,10.69l-1.62,13.32h-1.44l1.62-13.32h-1.62l.18-1.37h1.62l.65-5.25h1.44l-.65,5.25h2.56l-.18,1.37h-2.56Z"/>
  <path d="M82.22,1.44h-3.74l.9-1.44h4.61l-2.95,24.01h-1.58l2.77-22.57Z"/>
</svg>