<?xml version="1.0" encoding="UTF-8"?>
<svg id="_レイヤー_1" data-name="レイヤー_1" xmlns="http://www.w3.org/2000/svg" viewBox="0 0 771.41 242.46">
  <defs>
    <style>
      .cls-1 {
        fill: #fff;
      }
    </style>
  </defs>
  <g>
    <path class="cls-1" d="M17,2.99l-5.75,46.82h-3.29L13.71,2.99H.8l.37-2.99h29.12l-.37,2.99h-12.92Z"/>
    <path class="cls-1" d="M38.73,21.13h30.17l2.61-21.13h3.29l-6.12,49.81h-3.29l3.14-25.69h-30.17l-3.14,25.69h-3.29L38.06,0h3.29l-2.61,21.13Z"/>
    <path class="cls-1" d="M111.76,2.99h-20.61l-2.24,18.07h20.16l-.37,2.99h-20.16l-2.76,22.78h20.61l-.37,2.99h-23.9L88.24,0h23.9l-.37,2.99Z"/>
  </g>
  <g>
    <path class="cls-1" d="M22.58,195.1h17.52v-107.99h-9.16c-2.11,0-4.47.18-7.1.55-2.63.37-5.29,1.4-7.97,3.08-2.68,1.69-5.26,4.34-7.74,7.97-2.47,3.63-4.61,8.66-6.39,15.08H0v-28.89h95.99v28.89h-1.74c-1.79-6.42-3.92-11.45-6.39-15.08-2.47-3.63-5.05-6.29-7.74-7.97-2.68-1.68-5.34-2.71-7.97-3.08-2.63-.37-5-.55-7.11-.55h-9.16v107.99h17.53v2.21H22.58v-2.21Z"/>
    <path class="cls-1" d="M102.94,158.15c0,1.05-.03,2.13-.08,3.24-.05,1.11-.08,2.5-.08,4.18,0,3.47.21,7.1.63,10.89.42,3.79,1.34,7.21,2.76,10.26,1.42,3.05,3.53,5.58,6.32,7.58,2.79,2,6.5,3,11.13,3s8.45-.68,11.45-2.05c3-1.37,5.37-3.02,7.11-4.97,1.74-1.95,3.02-3.92,3.87-5.92.84-2,1.47-3.63,1.89-4.89l2.37.47c-.32,1.16-.92,2.82-1.82,4.97-.9,2.16-2.32,4.32-4.26,6.47-1.95,2.16-4.58,4.05-7.89,5.68-3.32,1.63-7.61,2.45-12.87,2.45s-10.13-.84-14.6-2.53c-4.48-1.68-8.34-4.11-11.6-7.26-3.26-3.16-5.79-6.92-7.58-11.29-1.79-4.37-2.68-9.24-2.68-14.6,0-4.63.92-9.13,2.76-13.5,1.84-4.37,4.37-8.23,7.58-11.6,3.21-3.37,6.97-6.08,11.29-8.13,4.31-2.05,8.95-3.08,13.89-3.08,2.95,0,6.1.53,9.47,1.58,3.37,1.05,6.5,2.76,9.39,5.13,2.89,2.37,5.31,5.5,7.26,9.39,1.95,3.9,2.92,8.74,2.92,14.53h-48.63ZM135.46,155.94c.21-1.47.32-2.84.32-4.11v-3.95c0-3.58-.34-6.52-1.03-8.84-.69-2.31-1.63-4.16-2.84-5.53-1.21-1.37-2.68-2.34-4.42-2.92-1.74-.58-3.61-.87-5.6-.87-3.58,0-6.53.71-8.84,2.13-2.32,1.42-4.16,3.34-5.53,5.76-1.37,2.42-2.4,5.21-3.08,8.37-.69,3.16-1.13,6.47-1.34,9.95h32.37Z"/>
    <path class="cls-1" d="M222.93,179.94c-.32,1.16-.92,2.82-1.82,4.97-.9,2.16-2.32,4.32-4.26,6.47-1.95,2.16-4.58,4.05-7.89,5.68-3.32,1.63-7.61,2.45-12.87,2.45-4,0-8.16-.63-12.47-1.89-4.32-1.26-8.26-3.29-11.84-6.08-3.58-2.79-6.5-6.45-8.76-10.97-2.26-4.52-3.39-10.11-3.39-16.74,0-5.16.97-9.95,2.92-14.37,1.95-4.42,4.58-8.26,7.89-11.53,3.32-3.26,7.21-5.81,11.68-7.66,4.47-1.84,9.24-2.76,14.29-2.76,2.84,0,5.76.34,8.76,1.03,3,.69,5.74,1.74,8.21,3.16,2.47,1.42,4.52,3.26,6.16,5.53,1.63,2.26,2.45,5.03,2.45,8.29,0,2.21-.71,4.03-2.13,5.45s-3.45,2.13-6.08,2.13c-1.79,0-3.5-.39-5.13-1.18-1.63-.79-2.45-2.13-2.45-4.03,0-1.47.37-3.26,1.11-5.37.74-2.1,1.11-3.84,1.11-5.21,0-2.42-1.21-4.29-3.63-5.6-2.42-1.32-5.21-1.97-8.37-1.97-2.32,0-4.71.29-7.18.87-2.47.58-4.74,2.03-6.79,4.34-2.05,2.32-3.74,5.79-5.05,10.42-1.32,4.63-1.97,10.95-1.97,18.95,0,4.53.29,8.79.87,12.79.58,4,1.63,7.5,3.16,10.5,1.52,3,3.63,5.37,6.32,7.1,2.68,1.74,6.18,2.61,10.5,2.61,4.63,0,8.45-.68,11.45-2.05,3-1.37,5.37-3.02,7.11-4.97,1.74-1.95,3.02-3.92,3.87-5.92.84-2,1.47-3.63,1.89-4.89l2.37.47Z"/>
    <path class="cls-1" d="M226.08,195.1h12.16v-109.41h-12.16v-2.21h25.73v62.05h.32c.53-1.37,1.42-3.08,2.68-5.13,1.26-2.05,2.97-4,5.13-5.84,2.16-1.84,4.79-3.42,7.89-4.74,3.1-1.32,6.81-1.97,11.13-1.97,6.95,0,12.6,1.68,16.97,5.05,4.37,3.37,6.55,8.74,6.55,16.1v46.1h12.16v2.21h-37.89v-2.21h12.16v-51c0-4.11-.97-7.47-2.92-10.1-1.95-2.63-4.97-3.95-9.08-3.95-3.37,0-6.58.74-9.63,2.21-3.05,1.48-5.74,3.53-8.05,6.16-2.32,2.63-4.13,5.74-5.45,9.32-1.32,3.58-1.97,7.47-1.97,11.68v35.68h12.16v2.21h-37.89v-2.21Z"/>
    <path class="cls-1" d="M316.23,195.1h12.16v-63.31h-12.16v-2.21h25.42v16.89h.32c.63-1.37,1.55-3.1,2.76-5.21,1.21-2.1,2.87-4.16,4.97-6.16,2.1-2,4.74-3.71,7.89-5.13,3.16-1.42,7-2.13,11.53-2.13,6.95,0,12.6,1.68,16.97,5.05,4.37,3.37,6.55,8.74,6.55,16.1v46.1h12.16v2.21h-37.89v-2.21h12.16v-51c0-4.11-.97-7.47-2.92-10.1-1.95-2.63-4.97-3.95-9.08-3.95-3.37,0-6.58.74-9.63,2.21-3.05,1.48-5.74,3.53-8.05,6.16-2.32,2.63-4.13,5.74-5.45,9.32-1.32,3.58-1.97,7.47-1.97,11.68v35.68h12.16v2.21h-37.89v-2.21Z"/>
    <path class="cls-1" d="M409.54,163.52c0-5.16,1.13-9.95,3.39-14.37,2.26-4.42,5.16-8.24,8.68-11.45,3.53-3.21,7.47-5.71,11.84-7.5,4.37-1.79,8.66-2.68,12.87-2.68s8.5.9,12.87,2.68c4.37,1.79,8.31,4.29,11.84,7.5,3.53,3.21,6.42,7.03,8.68,11.45,2.26,4.42,3.39,9.21,3.39,14.37s-1.05,9.61-3.16,13.97c-2.11,4.37-4.87,8.19-8.29,11.45-3.42,3.26-7.34,5.84-11.76,7.74-4.42,1.89-8.95,2.84-13.58,2.84s-9.16-.95-13.58-2.84-8.34-4.47-11.76-7.74c-3.42-3.26-6.18-7.08-8.29-11.45-2.11-4.37-3.16-9.02-3.16-13.97ZM425.33,163.52c0,7.47.58,13.42,1.74,17.84,1.16,4.42,2.68,7.82,4.58,10.18s4.11,3.92,6.63,4.66c2.53.74,5.21,1.11,8.05,1.11s5.53-.37,8.05-1.11c2.53-.74,4.74-2.29,6.63-4.66s3.42-5.76,4.58-10.18c1.16-4.42,1.74-10.37,1.74-17.84,0-6.32-.42-11.6-1.26-15.87-.84-4.26-2.13-7.74-3.87-10.42-1.74-2.68-3.92-4.6-6.55-5.76-2.63-1.16-5.74-1.74-9.31-1.74s-6.69.58-9.32,1.74c-2.63,1.16-4.82,3.08-6.55,5.76-1.74,2.68-3.03,6.16-3.87,10.42-.84,4.26-1.26,9.55-1.26,15.87Z"/>
    <path class="cls-1" d="M488.33,195.1h12.16v-109.41h-12.16v-2.21h25.73v111.63h12.16v2.21h-37.89v-2.21Z"/>
    <path class="cls-1" d="M531.42,163.52c0-5.16,1.13-9.95,3.39-14.37,2.26-4.42,5.16-8.24,8.68-11.45,3.53-3.21,7.47-5.71,11.84-7.5,4.37-1.79,8.66-2.68,12.87-2.68s8.5.9,12.87,2.68c4.37,1.79,8.31,4.29,11.84,7.5,3.53,3.21,6.42,7.03,8.68,11.45,2.26,4.42,3.39,9.21,3.39,14.37s-1.05,9.61-3.16,13.97c-2.11,4.37-4.87,8.19-8.29,11.45-3.42,3.26-7.34,5.84-11.76,7.74-4.42,1.89-8.95,2.84-13.58,2.84s-9.16-.95-13.58-2.84-8.34-4.47-11.76-7.74c-3.42-3.26-6.18-7.08-8.29-11.45-2.11-4.37-3.16-9.02-3.16-13.97ZM547.21,163.52c0,7.47.58,13.42,1.74,17.84,1.16,4.42,2.68,7.82,4.58,10.18s4.11,3.92,6.63,4.66c2.53.74,5.21,1.11,8.05,1.11s5.53-.37,8.05-1.11c2.53-.74,4.74-2.29,6.63-4.66s3.42-5.76,4.58-10.18c1.16-4.42,1.74-10.37,1.74-17.84,0-6.32-.42-11.6-1.26-15.87-.84-4.26-2.13-7.74-3.87-10.42-1.74-2.68-3.92-4.6-6.55-5.76-2.63-1.16-5.74-1.74-9.31-1.74s-6.69.58-9.32,1.74c-2.63,1.16-4.82,3.08-6.55,5.76-1.74,2.68-3.03,6.16-3.87,10.42-.84,4.26-1.26,9.55-1.26,15.87Z"/>
    <path class="cls-1" d="M612.74,187.04c0-2.84.53-5.29,1.58-7.34,1.05-2.05,2.34-3.84,3.87-5.37,1.52-1.52,3.16-2.76,4.89-3.71s3.29-1.74,4.66-2.37c-6.11-4.21-9.16-9.89-9.16-17.05,0-3.68.89-7,2.68-9.95,1.79-2.95,4.05-5.45,6.79-7.5,2.74-2.05,5.76-3.6,9.08-4.66,3.32-1.05,6.5-1.58,9.55-1.58,4.74,0,8.81.95,12.24,2.84,3.42,1.89,5.92,3.63,7.5,5.21,1.16-2,2.87-3.84,5.13-5.53,2.26-1.68,5.08-2.53,8.45-2.53,2.1,0,4.05.45,5.84,1.34,1.79.9,2.68,2.82,2.68,5.76,0,1.89-.61,3.32-1.82,4.26-1.21.95-2.45,1.42-3.71,1.42-1.48,0-2.53-.42-3.16-1.26-.63-.84-1.18-1.74-1.66-2.68s-.97-1.84-1.5-2.68c-.53-.84-1.32-1.26-2.37-1.26s-2.13.45-3.24,1.34c-1.1.9-2.08,1.92-2.92,3.08.95,1.05,2.16,2.84,3.63,5.37,1.47,2.53,2.21,5.68,2.21,9.47,0,3.16-.79,6.05-2.37,8.68-1.58,2.63-3.66,4.95-6.24,6.95-2.58,2-5.58,3.55-9,4.66-3.42,1.11-6.92,1.66-10.5,1.66s-6.9-.5-9.63-1.5c-2.74-1-4.84-1.87-6.32-2.61-1.16.53-2.4,1.11-3.71,1.74-1.32.63-2.53,1.42-3.63,2.37s-2.03,2.08-2.76,3.39c-.74,1.32-1.11,2.82-1.11,4.5,0,1.58.32,2.9.95,3.95.63,1.05,1.45,1.84,2.45,2.37,1,.53,2.13.9,3.39,1.1,1.26.21,2.58.32,3.95.32h24.95c7.37,0,13.24,1.76,17.6,5.29,4.37,3.53,6.55,9.08,6.55,16.66,0,4.63-1,8.84-3,12.63-2,3.79-4.66,7.08-7.97,9.87-3.32,2.79-7.13,4.95-11.45,6.47-4.32,1.53-8.74,2.29-13.26,2.29-4.11,0-7.87-.47-11.29-1.42-3.42-.95-6.39-2.24-8.92-3.87-2.53-1.63-4.5-3.61-5.92-5.92-1.42-2.32-2.13-4.89-2.13-7.74s.55-5.24,1.66-7.5c1.11-2.26,2.53-4.26,4.26-6s3.71-3.24,5.92-4.5,4.42-2.32,6.63-3.16v-.32c-6.95,0-12.08-1.13-15.39-3.39-3.32-2.26-4.97-6.13-4.97-11.6ZM636.42,202.04c-1.37.84-2.76,1.71-4.18,2.61-1.42.89-2.68,2.03-3.79,3.39-1.11,1.37-2,2.97-2.68,4.82-.69,1.84-1.03,4.13-1.03,6.87,0,3.79.66,6.92,1.97,9.39,1.31,2.47,3,4.47,5.05,6,2.05,1.52,4.34,2.6,6.87,3.24s5,.95,7.42.95c3.79,0,7.24-.58,10.34-1.74,3.1-1.16,5.79-2.71,8.05-4.66,2.26-1.95,4-4.18,5.21-6.71,1.21-2.53,1.82-5.16,1.82-7.89,0-5.9-1.61-10.08-4.82-12.55-3.21-2.47-7.61-3.71-13.18-3.71h-17.05ZM661.99,150.73c0-2.42-.16-4.87-.47-7.34-.32-2.47-.97-4.74-1.97-6.79-1-2.05-2.53-3.71-4.58-4.97-2.05-1.26-4.82-1.89-8.29-1.89-5.37,0-9.42,1.63-12.16,4.89-2.74,3.26-4.1,8.63-4.1,16.1,0,3.16.24,6,.71,8.53.47,2.53,1.34,4.71,2.61,6.55,1.26,1.84,2.95,3.24,5.05,4.18,2.1.95,4.79,1.42,8.05,1.42,5.47,0,9.37-1.71,11.68-5.13,2.31-3.42,3.47-8.6,3.47-15.55Z"/>
    <path class="cls-1" d="M693.25,129.57h38.68v2.21h-13.26l20.37,49.58,21.31-49.58h-13.1v-2.21h24.16v2.21h-8.53l-26.05,60.94c-2,4.53-3.9,9.08-5.68,13.66-1.79,4.58-3.58,9.18-5.37,13.82-1.48,3.79-2.95,7.1-4.42,9.95-1.47,2.84-3.03,5.16-4.66,6.95-1.63,1.79-3.39,3.13-5.29,4.03-1.89.89-4.11,1.34-6.63,1.34-3.05,0-5.5-.47-7.34-1.42-1.84-.95-3.29-2.05-4.34-3.32-1.05-1.26-1.74-2.58-2.05-3.95-.32-1.37-.47-2.53-.47-3.47,0-2.63.74-4.61,2.21-5.92,1.47-1.32,3.26-1.97,5.37-1.97.74,0,1.53.08,2.37.24.84.16,1.63.45,2.37.87.73.42,1.37,1,1.89,1.74.53.74.79,1.63.79,2.68,0,1.47-.45,2.87-1.34,4.18-.9,1.31-1.34,2.76-1.34,4.34,0,1.37.37,2.26,1.1,2.68.74.42,1.74.63,3,.63,1.68,0,3.24-.39,4.66-1.18,1.42-.79,2.82-2.08,4.18-3.87,1.37-1.79,2.74-4.13,4.1-7.03,1.37-2.9,2.89-6.45,4.58-10.66l6.95-17.68-27.31-67.58h-10.89v-2.21Z"/>
  </g>
</svg>