<?xml version="1.0" encoding="UTF-8"?>
<svg id="_レイヤー_1" data-name="レイヤー_1" xmlns="http://www.w3.org/2000/svg" viewBox="0 0 321.09 108.38">
  <defs>
    <style>
      .cls-1 {
        stroke: #fff;
        stroke-miterlimit: 10;
        stroke-width: 3.6px;
      }

      .cls-1, .cls-2 {
        fill: #f58f70;
      }
    </style>
  </defs>
  <g>
    <path class="cls-1" d="M257.07,4.08l-1.07,4.63-72.57,97.87h-9.37L242.52,15.7h-27.75c-4.13,0-7.37.05-9.72.14-2.35.1-4.59.55-6.73,1.35-1.61.62-3.26,2.21-4.95,4.78-1.69,2.57-3.34,5.92-4.95,10.05h-4.71l6.41-27.94h66.96Z"/>
    <path class="cls-1" d="M319.29,24.11c0,5.23-1.28,9.63-3.85,13.22s-6.06,6.64-10.48,9.16c-3.33,1.9-7.19,3.58-11.58,5.03-4.4,1.45-9.23,2.96-14.51,4.53-4.52,1.33-8.88,2.98-13.08,4.95-4.21,1.97-7.66,4.36-10.37,7.16h56.81l-2.92,12.4h-66.79l2.35-9.69c1.43-1.9,3.14-3.75,5.13-5.56,2-1.81,4.35-3.56,7.06-5.28,2.38-1.47,5.03-2.92,7.95-4.35s6.09-2.8,9.52-4.13c4.42-1.71,8.28-3.39,11.58-5.03,3.3-1.64,6.09-3.31,8.38-5.03,3.47-2.57,5.93-5.36,7.38-8.38,1.45-3.02,2.17-6.54,2.17-10.58,0-4.7-1.28-8.42-3.85-11.16-2.57-2.73-5.89-4.1-9.98-4.1s-7.29.69-10.05,2.07c-2.76,1.38-4.68,2.85-5.77,4.42,0,.57.04,1.38.11,2.42.07,1.05.11,2.31.11,3.78,0,4.28-.83,7.47-2.49,9.59-1.66,2.11-4.33,3.17-7.98,3.17-2.61,0-4.43-.61-5.45-1.82-1.02-1.21-1.53-2.7-1.53-4.46,0-2.8.87-5.64,2.6-8.52,1.73-2.87,4.19-5.55,7.38-8.02,3.09-2.42,6.79-4.38,11.12-5.88,4.32-1.5,9-2.25,14.04-2.25,8.08,0,14.6,2,19.57,5.99,4.96,3.99,7.45,9.43,7.45,16.32Z"/>
  </g>
  <g>
    <path class="cls-2" d="M20.58,21.59c-2.2,0-4.21.62-6.03,1.85-1.82,1.23-3.43,2.67-4.82,4.3-1.39,1.64-2.56,3.27-3.5,4.9-.94,1.64-1.65,2.85-2.13,3.66h-1.12l5.63-15.84h48.47l-5.63,15.84h-1.12c.27-1.07.46-2.25.56-3.54s.16-2.57.16-3.86c0-2.04-.55-3.76-1.65-5.19-1.1-1.42-3.02-2.13-5.75-2.13h-7.96l-19.7,54.99h9.17l-.32,1.12H0l.32-1.12h8.44L28.46,21.59h-7.88Z"/>
    <path class="cls-2" d="M54.18,44.34l.32-1.12h12.78l-9.49,27.25c-.27.8-.54,1.62-.8,2.45-.27.83-.4,1.62-.4,2.37,0,.64.19,1.19.56,1.65.37.46.94.68,1.69.68.86,0,1.7-.29,2.53-.88.83-.59,1.59-1.27,2.29-2.05.7-.78,1.29-1.57,1.77-2.37s.83-1.45,1.04-1.93l.96.4c-.21.43-.55,1.08-1.01,1.97-.46.88-1.08,1.77-1.89,2.65-.8.88-1.8,1.65-2.97,2.29-1.18.64-2.57.96-4.18.96-1.77,0-3.18-.36-4.22-1.08-1.04-.72-1.57-1.94-1.57-3.66,0-.91.16-1.92.48-3.01.32-1.1.64-2.1.96-3.01l8.28-23.55h-7.16ZM67.4,21.55c.72-.72,1.62-1.08,2.69-1.08s1.97.36,2.69,1.08c.72.72,1.08,1.62,1.08,2.69s-.36,1.97-1.08,2.69c-.72.72-1.62,1.08-2.69,1.08s-1.97-.36-2.69-1.08c-.72-.72-1.08-1.62-1.08-2.69s.36-1.97,1.08-2.69Z"/>
    <path class="cls-2" d="M76.61,44.34l.32-1.12h12.7l-3.06,9.16h.16c.64-.91,1.46-1.93,2.45-3.05.99-1.12,2.1-2.17,3.34-3.13,1.23-.96,2.54-1.78,3.94-2.45,1.39-.67,2.79-1,4.18-1,2.04,0,3.6.6,4.7,1.81,1.1,1.21,1.65,2.69,1.65,4.46,0,.96-.13,1.98-.4,3.05h.16c.54-.8,1.26-1.74,2.17-2.81.91-1.07,1.94-2.09,3.09-3.05,1.15-.96,2.4-1.78,3.74-2.45,1.34-.67,2.68-1,4.02-1,2.25,0,4.03.6,5.35,1.81,1.31,1.21,1.97,2.69,1.97,4.46,0,.91-.15,1.81-.44,2.69-.29.88-.66,1.94-1.09,3.18l-5.22,14.87c-.32.91-.62,1.88-.88,2.89-.27,1.02-.4,1.93-.4,2.73,0,.48.13.98.4,1.49.27.51.83.76,1.69.76.96,0,1.85-.27,2.65-.8.8-.54,1.53-1.18,2.17-1.93.64-.75,1.21-1.54,1.69-2.37.48-.83.88-1.54,1.21-2.13l.88.4c-.27.54-.64,1.25-1.13,2.13-.48.88-1.11,1.76-1.89,2.61-.78.86-1.73,1.6-2.85,2.21s-2.47.92-4.02.92c-1.72,0-3.16-.38-4.34-1.13-1.18-.75-1.77-1.98-1.77-3.7,0-.7.05-1.37.16-2.01.11-.64.38-1.5.8-2.57l6.75-19.21c.43-1.29.64-2.36.64-3.22,0-.91-.21-1.63-.64-2.17-.43-.54-1.26-.8-2.49-.8-1.12,0-2.4.46-3.82,1.37-1.42.91-2.84,2.14-4.26,3.7-1.42,1.56-2.77,3.36-4.06,5.43-1.29,2.06-2.36,4.25-3.21,6.55l-6.03,16.8h-5.63l9.41-25.96c.75-2.25,1.13-3.8,1.13-4.66,0-.96-.19-1.74-.56-2.33-.38-.59-1.05-.88-2.01-.88s-2.16.36-3.58,1.09-2.88,1.8-4.38,3.21c-1.5,1.42-2.96,3.19-4.38,5.31-1.42,2.12-2.64,4.6-3.66,7.44l-6.03,16.8h-5.55l11.58-33.36h-7.31Z"/>
    <path class="cls-2" d="M159.25,71.87c-.64.99-1.53,1.98-2.65,2.97-1.12.99-2.51,1.88-4.14,2.65s-3.6,1.17-5.91,1.17-4.25-.38-5.83-1.13c-1.58-.75-2.87-1.71-3.86-2.89-.99-1.18-1.72-2.48-2.17-3.9s-.68-2.8-.68-4.14c0-2.68.66-5.45,1.97-8.32,1.31-2.87,3.03-5.49,5.14-7.88,2.12-2.38,4.51-4.35,7.19-5.91,2.68-1.55,5.41-2.33,8.2-2.33,1.07,0,2.14.12,3.21.36,1.07.24,2.04.6,2.89,1.09.86.48,1.55,1.1,2.09,1.85.54.75.8,1.66.8,2.73,0,1.45-.39,2.72-1.17,3.82-.78,1.1-1.78,2.04-3.02,2.81-1.23.78-2.59,1.43-4.06,1.97-1.47.54-2.91.95-4.3,1.25-1.39.3-2.67.51-3.82.64-1.15.13-2,.2-2.53.2-.91,0-1.8-.03-2.65-.08-.86-.05-1.61-.13-2.25-.24-.59,1.71-1.08,3.42-1.49,5.1-.4,1.69-.6,3.47-.6,5.35,0,2.89.75,5.05,2.25,6.47,1.5,1.42,3.4,2.13,5.71,2.13,1.71,0,3.23-.33,4.54-1,1.31-.67,2.46-1.46,3.46-2.37.99-.91,1.82-1.83,2.49-2.77.67-.94,1.22-1.67,1.65-2.21l.96.56c-.32.38-.8,1.06-1.45,2.05ZM159.57,44.42c-.64-.75-1.72-1.13-3.22-1.13-1.66,0-3.26.48-4.78,1.45s-2.91,2.16-4.14,3.58c-1.23,1.42-2.3,2.95-3.22,4.58-.91,1.64-1.61,3.15-2.09,4.54,1.23.21,2.6.32,4.1.32,1.93,0,3.75-.29,5.47-.88,1.71-.59,3.23-1.37,4.54-2.33,1.31-.96,2.36-2.09,3.13-3.38.78-1.29,1.17-2.62,1.17-4.02,0-1.07-.32-1.98-.96-2.73Z"/>
  </g>
</svg>