<?xml version="1.0" encoding="UTF-8"?>
<svg id="_レイヤー_1" data-name="レイヤー_1" xmlns="http://www.w3.org/2000/svg" viewBox="0 0 215.38 25.7">
  <path d="M14.11,4.9c-1.08-2.88-3.74-2.95-4.28-2.95-1.73,0-2.92.65-3.71,1.44-1.15,1.15-1.4,2.45-1.4,3.38,0,1.04.36,1.84,1.01,2.52.79.86,1.8,1.26,2.88,1.87l1.19.65c1.48.83,2.74,1.37,3.67,2.34,1.08,1.08,1.44,2.23,1.44,3.64,0,2.09-.79,4-2.23,5.36-1.87,1.8-4,2.09-5.98,2.09-1.8,0-3.42-.36-4.82-1.76-.9-.9-1.55-2.2-1.87-3.38l1.44-.65c.07.25.47,1.76,1.58,2.88,1.12,1.12,2.48,1.48,3.74,1.48,1.69,0,3.56-.47,4.75-1.58.72-.68,1.66-1.98,1.66-4.17,0-1.19-.29-2.05-1.15-2.92-.9-.9-2.23-1.48-3.24-2.02l-1.66-.9c-.79-.43-2.02-1.26-2.7-1.98-.86-.9-1.37-1.91-1.37-3.38,0-2.12,1.01-3.56,1.84-4.39,1.12-1.08,2.7-1.94,5-1.94s4.5,1.04,5.47,3.42l-1.26.97Z"/>
  <path d="M22.36,12.13L35.1.83h2.09l-13.1,11.52,10.76,12.49h-2.09l-9.9-11.45-.72.61-1.33,10.83h-1.58L22.18.83h1.58l-1.4,11.3Z"/>
  <path d="M43.2.83l-2.95,24.01h-1.58L41.62.83h1.58Z"/>
  <path d="M46.73,24.84L49.71.58l17.57,21.17,2.56-20.91h1.58l-3.02,24.62L50.83,4.28l-2.52,20.55h-1.58Z"/>
  <path d="M87.87.83l-2.95,24.01h-1.58l2.95-24.01h1.58Z"/>
  <path d="M91.15,24.84L96.95,0l7.67,22.21L117.75,0l-.32,24.84h-1.58l.25-19.29-11.92,20.16-6.95-20.16-4.5,19.29h-1.58Z"/>
  <path d="M126.65,13.43l-1.4,11.41h-1.58l2.95-24.01h4.64c1.15,0,3.35.14,4.86,1.69.72.72,1.48,1.98,1.48,4.03s-.72,3.78-1.76,4.86c-.94.97-2.7,2.02-6.08,2.02h-3.1ZM126.83,11.99h3.17c1.37,0,3.13-.18,4.43-1.4.76-.72,1.44-1.94,1.44-3.96,0-.9-.14-1.98-1.04-2.95-1.3-1.4-2.88-1.4-4.25-1.4h-2.56l-1.19,9.72Z"/>
  <path d="M144.32.83l-2.77,22.57h6.7l-.18,1.44h-8.28l2.95-24.01h1.58Z"/>
  <path d="M165.27,16.95h-10.22l-4.18,7.88h-1.8L162.21.11l6.95,24.73h-1.66l-2.23-7.88ZM164.88,15.51l-3.1-11.37-5.97,11.37h9.07Z"/>
  <path d="M172.9,24.84l2.99-24.26,17.57,21.17,2.56-20.91h1.58l-3.02,24.62-17.57-21.17-2.52,20.55h-1.58Z"/>
  <path d="M208.98,2.27l-2.77,22.57h-1.58l2.77-22.57h-6.23l.18-1.44h14.04l-.18,1.44h-6.23Z"/>
</svg>