<?xml version="1.0" encoding="UTF-8"?>
<svg id="_レイヤー_1" data-name="レイヤー_1" xmlns="http://www.w3.org/2000/svg" viewBox="0 0 105.41 24.73">
  <path d="M14.11,4.39c-1.08-2.88-3.74-2.95-4.28-2.95-1.73,0-2.92.65-3.71,1.44-1.15,1.15-1.4,2.45-1.4,3.38,0,1.04.36,1.84,1.01,2.52.79.86,1.8,1.26,2.88,1.87l1.19.65c1.48.83,2.74,1.37,3.67,2.34,1.08,1.08,1.44,2.23,1.44,3.64,0,2.09-.79,4-2.23,5.36-1.87,1.8-4,2.09-5.98,2.09-1.8,0-3.42-.36-4.82-1.76-.9-.9-1.55-2.2-1.87-3.38l1.44-.65c.07.25.47,1.76,1.58,2.88,1.12,1.12,2.48,1.48,3.74,1.48,1.69,0,3.56-.47,4.75-1.58.72-.68,1.66-1.98,1.66-4.17,0-1.19-.29-2.05-1.15-2.92-.9-.9-2.23-1.48-3.24-2.02l-1.66-.9c-.79-.43-2.02-1.26-2.7-1.98-.86-.9-1.37-1.91-1.37-3.38,0-2.12,1.01-3.56,1.84-4.39,1.12-1.08,2.7-1.94,5-1.94s4.5,1.04,5.47,3.42l-1.26.97Z"/>
  <path d="M22.21,12.92l-1.4,11.41h-1.58L22.18.32h4.64c1.15,0,3.35.14,4.86,1.69.72.72,1.48,1.98,1.48,4.03s-.72,3.78-1.76,4.86c-.94.97-2.7,2.02-6.08,2.02h-3.1ZM22.39,11.48h3.17c1.37,0,3.13-.18,4.43-1.4.76-.72,1.44-1.94,1.44-3.96,0-.9-.14-1.98-1.04-2.95-1.3-1.4-2.88-1.4-4.25-1.4h-2.56l-1.19,9.72Z"/>
  <path d="M39.89.32l-2.95,24.01h-1.58L38.3.32h1.58Z"/>
  <path d="M65.12,5.22c-.25-.32-1.44-1.8-3.2-2.74-1.87-.97-3.92-1.04-4.46-1.04-2.81,0-6.05,1.04-8.53,3.53s-3.6,5.69-3.6,8.64c0,2.66,1.08,5.18,2.77,6.91s4.18,2.77,6.84,2.77c1.76,0,3.24-.36,4.64-1.01,1.51-.68,2.74-1.58,3.78-2.63l-.25,2.09c-.97.83-2.23,1.66-3.46,2.16-.68.29-2.3.83-4.75.83-3.09,0-5.76-.9-7.99-3.13-1.84-1.84-3.31-4.54-3.31-8.06,0-3.17,1.19-6.8,4.25-9.72,3.28-3.13,6.98-3.82,9.65-3.82s4.39.76,4.9.97c1.04.5,2.12,1.26,2.99,2.16l-.25,2.09Z"/>
  <path d="M72.47.32l-1.84,15.01c-.25,2.05-.65,4.54,1.26,6.41,1.37,1.33,3.1,1.55,4.46,1.55,1.51,0,3.63-.29,5.22-1.87,1.66-1.66,1.94-3.82,2.23-6.08l1.84-15.01h1.58l-1.84,15.01c-.25,2.16-.54,4.93-2.81,7.16-1.98,1.94-4.25,2.23-6.26,2.23-1.66,0-4-.25-5.72-1.98-1.91-1.94-1.91-4.5-1.55-7.42l1.84-15.01h1.58Z"/>
  <path d="M104.15,4.39c-1.08-2.88-3.74-2.95-4.28-2.95-1.73,0-2.92.65-3.71,1.44-1.15,1.15-1.4,2.45-1.4,3.38,0,1.04.36,1.84,1.01,2.52.79.86,1.8,1.26,2.88,1.87l1.19.65c1.48.83,2.74,1.37,3.67,2.34,1.08,1.08,1.44,2.23,1.44,3.64,0,2.09-.79,4-2.23,5.36-1.87,1.8-4,2.09-5.98,2.09-1.8,0-3.42-.36-4.82-1.76-.9-.9-1.55-2.2-1.87-3.38l1.44-.65c.07.25.47,1.76,1.58,2.88,1.12,1.12,2.48,1.48,3.74,1.48,1.69,0,3.56-.47,4.75-1.58.72-.68,1.66-1.98,1.66-4.17,0-1.19-.29-2.05-1.15-2.92-.9-.9-2.23-1.48-3.24-2.02l-1.66-.9c-.79-.43-2.02-1.26-2.7-1.98-.86-.9-1.37-1.91-1.37-3.38,0-2.12,1.01-3.56,1.84-4.39,1.12-1.08,2.7-1.94,5-1.94s4.5,1.04,5.47,3.42l-1.26.97Z"/>
</svg>