<?xml version="1.0" encoding="UTF-8"?>
<svg id="_レイヤー_1" data-name="レイヤー_1" xmlns="http://www.w3.org/2000/svg" viewBox="0 0 83.49 161.92">
  <defs>
    <style>
      .cls-1 {
        fill: #fff;
      }
    </style>
  </defs>
  <path class="cls-1" d="M52.55,24.15c-3.45,2-6.9,3.95-10.35,5.87-3.45,1.92-6.75,3.64-9.89,5.17-3.14,1.54-5.87,2.76-8.17,3.68l-1.61-2.76c3.37-1.38,7.63-3.37,12.76-5.98,5.14-2.61,10.46-5.55,15.99-8.85,5.52-3.3,10.85-6.79,15.98-10.46,5.14-3.68,9.47-7.28,13-10.81h3.22l-44.39,158.7h24.61l-.92,3.22H0l.92-3.22h22.08L62.1,18.4c-2.91,1.84-6.09,3.76-9.54,5.75Z"/>
</svg>