<?xml version="1.0" encoding="UTF-8"?>
<svg id="_レイヤー_1" data-name="レイヤー_1" xmlns="http://www.w3.org/2000/svg" viewBox="0 0 120.98 161.92">
  <defs>
    <style>
      .cls-1 {
        fill: #fff;
      }
    </style>
  </defs>
  <path class="cls-1" d="M0,158.93c11.96-11.5,23.58-22.88,34.84-34.16s22.88-23.11,34.84-35.54c9.66-10.12,17.56-20.05,23.69-29.78,6.13-9.74,9.2-19.21,9.2-28.41,0-7.82-1.92-14.41-5.75-19.78-3.83-5.37-9.89-8.05-18.17-8.05-3.99,0-7.59.58-10.81,1.73s-5.94,2.65-8.17,4.49c-2.22,1.84-3.95,3.87-5.17,6.09-1.23,2.22-1.84,4.49-1.84,6.79,0,1.23.04,2.15.11,2.76.08.61.19,1.15.35,1.61.15.46.27,1,.34,1.61.08.62.12,1.54.12,2.76,0,2.61-.84,4.76-2.53,6.44-1.69,1.69-4.06,2.53-7.13,2.53-5.83,0-8.74-3.29-8.74-9.89,0-2.76,1.11-5.9,3.33-9.43,2.22-3.53,5.33-6.82,9.32-9.89,3.99-3.07,8.78-5.64,14.38-7.71,5.59-2.07,11.69-3.1,18.28-3.1,5.52,0,10.73.96,15.64,2.88,4.91,1.92,9.2,4.48,12.88,7.71,3.68,3.22,6.59,6.98,8.74,11.27,2.15,4.29,3.22,8.82,3.22,13.57s-.88,9.58-2.64,14.03c-1.76,4.45-4.14,8.74-7.13,12.88-2.99,4.14-6.55,8.24-10.7,12.3-4.14,4.06-8.59,8.16-13.34,12.3l-69.46,59.34v.46h60.26c4.45,0,8.32-.61,11.61-1.84,3.3-1.23,5.56-3.99,6.79-8.28l2.76-8.74h3.45l-8.97,34.04H1.15l-1.15-2.99Z"/>
</svg>