<?xml version="1.0" encoding="UTF-8"?>
<svg id="_レイヤー_1" data-name="レイヤー_1" xmlns="http://www.w3.org/2000/svg" viewBox="0 0 111.55 167.21">
  <defs>
    <style>
      .cls-1 {
        fill: #fff;
      }
    </style>
  </defs>
  <path class="cls-1" d="M52.55,75.09c6.67-1.61,13.15-4.33,19.44-8.16,6.59-3.99,11.77-9.66,15.52-17.02,3.76-7.36,5.63-15.49,5.63-24.38,0-7.36-1.61-12.92-4.83-16.67-3.22-3.75-7.82-5.64-13.8-5.64-7.51,0-12.69,1.88-15.52,5.64-2.84,3.76-4.25,8.4-4.25,13.92,0,4.14-.69,7.25-2.07,9.31-1.38,2.07-3.99,3.11-7.82,3.11-2.15,0-3.95-.61-5.41-1.84-1.46-1.23-2.18-3.29-2.18-6.21,0-3.37.96-6.67,2.88-9.89,1.92-3.22,4.52-6.1,7.82-8.62,3.3-2.53,7.25-4.6,11.84-6.21,4.6-1.61,9.66-2.41,15.18-2.41,4.91,0,9.58.73,14.03,2.18,4.45,1.46,8.32,3.53,11.62,6.21,3.29,2.68,5.94,5.79,7.93,9.31,1.99,3.53,2.99,7.36,2.99,11.5,0,6.75-2.07,12.77-6.21,18.06-4.14,5.29-8.97,9.89-14.49,13.8-5.52,3.91-11.15,7.09-16.9,9.54-5.75,2.46-10.24,4.22-13.46,5.29l.23.46c4.14,0,8.43.46,12.88,1.38,4.45.92,8.51,2.53,12.19,4.83s6.71,5.48,9.08,9.54c2.38,4.07,3.56,9.24,3.56,15.53s-2.03,13.19-6.09,20.24c-4.06,7.05-9.43,13.5-16.1,19.32-6.67,5.83-14.26,10.62-22.77,14.38-8.51,3.76-17.21,5.63-26.11,5.63-5.21,0-9.58-.5-13.11-1.49-3.53-1-6.36-2.22-8.51-3.68-2.15-1.46-3.64-3.07-4.49-4.83-.84-1.76-1.26-3.34-1.26-4.72,0-2.45.84-4.22,2.53-5.29,1.69-1.07,3.53-1.61,5.52-1.61,1.84,0,3.53.42,5.06,1.26,1.53.84,3.22,3.03,5.06,6.56,1.07,1.99,2.07,3.68,2.99,5.06.92,1.38,1.96,2.46,3.11,3.22,1.15.77,2.53,1.34,4.14,1.72,1.61.38,3.57.58,5.87.58,6.13,0,11.96-1.8,17.48-5.41,5.52-3.6,10.39-8.2,14.61-13.8,4.21-5.6,7.55-11.81,10-18.63,2.45-6.82,3.68-13.53,3.68-20.12,0-7.82-2-14.3-5.98-19.44-3.99-5.13-9.97-7.7-17.94-7.7-1.69,0-3.49.15-5.41.46-1.92.31-3.76.65-5.52,1.04-1.76.38-3.38.77-4.83,1.15-1.46.38-2.49.65-3.1.8l-.92-3.45c4.14-.92,9.54-2.18,16.21-3.8Z"/>
</svg>